Fraternidad-BoldItalic.ufo
<glyph name="exclam" format="2">
  <advance width="706"/>
  <unicode hex="0021"/>
  <outline>
    <contour>
      <point x="303" y="-22" type="curve" smooth="yes"/>
      <point x="258" y="-22"/>
      <point x="223" y="-7"/>
      <point x="198" y="24" type="curve" smooth="yes"/>
      <point x="172" y="55"/>
      <point x="163" y="92"/>
      <point x="171" y="136" type="curve" smooth="yes"/>
      <point x="178" y="181"/>
      <point x="199" y="218"/>
      <point x="235" y="249" type="curve" smooth="yes"/>
      <point x="270" y="279"/>
      <point x="311" y="294"/>
      <point x="356" y="294" type="curve" smooth="yes"/>
      <point x="402" y="294"/>
      <point x="437" y="279"/>
      <point x="462" y="249" type="curve" smooth="yes"/>
      <point x="487" y="218"/>
      <point x="496" y="181"/>
      <point x="489" y="136" type="curve" smooth="yes"/>
      <point x="481" y="92"/>
      <point x="460" y="55"/>
      <point x="425" y="24" type="curve" smooth="yes"/>
      <point x="390" y="-7"/>
      <point x="349" y="-22"/>
    </contour>
    <contour>
      <point x="261" y="420" type="line"/>
      <point x="301" y="833" type="line"/>
      <point x="401" y="1440" type="line"/>
      <point x="689" y="1440" type="line"/>
      <point x="589" y="833" type="line"/>
      <point x="493" y="420" type="line"/>
    </contour>
  </outline>
</glyph>
<glyph name="numbersign" format="2">
  <advance width="1808"/>
  <unicode hex="0023"/>
  <outline>
    <contour>
      <point x="237" y="2" type="line"/>
      <point x="397" y="378" type="line"/>
      <point x="55" y="378" type="line"/>
      <point x="163" y="634" type="line"/>
      <point x="504" y="634" type="line"/>
      <point x="589" y="840" type="line"/>
      <point x="248" y="840" type="line"/>
      <point x="357" y="1094" type="line"/>
      <point x="696" y="1094" type="line"/>
      <point x="843" y="1440" type="line"/>
      <point x="1102" y="1440" type="line"/>
      <point x="955" y="1094" type="line"/>
      <point x="1167" y="1094" type="line"/>
      <point x="1313" y="1440" type="line"/>
      <point x="1572" y="1440" type="line"/>
      <point x="1425" y="1094" type="line"/>
      <point x="1766" y="1094" type="line"/>
      <point x="1659" y="840" type="line"/>
      <point x="1318" y="840" type="line"/>
      <point x="1231" y="634" type="line"/>
      <point x="1572" y="634" type="line"/>
      <point x="1465" y="378" type="line"/>
      <point x="1124" y="378" type="line"/>
      <point x="966" y="2" type="line"/>
      <point x="707" y="2" type="line"/>
      <point x="865" y="378" type="line"/>
      <point x="653" y="378" type="line"/>
      <point x="496" y="2" type="line"/>
    </contour>
    <contour>
      <point x="762" y="634" type="line"/>
      <point x="972" y="634" type="line"/>
      <point x="1060" y="840" type="line"/>
      <point x="848" y="840" type="line"/>
    </contour>
  </outline>
</glyph>
<glyph name="dollar" format="2">
  <advance width="1245"/>
  <unicode hex="0024"/>
  <outline>
    <contour>
      <point x="358" y="-200" type="line"/>
      <point x="398" y="40" type="line"/>
      <point x="664" y="40" type="line"/>
      <point x="625" y="-200" type="line"/>
    </contour>
    <contour>
      <point x="623" y="1398" type="line"/>
      <point x="662" y="1638" type="line"/>
      <point x="929" y="1638" type="line"/>
      <point x="889" y="1398" type="line"/>
    </contour>
    <contour>
      <point x="521" y="-30" type="curve" smooth="yes"/>
      <point x="235" y="-30"/>
      <point x="29" y="133"/>
      <point x="37" y="440" type="curve"/>
      <point x="308" y="482" type="line"/>
      <point x="318" y="325"/>
      <point x="420" y="224"/>
      <point x="579" y="224" type="curve" smooth="yes"/>
      <point x="692" y="224"/>
      <point x="846" y="280"/>
      <point x="866" y="408" type="curve" smooth="yes"/>
      <point x="878" y="492"/>
      <point x="833" y="526"/>
      <point x="759" y="552" type="curve" smooth="yes"/>
      <point x="428" y="662" type="line" smooth="yes"/>
      <point x="236" y="726"/>
      <point x="157" y="850"/>
      <point x="189" y="1038" type="curve" smooth="yes"/>
      <point x="238" y="1324"/>
      <point x="478" y="1469"/>
      <point x="760" y="1468" type="curve" smooth="yes"/>
      <point x="1027" y="1465"/>
      <point x="1204" y="1327"/>
      <point x="1227" y="1046" type="curve"/>
      <point x="944" y="996" type="line"/>
      <point x="935" y="1128"/>
      <point x="850" y="1209"/>
      <point x="714" y="1214" type="curve" smooth="yes"/>
      <point x="611" y="1216"/>
      <point x="475" y="1167"/>
      <point x="455" y="1052" type="curve" smooth="yes"/>
      <point x="443" y="983"/>
      <point x="490" y="934"/>
      <point x="610" y="898" type="curve" smooth="yes"/>
      <point x="847" y="826" type="line" smooth="yes"/>
      <point x="1056" y="761"/>
      <point x="1172" y="660"/>
      <point x="1134" y="428" type="curve" smooth="yes"/>
      <point x="1085" y="130"/>
      <point x="809" y="-30"/>
    </contour>
  </outline>
</glyph>
<glyph name="percent" format="2">
  <advance width="1747"/>
  <unicode hex="0025"/>
  <outline>
    <contour>
      <point x="275" y="0" type="line"/>
      <point x="129" y="180" type="line"/>
      <point x="1572" y="1440" type="line"/>
      <point x="1718" y="1258" type="line"/>
    </contour>
    <contour>
      <point x="1211" y="-30" type="qcurve" smooth="yes"/>
      <point x="1138" y="-30"/>
      <point x="1020" y="27"/>
      <point x="940" y="125"/>
      <point x="906" y="256"/>
      <point x="918" y="330" type="qcurve" smooth="yes"/>
      <point x="930" y="403"/>
      <point x="1009" y="534"/>
      <point x="1121" y="632"/>
      <point x="1259" y="690"/>
      <point x="1330" y="690" type="qcurve" smooth="yes"/>
      <point x="1404" y="690"/>
      <point x="1523" y="634"/>
      <point x="1603" y="536"/>
      <point x="1636" y="405"/>
      <point x="1624" y="330" type="qcurve" smooth="yes"/>
      <point x="1612" y="255"/>
      <point x="1535" y="124"/>
      <point x="1423" y="27"/>
      <point x="1285" y="-30"/>
    </contour>
    <contour>
      <point x="1249" y="200" type="qcurve" smooth="yes"/>
      <point x="1274" y="200"/>
      <point x="1324" y="221"/>
      <point x="1366" y="257"/>
      <point x="1394" y="304"/>
      <point x="1398" y="330" type="qcurve" smooth="yes"/>
      <point x="1402" y="356"/>
      <point x="1390" y="403"/>
      <point x="1360" y="439"/>
      <point x="1318" y="460"/>
      <point x="1292" y="460" type="qcurve" smooth="yes"/>
      <point x="1267" y="460"/>
      <point x="1217" y="439"/>
      <point x="1176" y="403"/>
      <point x="1148" y="356"/>
      <point x="1143" y="330" type="qcurve"/>
      <point x="1139" y="304"/>
      <point x="1152" y="257"/>
      <point x="1181" y="221"/>
      <point x="1224" y="200"/>
    </contour>
    <contour>
      <point x="517" y="750" type="qcurve" smooth="yes"/>
      <point x="443" y="750"/>
      <point x="325" y="807"/>
      <point x="246" y="904"/>
      <point x="212" y="1035"/>
      <point x="224" y="1110" type="qcurve" smooth="yes"/>
      <point x="236" y="1183"/>
      <point x="315" y="1314"/>
      <point x="427" y="1412"/>
      <point x="565" y="1470"/>
      <point x="636" y="1470" type="qcurve" smooth="yes"/>
      <point x="710" y="1470"/>
      <point x="829" y="1413"/>
      <point x="908" y="1316"/>
      <point x="942" y="1185"/>
      <point x="930" y="1110" type="qcurve" smooth="yes"/>
      <point x="918" y="1036"/>
      <point x="840" y="905"/>
      <point x="727" y="807"/>
      <point x="590" y="750"/>
    </contour>
    <contour>
      <point x="555" y="980" type="qcurve" smooth="yes"/>
      <point x="580" y="980"/>
      <point x="630" y="1001"/>
      <point x="671" y="1037"/>
      <point x="700" y="1084"/>
      <point x="704" y="1110" type="qcurve" smooth="yes"/>
      <point x="708" y="1136"/>
      <point x="696" y="1183"/>
      <point x="666" y="1219"/>
      <point x="624" y="1240"/>
      <point x="598" y="1240" type="qcurve" smooth="yes"/>
      <point x="573" y="1240"/>
      <point x="523" y="1219"/>
      <point x="482" y="1183"/>
      <point x="454" y="1136"/>
      <point x="449" y="1110" type="qcurve"/>
      <point x="445" y="1084"/>
      <point x="458" y="1037"/>
      <point x="487" y="1001"/>
      <point x="530" y="980"/>
    </contour>
  </outline>
</glyph>
<glyph name="ampersand" format="2">
  <advance width="1312"/>
  <unicode hex="0026"/>
  <outline>
    <contour>
      <point x="504" y="-30" type="qcurve" smooth="yes"/>
      <point x="401" y="-30"/>
      <point x="225" y="26"/>
      <point x="103" y="138"/>
      <point x="48" y="308"/>
      <point x="67" y="422" type="qcurve" smooth="yes"/>
      <point x="87" y="541"/>
      <point x="198" y="720"/>
      <point x="301" y="794" type="qcurve"/>
      <point x="280" y="824"/>
      <point x="251" y="883"/>
      <point x="234" y="947"/>
      <point x="232" y="1016"/>
      <point x="238" y="1056" type="qcurve" smooth="yes"/>
      <point x="255" y="1160"/>
      <point x="355" y="1314"/>
      <point x="498" y="1416"/>
      <point x="674" y="1466"/>
      <point x="767" y="1466" type="qcurve" smooth="yes"/>
      <point x="844" y="1466"/>
      <point x="979" y="1427"/>
      <point x="1082" y="1348"/>
      <point x="1144" y="1229"/>
      <point x="1149" y="1148" type="qcurve"/>
      <point x="876" y="1094" type="line"/>
      <point x="873" y="1127"/>
      <point x="846" y="1173"/>
      <point x="803" y="1200"/>
      <point x="748" y="1212"/>
      <point x="717" y="1212" type="qcurve" smooth="yes"/>
      <point x="680" y="1212"/>
      <point x="609" y="1193"/>
      <point x="553" y="1154"/>
      <point x="513" y="1094"/>
      <point x="506" y="1052" type="qcurve" smooth="yes"/>
      <point x="500" y="1018"/>
      <point x="521" y="957"/>
      <point x="558" y="903"/>
      <point x="604" y="856"/>
      <point x="623" y="834" type="qcurve" smooth="yes"/>
      <point x="896" y="528" type="line"/>
      <point x="901" y="558"/>
      <point x="911" y="619"/>
      <point x="921" y="681"/>
      <point x="931" y="743"/>
      <point x="937" y="774" type="qcurve"/>
      <point x="1168" y="774" type="line"/>
      <point x="1122" y="500" type="line" smooth="yes"/>
      <point x="1115" y="455"/>
      <point x="1098" y="364"/>
      <point x="1081" y="320" type="qcurve"/>
      <point x="1227" y="158" type="line"/>
      <point x="1025" y="-28" type="line"/>
      <point x="917" y="98" type="line"/>
      <point x="866" y="59"/>
      <point x="767" y="10"/>
      <point x="665" y="-19"/>
      <point x="560" y="-30"/>
    </contour>
    <contour>
      <point x="558" y="228" type="qcurve" smooth="yes"/>
      <point x="582" y="228"/>
      <point x="633" y="233"/>
      <point x="683" y="245"/>
      <point x="732" y="265"/>
      <point x="755" y="280" type="qcurve"/>
      <point x="464" y="604" type="line"/>
      <point x="408" y="581"/>
      <point x="347" y="494"/>
      <point x="338" y="438" type="qcurve" smooth="yes"/>
      <point x="329" y="381"/>
      <point x="359" y="302"/>
      <point x="421" y="251"/>
      <point x="509" y="228"/>
    </contour>
  </outline>
</glyph>
<glyph name="parenleft" format="2">
  <advance width="880"/>
  <unicode hex="0028"/>
  <outline>
    <contour>
      <point x="476" y="-388" type="line"/>
      <point x="431" y="-319"/>
      <point x="360" y="-166"/>
      <point x="333" y="-79" type="qcurve" smooth="yes"/>
      <point x="280" y="95"/>
      <point x="260" y="472"/>
      <point x="295" y="660" type="qcurve"/>
      <point x="309" y="754"/>
      <point x="358" y="941"/>
      <point x="396" y="1037" type="qcurve" smooth="yes"/>
      <point x="469" y="1228"/>
      <point x="686" y="1571"/>
      <point x="823" y="1708" type="qcurve"/>
      <point x="997" y="1560" type="line"/>
      <point x="925" y="1486"/>
      <point x="807" y="1340"/>
      <point x="761" y="1267" type="qcurve" smooth="yes"/>
      <point x="669" y="1119"/>
      <point x="564" y="820"/>
      <point x="536" y="660" type="qcurve"/>
      <point x="524" y="580"/>
      <point x="513" y="426"/>
      <point x="514" y="351" type="qcurve" smooth="yes"/>
      <point x="517" y="200"/>
      <point x="604" y="-93"/>
      <point x="699" y="-240" type="qcurve"/>
    </contour>
  </outline>
</glyph>
<glyph name="parenright" format="2">
  <advance width="880"/>
  <unicode hex="0029"/>
  <outline>
    <contour>
      <point x="-76" y="-240" type="line"/>
      <point x="-4" y="-166"/>
      <point x="113" y="-20"/>
      <point x="160" y="54" type="qcurve" smooth="yes"/>
      <point x="252" y="201"/>
      <point x="357" y="500"/>
      <point x="385" y="660" type="qcurve"/>
      <point x="397" y="740"/>
      <point x="409" y="894"/>
      <point x="408" y="970" type="qcurve" smooth="yes"/>
      <point x="405" y="1120"/>
      <point x="317" y="1413"/>
      <point x="222" y="1560" type="qcurve"/>
      <point x="445" y="1708" type="line"/>
      <point x="490" y="1639"/>
      <point x="562" y="1487"/>
      <point x="589" y="1400" type="qcurve" smooth="yes"/>
      <point x="642" y="1226"/>
      <point x="661" y="848"/>
      <point x="626" y="660" type="qcurve"/>
      <point x="612" y="566"/>
      <point x="563" y="379"/>
      <point x="526" y="284" type="qcurve" smooth="yes"/>
      <point x="452" y="93"/>
      <point x="235" y="-251"/>
      <point x="98" y="-388" type="qcurve"/>
    </contour>
  </outline>
</glyph>
<glyph name="asterisk" format="2">
  <advance width="916"/>
  <unicode hex="002A"/>
  <outline>
    <contour>
      <point x="339" y="710" type="line"/>
      <point x="172" y="850" type="line"/>
      <point x="345" y="1018" type="line"/>
      <point x="138" y="1074" type="line"/>
      <point x="249" y="1302" type="line"/>
      <point x="438" y="1212" type="line"/>
      <point x="458" y="1440" type="line"/>
      <point x="693" y="1440" type="line"/>
      <point x="638" y="1212" type="line"/>
      <point x="856" y="1302" type="line"/>
      <point x="891" y="1074" type="line"/>
      <point x="666" y="1018" type="line"/>
      <point x="783" y="850" type="line"/>
      <point x="570" y="710" type="line"/>
      <point x="486" y="900" type="line"/>
    </contour>
  </outline>
</glyph>
<glyph name="plus" format="2">
  <advance width="1093"/>
  <unicode hex="002B"/>
  <outline>
    <contour>
      <point x="377" y="270" type="line"/>
      <point x="432" y="616" type="line"/>
      <point x="93" y="616" type="line"/>
      <point x="126" y="826" type="line"/>
      <point x="466" y="826" type="line"/>
      <point x="520" y="1170" type="line"/>
      <point x="726" y="1170" type="line"/>
      <point x="671" y="826" type="line"/>
      <point x="1008" y="826" type="line"/>
      <point x="975" y="616" type="line"/>
      <point x="638" y="616" type="line"/>
      <point x="583" y="270" type="line"/>
    </contour>
  </outline>
</glyph>
<glyph name="comma" format="2">
  <advance width="599"/>
  <unicode hex="002C"/>
  <outline>
    <contour>
      <point x="162" y="272" type="line"/>
      <point x="414" y="272" type="line"/>
      <point x="144" y="-329" type="line"/>
      <point x="-22" y="-329" type="line"/>
    </contour>
  </outline>
</glyph>
<glyph name="hyphen" format="2">
  <advance width="806"/>
  <unicode hex="002D"/>
  <outline>
    <contour>
      <point x="72" y="435" type="line"/>
      <point x="107" y="645" type="line"/>
      <point x="695" y="645" type="line"/>
      <point x="660" y="435" type="line"/>
    </contour>
  </outline>
</glyph>
<glyph name="period" format="2">
  <advance width="594"/>
  <unicode hex="002E"/>
  <outline>
    <contour>
      <point x="184" y="-22" type="qcurve" smooth="yes"/>
      <point x="126" y="-22"/>
      <point x="51" y="50"/>
      <point x="51" y="109" type="qcurve" smooth="yes"/>
      <point x="51" y="146"/>
      <point x="80" y="213"/>
      <point x="130" y="264"/>
      <point x="197" y="294"/>
      <point x="234" y="294" type="qcurve" smooth="yes"/>
      <point x="293" y="294"/>
      <point x="367" y="224"/>
      <point x="367" y="164" type="qcurve" smooth="yes"/>
      <point x="367" y="127"/>
      <point x="338" y="59"/>
      <point x="289" y="8"/>
      <point x="222" y="-22"/>
    </contour>
  </outline>
</glyph>
<glyph name="slash" format="2">
  <advance width="861"/>
  <unicode hex="002F"/>
  <outline>
    <contour>
      <point x="690" y="1440" type="line"/>
      <point x="75" y="0" type="line"/>
      <point x="342" y="0" type="line"/>
      <point x="956" y="1440" type="line"/>
    </contour>
  </outline>
</glyph>
<glyph name="zero" format="2">
  <advance width="1293"/>
  <unicode hex="0030"/>
  <outline>
    <contour>
      <point x="574" y="-30" type="qcurve" smooth="yes"/>
      <point x="467" y="-30"/>
      <point x="290" y="36"/>
      <point x="164" y="158"/>
      <point x="95" y="332"/>
      <point x="95" y="441" type="qcurve" smooth="yes"/>
      <point x="95" y="457"/>
      <point x="96" y="488"/>
      <point x="98" y="504" type="qcurve"/>
      <point x="166" y="936" type="line" smooth="yes"/>
      <point x="184" y="1053"/>
      <point x="278" y="1249"/>
      <point x="423" y="1391"/>
      <point x="617" y="1470"/>
      <point x="737" y="1470" type="qcurve" smooth="yes"/>
      <point x="844" y="1470"/>
      <point x="1021" y="1404"/>
      <point x="1147" y="1282"/>
      <point x="1216" y="1108"/>
      <point x="1216" y="999" type="qcurve" smooth="yes"/>
      <point x="1216" y="983"/>
      <point x="1215" y="952"/>
      <point x="1213" y="936" type="qcurve"/>
      <point x="1145" y="504" type="line" smooth="yes"/>
      <point x="1127" y="387"/>
      <point x="1033" y="191"/>
      <point x="888" y="49"/>
      <point x="694" y="-30"/>
    </contour>
    <contour>
      <point x="597" y="228" type="qcurve" smooth="yes"/>
      <point x="651" y="228"/>
      <point x="744" y="268"/>
      <point x="816" y="337"/>
      <point x="863" y="431"/>
      <point x="871" y="484" type="qcurve" smooth="yes"/>
      <point x="942" y="958" type="line" smooth="yes"/>
      <point x="943" y="964"/>
      <point x="943" y="977"/>
      <point x="943" y="983" type="qcurve" smooth="yes"/>
      <point x="943" y="1033"/>
      <point x="909" y="1117"/>
      <point x="847" y="1179"/>
      <point x="764" y="1214"/>
      <point x="714" y="1214" type="qcurve" smooth="yes"/>
      <point x="660" y="1214"/>
      <point x="567" y="1174"/>
      <point x="495" y="1105"/>
      <point x="448" y="1011"/>
      <point x="440" y="958" type="qcurve" smooth="yes"/>
      <point x="369" y="484" type="line" smooth="yes"/>
      <point x="368" y="478"/>
      <point x="368" y="465"/>
      <point x="368" y="459" type="qcurve" smooth="yes"/>
      <point x="368" y="410"/>
      <point x="402" y="325"/>
      <point x="463" y="263"/>
      <point x="547" y="228"/>
    </contour>
  </outline>
</glyph>
<glyph name="one" format="2">
  <advance width="864"/>
  <unicode hex="0031"/>
  <outline>
    <contour>
      <point x="280" y="0" type="line"/>
      <point x="469" y="1144" type="line"/>
      <point x="177" y="978" type="line"/>
      <point x="227" y="1278" type="line"/>
      <point x="518" y="1440" type="line"/>
      <point x="791" y="1440" type="line"/>
      <point x="552" y="0" type="line"/>
    </contour>
  </outline>
</glyph>
<glyph name="two" format="2">
  <advance width="1197"/>
  <unicode hex="0032"/>
  <outline>
    <contour>
      <point x="155.056" y="256.688" type="line"/>
      <point x="831.424" y="783.728" type="line" smooth="yes"/>
      <point x="926.096" y="855.952"/>
      <point x="1003.2" y="914.512"/>
      <point x="1003.2" y="1049.2" type="curve" smooth="yes"/>
      <point x="1003.2" y="1162.42"/>
      <point x="907.552" y="1216.1"/>
      <point x="807.024" y="1216.1" type="curve" smooth="yes"/>
      <point x="670.384" y="1216.1"/>
      <point x="583.52" y="1156.56"/>
      <point x="536.672" y="1022.85" type="curve"/>
      <point x="259.488" y="1097.02" type="line"/>
      <point x="373.68" y="1376.16"/>
      <point x="562.048" y="1468.88"/>
      <point x="852.896" y="1468.88" type="curve" smooth="yes"/>
      <point x="1075.42" y="1468.88"/>
      <point x="1286.24" y="1322.48"/>
      <point x="1286.24" y="1077.5" type="curve" smooth="yes"/>
      <point x="1286.24" y="861.808"/>
      <point x="1170.1" y="709.552"/>
      <point x="1011.01" y="587.552" type="curve" smooth="yes"/>
      <point x="574.736" y="256.688" type="line"/>
      <point x="1160.34" y="256.688" type="line"/>
      <point x="1121.3" y="0" type="line"/>
      <point x="116.016" y="0" type="line"/>
    </contour>
  </outline>
</glyph>
<glyph name="three" format="2">
  <advance width="1144"/>
  <unicode hex="0033"/>
  <outline>
    <contour>
      <point x="445" y="-26" type="qcurve" smooth="yes"/>
      <point x="392" y="-26"/>
      <point x="295" y="-5"/>
      <point x="250" y="18" type="qcurve" smooth="yes"/>
      <point x="160" y="62"/>
      <point x="45" y="218"/>
      <point x="33" y="326" type="qcurve"/>
      <point x="303" y="396" type="line"/>
      <point x="307" y="356"/>
      <point x="337" y="296"/>
      <point x="364" y="274" type="qcurve" smooth="yes"/>
      <point x="391" y="252"/>
      <point x="452" y="230"/>
      <point x="487" y="230" type="qcurve" smooth="yes"/>
      <point x="517" y="230"/>
      <point x="576" y="245"/>
      <point x="604" y="260" type="qcurve" smooth="yes"/>
      <point x="659" y="290"/>
      <point x="735" y="391"/>
      <point x="746" y="454" type="qcurve" smooth="yes"/>
      <point x="754" y="501"/>
      <point x="736" y="580"/>
      <point x="711" y="614" type="qcurve"/>
      <point x="685" y="647"/>
      <point x="611" y="680"/>
      <point x="562" y="680" type="qcurve" smooth="yes"/>
      <point x="533" y="680"/>
      <point x="475" y="663"/>
      <point x="447" y="648" type="qcurve"/>
      <point x="363" y="862" type="line"/>
      <point x="874" y="1242" type="line"/>
      <point x="884" y="1184" type="line"/>
      <point x="230" y="1184" type="line"/>
      <point x="272" y="1440" type="line"/>
      <point x="1154" y="1440" type="line"/>
      <point x="1112" y="1184" type="line"/>
      <point x="706" y="840" type="line"/>
      <point x="716" y="916" type="line"/>
      <point x="776" y="906"/>
      <point x="872" y="864"/>
      <point x="908" y="830" type="qcurve" smooth="yes"/>
      <point x="945" y="796"/>
      <point x="994" y="713"/>
      <point x="1008" y="664" type="qcurve" smooth="yes"/>
      <point x="1021" y="614"/>
      <point x="1026" y="510"/>
      <point x="1016" y="454" type="qcurve"/>
      <point x="1005" y="385"/>
      <point x="952" y="264"/>
      <point x="908" y="210" type="qcurve" smooth="yes"/>
      <point x="865" y="155"/>
      <point x="762" y="70"/>
      <point x="700" y="38" type="qcurve" smooth="yes"/>
      <point x="639" y="6"/>
      <point x="513" y="-26"/>
    </contour>
  </outline>
</glyph>
<glyph name="four" format="2">
  <advance width="1191"/>
  <unicode hex="0034"/>
  <outline>
    <contour>
      <point x="610" y="0" type="line"/>
      <point x="648" y="224" type="line"/>
      <point x="34" y="224" type="line"/>
      <point x="76" y="478" type="line"/>
      <point x="680" y="1440" type="line"/>
      <point x="986" y="1440" type="line"/>
      <point x="382" y="478" type="line"/>
      <point x="690" y="478" type="line"/>
      <point x="749" y="838" type="line"/>
      <point x="1020" y="838" type="line"/>
      <point x="960" y="478" type="line"/>
      <point x="1086" y="478" type="line"/>
      <point x="1043" y="224" type="line"/>
      <point x="918" y="224" type="line"/>
      <point x="881" y="0" type="line"/>
    </contour>
  </outline>
</glyph>
<glyph name="five" format="2">
  <advance width="1140"/>
  <unicode hex="0035"/>
  <outline>
    <contour>
      <point x="451" y="-30" type="curve" smooth="yes"/>
      <point x="236" y="-30"/>
      <point x="75" y="113"/>
      <point x="51" y="326" type="curve"/>
      <point x="319" y="396" type="line"/>
      <point x="330" y="299"/>
      <point x="406" y="230"/>
      <point x="504" y="230" type="curve" smooth="yes"/>
      <point x="642" y="230"/>
      <point x="765" y="355"/>
      <point x="765" y="493" type="curve" smooth="yes"/>
      <point x="765" y="599"/>
      <point x="684" y="678"/>
      <point x="578" y="678" type="curve" smooth="yes"/>
      <point x="497" y="678"/>
      <point x="437" y="654"/>
      <point x="373" y="604" type="curve"/>
      <point x="160" y="674" type="line"/>
      <point x="286" y="1440" type="line"/>
      <point x="1100" y="1440" type="line"/>
      <point x="1058" y="1186" type="line"/>
      <point x="405" y="1186" type="line"/>
      <point x="514" y="1276" type="line"/>
      <point x="432" y="782" type="line"/>
      <point x="396" y="838" type="line"/>
      <point x="467" y="890"/>
      <point x="569" y="922"/>
      <point x="657" y="922" type="curve" smooth="yes"/>
      <point x="886" y="922"/>
      <point x="1039" y="778"/>
      <point x="1039" y="546" type="curve" smooth="yes"/>
      <point x="1039" y="237"/>
      <point x="758" y="-30"/>
    </contour>
  </outline>
</glyph>
<glyph name="six" format="2">
  <advance width="1089"/>
  <unicode hex="0036"/>
  <outline>
    <contour>
      <point x="478" y="-30" type="curve" smooth="yes"/>
      <point x="200" y="-30"/>
      <point x="16" y="173"/>
      <point x="16" y="446" type="curve" smooth="yes"/>
      <point x="16" y="623"/>
      <point x="66" y="801"/>
      <point x="178" y="941" type="curve" smooth="yes"/>
      <point x="579" y="1440" type="line"/>
      <point x="908" y="1440" type="line"/>
      <point x="339" y="744" type="line"/>
      <point x="273" y="794" type="line"/>
      <point x="361" y="876"/>
      <point x="475" y="924"/>
      <point x="595" y="924" type="curve" smooth="yes"/>
      <point x="847" y="924"/>
      <point x="1020" y="753"/>
      <point x="1020" y="501" type="curve" smooth="yes"/>
      <point x="1020" y="206"/>
      <point x="770" y="-30"/>
    </contour>
    <contour>
      <point x="499" y="230" type="curve" smooth="yes"/>
      <point x="631" y="230"/>
      <point x="743" y="340"/>
      <point x="743" y="472" type="curve" smooth="yes"/>
      <point x="743" y="590"/>
      <point x="654" y="680"/>
      <point x="536" y="680" type="curve" smooth="yes"/>
      <point x="406" y="680"/>
      <point x="291" y="569"/>
      <point x="291" y="438" type="curve" smooth="yes"/>
      <point x="291" y="322"/>
      <point x="384" y="230"/>
    </contour>
  </outline>
</glyph>
<glyph name="seven" format="2">
  <advance width="1090"/>
  <unicode hex="0037"/>
  <outline>
    <contour>
      <point x="171" y="0" type="line"/>
      <point x="884" y="1185" type="line"/>
      <point x="241" y="1185" type="line"/>
      <point x="281" y="1440" type="line"/>
      <point x="1212" y="1440" type="line"/>
      <point x="1174" y="1185" type="line"/>
      <point x="462" y="0" type="line"/>
    </contour>
  </outline>
</glyph>
<glyph name="eight" format="2">
  <advance width="1256"/>
  <unicode hex="0038"/>
  <outline>
    <contour>
      <point x="640" y="605" type="curve" smooth="yes"/>
      <point x="518" y="605"/>
      <point x="410" y="550"/>
      <point x="410" y="406" type="curve" smooth="yes"/>
      <point x="410" y="259"/>
      <point x="562" y="222"/>
      <point x="675" y="222" type="curve" smooth="yes"/>
      <point x="801" y="222"/>
      <point x="911" y="285"/>
      <point x="911" y="429" type="curve" smooth="yes"/>
      <point x="911" y="575"/>
      <point x="751" y="605"/>
    </contour>
    <contour>
      <point x="729" y="859" type="curve" smooth="yes"/>
      <point x="856" y="859"/>
      <point x="969" y="894"/>
      <point x="969" y="1046" type="curve" smooth="yes"/>
      <point x="969" y="1152"/>
      <point x="877" y="1214"/>
      <point x="784" y="1214" type="curve" smooth="yes"/>
      <point x="665" y="1214"/>
      <point x="543" y="1176"/>
      <point x="543" y="1022" type="curve" smooth="yes"/>
      <point x="543" y="915"/>
      <point x="633" y="859"/>
    </contour>
    <contour>
      <point x="824" y="1469" type="curve" smooth="yes"/>
      <point x="1045" y="1469"/>
      <point x="1246" y="1315"/>
      <point x="1246" y="1075" type="curve" smooth="yes"/>
      <point x="1246" y="924"/>
      <point x="1180" y="759"/>
      <point x="1035" y="710" type="curve"/>
      <point x="1134" y="662"/>
      <point x="1192" y="542"/>
      <point x="1192" y="432" type="curve" smooth="yes"/>
      <point x="1192" y="125"/>
      <point x="942" y="-33"/>
      <point x="668" y="-33" type="curve" smooth="yes"/>
      <point x="412" y="-33"/>
      <point x="128" y="75"/>
      <point x="128" y="384" type="curve" smooth="yes"/>
      <point x="128" y="547"/>
      <point x="219" y="731"/>
      <point x="383" y="768" type="curve"/>
      <point x="303" y="817"/>
      <point x="267" y="912"/>
      <point x="267" y="1007" type="curve" smooth="yes"/>
      <point x="267" y="1364"/>
      <point x="535" y="1469"/>
    </contour>
  </outline>
</glyph>
<glyph name="nine" format="2">
  <advance width="1090"/>
  <unicode hex="0039"/>
  <outline>
    <contour>
      <point x="630" y="1470" type="curve" smooth="yes"/>
      <point x="909" y="1470"/>
      <point x="1092" y="1268"/>
      <point x="1092" y="994" type="curve" smooth="yes"/>
      <point x="1092" y="816"/>
      <point x="1043" y="640"/>
      <point x="930" y="499" type="curve" smooth="yes"/>
      <point x="529" y="0" type="line"/>
      <point x="200" y="0" type="line"/>
      <point x="769" y="696" type="line"/>
      <point x="835" y="646" type="line"/>
      <point x="748" y="565"/>
      <point x="632" y="516"/>
      <point x="513" y="516" type="curve" smooth="yes"/>
      <point x="261" y="516"/>
      <point x="88" y="687"/>
      <point x="88" y="939" type="curve" smooth="yes"/>
      <point x="88" y="1235"/>
      <point x="337" y="1470"/>
    </contour>
    <contour>
      <point x="609" y="1210" type="curve" smooth="yes"/>
      <point x="477" y="1210"/>
      <point x="365" y="1100"/>
      <point x="365" y="968" type="curve" smooth="yes"/>
      <point x="365" y="851"/>
      <point x="455" y="760"/>
      <point x="572" y="760" type="curve" smooth="yes"/>
      <point x="702" y="760"/>
      <point x="817" y="871"/>
      <point x="817" y="1002" type="curve" smooth="yes"/>
      <point x="817" y="1118"/>
      <point x="725" y="1210"/>
    </contour>
  </outline>
</glyph>
<glyph name="less" format="2">
  <advance width="1219"/>
  <unicode hex="003C"/>
  <outline>
    <contour>
      <point x="659" y="146" type="line"/>
      <point x="265" y="630" type="line"/>
      <point x="820" y="1114" type="line"/>
      <point x="956" y="946" type="line"/>
      <point x="583" y="630" type="line"/>
      <point x="852" y="314" type="line"/>
    </contour>
  </outline>
</glyph>
<glyph name="equal" format="2">
  <advance width="1436"/>
  <unicode hex="003D"/>
  <outline>
    <contour>
      <point x="258" y="810" type="line"/>
      <point x="293" y="1020" type="line"/>
      <point x="1293" y="1020" type="line"/>
      <point x="1258" y="810" type="line"/>
    </contour>
    <contour>
      <point x="194" y="420" type="line"/>
      <point x="229" y="630" type="line"/>
      <point x="1228" y="630" type="line"/>
      <point x="1194" y="420" type="line"/>
    </contour>
  </outline>
</glyph>
<glyph name="greater" format="2">
  <advance width="1219"/>
  <unicode hex="003E"/>
  <outline>
    <contour>
      <point x="269" y="314" type="line"/>
      <point x="643" y="630" type="line"/>
      <point x="373" y="946" type="line"/>
      <point x="566" y="1114" type="line"/>
      <point x="960" y="630" type="line"/>
      <point x="406" y="146" type="line"/>
    </contour>
  </outline>
</glyph>
<glyph name="question" format="2">
  <advance width="1252"/>
  <unicode hex="003F"/>
  <outline>
    <contour>
      <point x="1321" y="988" type="qcurve" smooth="yes"/>
      <point x="1303" y="879"/>
      <point x="1205" y="712"/>
      <point x="1127" y="653" type="qcurve" smooth="yes"/>
      <point x="1050" y="594"/>
      <point x="845" y="532"/>
      <point x="719" y="532" type="qcurve" smooth="yes"/>
      <point x="596" y="532" type="line"/>
      <point x="638" y="788" type="line"/>
      <point x="756" y="788" type="line" smooth="yes"/>
      <point x="872" y="788"/>
      <point x="1026" y="896"/>
      <point x="1043" y="999" type="qcurve" smooth="yes"/>
      <point x="1050" y="1044"/>
      <point x="1028" y="1121"/>
      <point x="1000" y="1151" type="qcurve" smooth="yes"/>
      <point x="973" y="1181"/>
      <point x="888" y="1216"/>
      <point x="833" y="1216" type="qcurve" smooth="yes"/>
      <point x="762" y="1216"/>
      <point x="655" y="1179"/>
      <point x="614" y="1146" type="qcurve" smooth="yes"/>
      <point x="572" y="1112"/>
      <point x="514" y="1018"/>
      <point x="494" y="958" type="qcurve"/>
      <point x="223" y="1000" type="line"/>
      <point x="267" y="1128"/>
      <point x="404" y="1305"/>
      <point x="490" y="1362" type="qcurve" smooth="yes"/>
      <point x="576" y="1419"/>
      <point x="771" y="1470"/>
      <point x="869" y="1470" type="qcurve" smooth="yes"/>
      <point x="985" y="1470"/>
      <point x="1169" y="1408"/>
      <point x="1230" y="1346" type="qcurve" smooth="yes"/>
      <point x="1290" y="1284"/>
      <point x="1340" y="1105"/>
    </contour>
    <contour>
      <point x="574" y="400" type="line"/>
      <point x="638" y="788" type="line"/>
      <point x="885" y="788" type="line"/>
      <point x="821" y="400" type="line"/>
    </contour>
    <contour>
      <point x="627" y="-22" type="qcurve" smooth="yes"/>
      <point x="594" y="-22"/>
      <point x="542" y="1"/>
      <point x="524" y="24" type="qcurve"/>
      <point x="505" y="47"/>
      <point x="492" y="103"/>
      <point x="497" y="136" type="qcurve" smooth="yes"/>
      <point x="503" y="170"/>
      <point x="534" y="226"/>
      <point x="561" y="249" type="qcurve" smooth="yes"/>
      <point x="587" y="272"/>
      <point x="646" y="294"/>
      <point x="680" y="294" type="qcurve" smooth="yes"/>
      <point x="713" y="294"/>
      <point x="765" y="272"/>
      <point x="783" y="249" type="qcurve"/>
      <point x="802" y="226"/>
      <point x="814" y="170"/>
      <point x="809" y="136" type="qcurve" smooth="yes"/>
      <point x="804" y="103"/>
      <point x="772" y="47"/>
      <point x="746" y="24" type="qcurve" smooth="yes"/>
      <point x="720" y="1"/>
      <point x="661" y="-22"/>
    </contour>
  </outline>
</glyph>
<glyph name="at" format="2">
  <advance width="1774"/>
  <unicode hex="0040"/>
  <outline>
    <contour>
      <point x="739" y="-210" type="curve" smooth="yes"/>
      <point x="381" y="-210"/>
      <point x="109" y="-3"/>
      <point x="109" y="372" type="curve" smooth="yes"/>
      <point x="109" y="865"/>
      <point x="469" y="1290"/>
      <point x="975" y="1290" type="curve" smooth="yes"/>
      <point x="1341" y="1290"/>
      <point x="1627" y="1102"/>
      <point x="1627" y="712" type="curve" smooth="yes"/>
      <point x="1627" y="452"/>
      <point x="1529" y="152"/>
      <point x="1228" y="152" type="curve" smooth="yes"/>
      <point x="1132" y="152"/>
      <point x="1024" y="195"/>
      <point x="999" y="296" type="curve"/>
      <point x="1066" y="296" type="line"/>
      <point x="1000" y="200"/>
      <point x="896" y="152"/>
      <point x="781" y="152" type="curve" smooth="yes"/>
      <point x="595" y="152"/>
      <point x="466" y="270"/>
      <point x="466" y="459" type="curve" smooth="yes"/>
      <point x="466" y="711"/>
      <point x="654" y="928"/>
      <point x="913" y="928" type="curve" smooth="yes"/>
      <point x="987" y="928"/>
      <point x="1094" y="895"/>
      <point x="1141" y="836" type="curve"/>
      <point x="1091" y="778" type="line"/>
      <point x="1111" y="900" type="line"/>
      <point x="1269" y="900" type="line"/>
      <point x="1243" y="751"/>
      <point x="1195" y="603"/>
      <point x="1195" y="451" type="curve" smooth="yes"/>
      <point x="1195" y="407"/>
      <point x="1212" y="364"/>
      <point x="1263" y="364" type="curve" smooth="yes"/>
      <point x="1394" y="364"/>
      <point x="1405" y="603"/>
      <point x="1405" y="696" type="curve" smooth="yes"/>
      <point x="1405" y="958"/>
      <point x="1202" y="1080"/>
      <point x="960" y="1080" type="curve" smooth="yes"/>
      <point x="569" y="1080"/>
      <point x="334" y="792"/>
      <point x="334" y="414" type="curve" smooth="yes"/>
      <point x="334" y="133"/>
      <point x="516" y="0"/>
      <point x="783" y="0" type="curve" smooth="yes"/>
      <point x="855" y="0"/>
      <point x="926" y="13"/>
      <point x="995" y="34" type="curve"/>
      <point x="1028" y="-166" type="line"/>
      <point x="935" y="-196"/>
      <point x="837" y="-210"/>
    </contour>
    <contour>
      <point x="832" y="364" type="curve" smooth="yes"/>
      <point x="967" y="364"/>
      <point x="1021" y="471"/>
      <point x="1021" y="593" type="curve" smooth="yes"/>
      <point x="1021" y="674"/>
      <point x="979" y="716"/>
      <point x="898" y="716" type="curve" smooth="yes"/>
      <point x="768" y="716"/>
      <point x="691" y="626"/>
      <point x="691" y="499" type="curve" smooth="yes"/>
      <point x="691" y="410"/>
      <point x="745" y="364"/>
    </contour>
  </outline>
</glyph>
<glyph name="A" format="2">
  <advance width="1333"/>
  <unicode hex="0041"/>
  <outline>
    <contour>
      <point x="2" y="0" type="line"/>
      <point x="672" y="1440" type="line"/>
      <point x="1070" y="1440" type="line"/>
      <point x="1263" y="0" type="line"/>
      <point x="988" y="0" type="line"/>
      <point x="814" y="1270" type="line"/>
      <point x="865" y="1270" type="line"/>
      <point x="277" y="0" type="line"/>
    </contour>
    <contour>
      <point x="311" y="300" type="line"/>
      <point x="353" y="554" type="line"/>
      <point x="1098" y="554" type="line"/>
      <point x="1056" y="300" type="line"/>
    </contour>
  </outline>
</glyph>
<glyph name="B" format="2">
  <advance width="1234"/>
  <unicode hex="0042"/>
  <outline>
    <contour>
      <point x="58" y="0" type="line"/>
      <point x="297" y="1440" type="line"/>
      <point x="861" y="1440" type="line" smooth="yes"/>
      <point x="1075" y="1440"/>
      <point x="1224" y="1331"/>
      <point x="1224" y="1105" type="curve" smooth="yes"/>
      <point x="1224" y="938"/>
      <point x="1134" y="776"/>
      <point x="967" y="728" type="curve"/>
      <point x="975" y="778" type="line"/>
      <point x="1116" y="747"/>
      <point x="1189" y="646"/>
      <point x="1189" y="503" type="curve" smooth="yes"/>
      <point x="1189" y="216"/>
      <point x="977" y="0"/>
      <point x="684" y="0" type="curve" smooth="yes"/>
    </contour>
    <contour>
      <point x="371" y="256" type="line"/>
      <point x="699" y="256" type="line" smooth="yes"/>
      <point x="828" y="256"/>
      <point x="919" y="359"/>
      <point x="919" y="485" type="curve" smooth="yes"/>
      <point x="919" y="582"/>
      <point x="849" y="624"/>
      <point x="760" y="624" type="curve" smooth="yes"/>
      <point x="432" y="624" type="line"/>
    </contour>
    <contour>
      <point x="474" y="878" type="line"/>
      <point x="764" y="878" type="line" smooth="yes"/>
      <point x="873" y="878"/>
      <point x="948" y="950"/>
      <point x="948" y="1060" type="curve" smooth="yes"/>
      <point x="948" y="1145"/>
      <point x="896" y="1186"/>
      <point x="815" y="1186" type="curve" smooth="yes"/>
      <point x="525" y="1186" type="line"/>
    </contour>
  </outline>
</glyph>
<glyph name="C" format="2">
  <advance width="1452"/>
  <unicode hex="0043"/>
  <outline>
    <contour>
      <point x="625" y="-30" type="curve" smooth="yes"/>
      <point x="267" y="-30"/>
      <point x="50" y="189"/>
      <point x="50" y="548" type="curve" smooth="yes"/>
      <point x="50" y="1029"/>
      <point x="362" y="1470"/>
      <point x="873" y="1470" type="curve" smooth="yes"/>
      <point x="1171" y="1470"/>
      <point x="1392" y="1319"/>
      <point x="1438" y="1014" type="curve"/>
      <point x="1157" y="938" type="line"/>
      <point x="1132" y="1124"/>
      <point x="1017" y="1214"/>
      <point x="831" y="1214" type="curve" smooth="yes"/>
      <point x="485" y="1214"/>
      <point x="334" y="884"/>
      <point x="334" y="580" type="curve" smooth="yes"/>
      <point x="334" y="362"/>
      <point x="443" y="226"/>
      <point x="667" y="226" type="curve" smooth="yes"/>
      <point x="860" y="226"/>
      <point x="1006" y="327"/>
      <point x="1085" y="502" type="curve"/>
      <point x="1341" y="426" type="line"/>
      <point x="1201" y="140"/>
      <point x="946" y="-30"/>
    </contour>
  </outline>
</glyph>
<glyph name="D" format="2">
  <advance width="1367"/>
  <unicode hex="0044"/>
  <outline>
    <contour>
      <point x="13" y="0" type="line"/>
      <point x="241" y="1440" type="line"/>
      <point x="648" y="1440" type="line" smooth="yes"/>
      <point x="690" y="1440"/>
      <point x="773" y="1437"/>
      <point x="815" y="1432" type="qcurve" smooth="yes"/>
      <point x="938" y="1416"/>
      <point x="1116" y="1304"/>
      <point x="1232" y="1136"/>
      <point x="1288" y="925"/>
      <point x="1288" y="810" type="qcurve" smooth="yes"/>
      <point x="1288" y="718"/>
      <point x="1255" y="534"/>
      <point x="1188" y="364"/>
      <point x="1088" y="215"/>
      <point x="955" y="98"/>
      <point x="789" y="21"/>
      <point x="690" y="8" type="qcurve" smooth="yes"/>
      <point x="648" y="3"/>
      <point x="563" y="0"/>
      <point x="520" y="0" type="qcurve" smooth="yes"/>
    </contour>
    <contour>
      <point x="324" y="256" type="line"/>
      <point x="542" y="256" type="line" smooth="yes"/>
      <point x="581" y="256"/>
      <point x="659" y="258"/>
      <point x="697" y="266" type="qcurve" smooth="yes"/>
      <point x="752" y="277"/>
      <point x="841" y="336"/>
      <point x="909" y="418"/>
      <point x="958" y="520"/>
      <point x="989" y="628"/>
      <point x="1004" y="737"/>
      <point x="1004" y="786" type="qcurve" smooth="yes"/>
      <point x="1004" y="845"/>
      <point x="983" y="971"/>
      <point x="931" y="1079"/>
      <point x="844" y="1160"/>
      <point x="777" y="1174" type="qcurve" smooth="yes"/>
      <point x="740" y="1182"/>
      <point x="663" y="1184"/>
      <point x="625" y="1184" type="qcurve" smooth="yes"/>
      <point x="471" y="1184" type="line"/>
    </contour>
  </outline>
</glyph>
<glyph name="E" format="2">
  <advance width="1139"/>
  <unicode hex="0045"/>
  <outline>
    <contour>
      <point x="93" y="0" type="line"/>
      <point x="332" y="1440" type="line"/>
      <point x="1253" y="1440" type="line"/>
      <point x="1211" y="1186" type="line"/>
      <point x="556" y="1186" type="line"/>
      <point x="505" y="878" type="line"/>
      <point x="1042" y="878" type="line"/>
      <point x="1000" y="624" type="line"/>
      <point x="463" y="624" type="line"/>
      <point x="402" y="254" type="line"/>
      <point x="1057" y="254" type="line"/>
      <point x="1015" y="0" type="line"/>
    </contour>
  </outline>
</glyph>
<glyph name="F" format="2">
  <advance width="1020"/>
  <unicode hex="0046"/>
  <outline>
    <contour>
      <point x="13" y="0" type="line"/>
      <point x="241" y="1440" type="line"/>
      <point x="1104" y="1440" type="line"/>
      <point x="1061" y="1168" type="line"/>
      <point x="465" y="1168" type="line"/>
      <point x="415" y="856" type="line"/>
      <point x="894" y="856" type="line"/>
      <point x="850" y="584" type="line"/>
      <point x="372" y="584" type="line"/>
      <point x="280" y="0" type="line"/>
    </contour>
  </outline>
</glyph>
<glyph name="G" format="2">
  <advance width="1454"/>
  <unicode hex="0047"/>
  <outline>
    <contour>
      <point x="1059" y="0" type="line"/>
      <point x="1273" y="0" type="line"/>
      <point x="1406" y="806" type="line"/>
      <point x="1162" y="806" type="line"/>
      <point x="1085" y="339" type="line"/>
    </contour>
    <contour>
      <point x="860" y="1470" type="curve" smooth="yes"/>
      <point x="661" y="1470"/>
      <point x="482" y="1395"/>
      <point x="342" y="1262" type="curve" smooth="yes"/>
      <point x="201" y="1129"/>
      <point x="102" y="944"/>
      <point x="65" y="720" type="curve" smooth="yes"/>
      <point x="22" y="457"/>
      <point x="70" y="254"/>
      <point x="188" y="126" type="curve" smooth="yes"/>
      <point x="282" y="24"/>
      <point x="420" y="-30"/>
      <point x="592" y="-30" type="curve" smooth="yes"/>
      <point x="688" y="-30"/>
      <point x="809" y="-6"/>
      <point x="911" y="43" type="curve" smooth="yes"/>
      <point x="977" y="75"/>
      <point x="1035" y="118"/>
      <point x="1072" y="173" type="curve"/>
      <point x="1396" y="806" type="line"/>
      <point x="797" y="806" type="line"/>
      <point x="755" y="552" type="line"/>
      <point x="1113" y="552" type="line"/>
      <point x="1083" y="425"/>
      <point x="994" y="330"/>
      <point x="882" y="276" type="curve" smooth="yes"/>
      <point x="814" y="244"/>
      <point x="738" y="226"/>
      <point x="662" y="226" type="curve" smooth="yes"/>
      <point x="525" y="226"/>
      <point x="440" y="274"/>
      <point x="391" y="348" type="curve" smooth="yes"/>
      <point x="328" y="443"/>
      <point x="324" y="583"/>
      <point x="347" y="720" type="curve" smooth="yes"/>
      <point x="372" y="863"/>
      <point x="428" y="1000"/>
      <point x="523" y="1094" type="curve" smooth="yes"/>
      <point x="598" y="1168"/>
      <point x="698" y="1214"/>
      <point x="827" y="1214" type="curve" smooth="yes"/>
      <point x="914" y="1214"/>
      <point x="988" y="1192"/>
      <point x="1042" y="1147" type="curve" smooth="yes"/>
      <point x="1098" y="1100"/>
      <point x="1133" y="1030"/>
      <point x="1138" y="936" type="curve"/>
      <point x="1417" y="976" type="line"/>
      <point x="1401" y="1136"/>
      <point x="1349" y="1256"/>
      <point x="1262" y="1338" type="curve" smooth="yes"/>
      <point x="1168" y="1426"/>
      <point x="1034" y="1470"/>
    </contour>
  </outline>
</glyph>
<glyph name="H" format="2">
  <advance width="1419"/>
  <unicode hex="0048"/>
  <outline>
    <contour>
      <point x="93" y="0" type="line"/>
      <point x="332" y="1440" type="line"/>
      <point x="598" y="1440" type="line"/>
      <point x="500" y="848" type="line"/>
      <point x="1131" y="848" type="line"/>
      <point x="1229" y="1440" type="line"/>
      <point x="1496" y="1440" type="line"/>
      <point x="1258" y="0" type="line"/>
      <point x="991" y="0" type="line"/>
      <point x="1089" y="594" type="line"/>
      <point x="458" y="594" type="line"/>
      <point x="360" y="0" type="line"/>
    </contour>
  </outline>
</glyph>
<glyph name="I" format="2">
  <advance width="557"/>
  <unicode hex="0049"/>
  <outline>
    <contour>
      <point x="77" y="0" type="line"/>
      <point x="315" y="1440" type="line"/>
      <point x="582" y="1440" type="line"/>
      <point x="343" y="0" type="line"/>
    </contour>
  </outline>
</glyph>
<glyph name="J" format="2">
  <advance width="994"/>
  <unicode hex="004A"/>
  <outline>
    <contour>
      <point x="394" y="-30" type="curve" smooth="yes"/>
      <point x="183" y="-30"/>
      <point x="43" y="84"/>
      <point x="15" y="296" type="curve"/>
      <point x="288" y="360" type="line"/>
      <point x="288" y="287"/>
      <point x="351" y="224"/>
      <point x="424" y="224" type="curve" smooth="yes"/>
      <point x="516" y="224"/>
      <point x="563" y="272"/>
      <point x="589" y="337" type="curve" smooth="yes"/>
      <point x="607" y="381"/>
      <point x="616" y="431"/>
      <point x="624" y="480" type="curve" smooth="yes"/>
      <point x="783" y="1440" type="line"/>
      <point x="1053" y="1440" type="line"/>
      <point x="894" y="480" type="line" smooth="yes"/>
      <point x="882" y="408"/>
      <point x="874" y="333"/>
      <point x="849" y="265" type="curve" smooth="yes"/>
      <point x="780" y="80"/>
      <point x="585" y="-30"/>
    </contour>
  </outline>
</glyph>
<glyph name="K" format="2">
  <advance width="1293"/>
  <unicode hex="004B"/>
  <outline>
    <contour>
      <point x="1135" y="1440" type="line"/>
      <point x="1461" y="1440" type="line"/>
      <point x="275" y="323" type="line"/>
      <point x="339" y="696" type="line"/>
    </contour>
    <contour>
      <point x="929" y="0" type="line"/>
      <point x="486" y="696" type="line"/>
      <point x="751" y="799" type="line"/>
      <point x="1260" y="0" type="line"/>
    </contour>
    <contour>
      <point x="93" y="0" type="line"/>
      <point x="332" y="1440" type="line"/>
      <point x="589" y="1440" type="line"/>
      <point x="350" y="0" type="line"/>
    </contour>
  </outline>
</glyph>
<glyph name="L" format="2">
  <advance width="1047"/>
  <unicode hex="004C"/>
  <outline>
    <contour>
      <point x="112" y="0" type="line"/>
      <point x="350" y="1440" type="line"/>
      <point x="617" y="1440" type="line"/>
      <point x="420" y="254" type="line"/>
      <point x="1028" y="254" type="line"/>
      <point x="986" y="0" type="line"/>
    </contour>
  </outline>
</glyph>
<glyph name="M" format="2">
  <advance width="1680"/>
  <unicode hex="004D"/>
  <outline>
    <contour>
      <point x="22" y="0" type="line"/>
      <point x="250" y="1440" type="line"/>
      <point x="522" y="1440" type="line"/>
      <point x="817" y="519" type="line"/>
      <point x="1405" y="1440" type="line"/>
      <point x="1676" y="1440" type="line"/>
      <point x="1448" y="0" type="line"/>
      <point x="1177" y="0" type="line"/>
      <point x="1319" y="900" type="line"/>
      <point x="880" y="211" type="line"/>
      <point x="657" y="211" type="line"/>
      <point x="436" y="900" type="line"/>
      <point x="294" y="0" type="line"/>
    </contour>
  </outline>
</glyph>
<glyph name="N" format="2">
  <advance width="1400"/>
  <unicode hex="004E"/>
  <outline>
    <contour>
      <point x="13" y="0" type="line"/>
      <point x="241" y="1440" type="line"/>
      <point x="512" y="1440" type="line"/>
      <point x="973" y="480" type="line"/>
      <point x="1125" y="1440" type="line"/>
      <point x="1396" y="1440" type="line"/>
      <point x="1168" y="0" type="line"/>
      <point x="897" y="0" type="line"/>
      <point x="436" y="960" type="line"/>
      <point x="284" y="0" type="line"/>
    </contour>
  </outline>
</glyph>
<glyph name="P" format="2">
  <advance width="1260"/>
  <unicode hex="0050"/>
  <outline>
    <contour>
      <point x="33" y="0" type="line"/>
      <point x="272" y="1440" type="line"/>
      <point x="868" y="1440" type="line" smooth="yes"/>
      <point x="889" y="1440"/>
      <point x="957" y="1437"/>
      <point x="984" y="1432" type="qcurve" smooth="yes"/>
      <point x="1046" y="1422"/>
      <point x="1142" y="1379"/>
      <point x="1178" y="1347" type="qcurve"/>
      <point x="1248" y="1281"/>
      <point x="1291" y="1085"/>
      <point x="1271" y="964" type="qcurve" smooth="yes"/>
      <point x="1261" y="903"/>
      <point x="1224" y="794"/>
      <point x="1197" y="745" type="qcurve" smooth="yes"/>
      <point x="1141" y="645"/>
      <point x="959" y="516"/>
      <point x="829" y="496" type="qcurve" smooth="yes"/>
      <point x="815" y="494"/>
      <point x="783" y="491"/>
      <point x="765" y="490" type="qcurve" smooth="yes"/>
      <point x="747" y="489"/>
      <point x="720" y="488"/>
      <point x="710" y="488" type="qcurve" smooth="yes"/>
      <point x="381" y="488" type="line"/>
      <point x="300" y="0" type="line"/>
    </contour>
    <contour>
      <point x="423" y="742" type="line"/>
      <point x="740" y="742" type="line" smooth="yes"/>
      <point x="761" y="742"/>
      <point x="811" y="746"/>
      <point x="832" y="752" type="qcurve" smooth="yes"/>
      <point x="861" y="760"/>
      <point x="906" y="785"/>
      <point x="924" y="803" type="qcurve" smooth="yes"/>
      <point x="959" y="838"/>
      <point x="996" y="925"/>
      <point x="1002" y="964" type="qcurve" smooth="yes"/>
      <point x="1005" y="984"/>
      <point x="1007" y="1025"/>
      <point x="1005" y="1047" type="qcurve" smooth="yes"/>
      <point x="1001" y="1091"/>
      <point x="954" y="1161"/>
      <point x="902" y="1176" type="qcurve" smooth="yes"/>
      <point x="882" y="1182"/>
      <point x="834" y="1186"/>
      <point x="814" y="1186" type="qcurve" smooth="yes"/>
      <point x="496" y="1186" type="line"/>
    </contour>
  </outline>
</glyph>
<glyph name="Q" format="2">
  <advance width="1475"/>
  <unicode hex="0051"/>
  <outline>
    <contour>
      <point x="1095" y="278" type="line"/>
      <point x="1182" y="200"/>
      <point x="1245" y="149"/>
      <point x="1367" y="141" type="curve"/>
      <point x="1303" y="-100" type="line"/>
      <point x="1085" y="-86"/>
      <point x="1030" y="-38"/>
      <point x="888" y="120" type="curve"/>
    </contour>
    <contour>
      <point x="675" y="-30" type="curve" smooth="yes"/>
      <point x="281" y="-30"/>
      <point x="53" y="232"/>
      <point x="53" y="617" type="curve" smooth="yes"/>
      <point x="53" y="1078"/>
      <point x="314" y="1470"/>
      <point x="808" y="1470" type="curve" smooth="yes"/>
      <point x="1209" y="1470"/>
      <point x="1430" y="1204"/>
      <point x="1430" y="815" type="curve" smooth="yes"/>
      <point x="1430" y="358"/>
      <point x="1161" y="-30"/>
    </contour>
    <contour>
      <point x="706" y="226" type="curve" smooth="yes"/>
      <point x="1026" y="226"/>
      <point x="1148" y="521"/>
      <point x="1148" y="798" type="curve" smooth="yes"/>
      <point x="1148" y="1042"/>
      <point x="1038" y="1214"/>
      <point x="777" y="1214" type="curve" smooth="yes"/>
      <point x="453" y="1214"/>
      <point x="336" y="917"/>
      <point x="336" y="638" type="curve" smooth="yes"/>
      <point x="336" y="398"/>
      <point x="450" y="226"/>
    </contour>
  </outline>
</glyph>
<glyph name="S" format="2">
  <advance width="1303"/>
  <unicode hex="0053"/>
  <outline>
    <contour>
      <point x="591" y="-30" type="curve" smooth="yes"/>
      <point x="307" y="-30"/>
      <point x="77" y="134"/>
      <point x="77" y="440" type="curve"/>
      <point x="362" y="482" type="line"/>
      <point x="372" y="319"/>
      <point x="490" y="224"/>
      <point x="650" y="224" type="curve" smooth="yes"/>
      <point x="771" y="224"/>
      <point x="951" y="287"/>
      <point x="951" y="433" type="curve" smooth="yes"/>
      <point x="951" y="666"/>
      <point x="223" y="545"/>
      <point x="223" y="954" type="curve" smooth="yes"/>
      <point x="223" y="1290"/>
      <point x="509" y="1468"/>
      <point x="818" y="1468" type="curve" smooth="yes"/>
      <point x="1096" y="1468"/>
      <point x="1298" y="1338"/>
      <point x="1324" y="1046" type="curve"/>
      <point x="1027" y="996" type="line"/>
      <point x="1019" y="1140"/>
      <point x="907" y="1214"/>
      <point x="771" y="1214" type="curve" smooth="yes"/>
      <point x="668" y="1214"/>
      <point x="511" y="1155"/>
      <point x="511" y="1031" type="curve" smooth="yes"/>
      <point x="511" y="808"/>
      <point x="1240" y="924"/>
      <point x="1240" y="508" type="curve" smooth="yes"/>
      <point x="1240" y="156"/>
      <point x="908" y="-30"/>
    </contour>
  </outline>
</glyph>
<glyph name="T" format="2">
  <advance width="1192"/>
  <unicode hex="0054"/>
  <outline>
    <contour>
      <point x="429" y="0" type="line"/>
      <point x="625" y="1186" type="line"/>
      <point x="181" y="1186" type="line"/>
      <point x="223" y="1440" type="line"/>
      <point x="1379" y="1440" type="line"/>
      <point x="1337" y="1186" type="line"/>
      <point x="892" y="1186" type="line"/>
      <point x="696" y="0" type="line"/>
    </contour>
  </outline>
</glyph>
<glyph name="U" format="2">
  <advance width="1403"/>
  <unicode hex="0055"/>
  <outline>
    <contour>
      <point x="603" y="-30" type="qcurve" smooth="yes"/>
      <point x="517" y="-30"/>
      <point x="373" y="5"/>
      <point x="315" y="41" type="qcurve"/>
      <point x="196" y="112"/>
      <point x="94" y="366"/>
      <point x="123" y="540" type="qcurve" smooth="yes"/>
      <point x="271" y="1438" type="line"/>
      <point x="542" y="1440" type="line"/>
      <point x="394" y="542" type="line" smooth="yes"/>
      <point x="382" y="471"/>
      <point x="410" y="355"/>
      <point x="445" y="313" type="qcurve" smooth="yes"/>
      <point x="479" y="271"/>
      <point x="582" y="226"/>
      <point x="645" y="226" type="qcurve" smooth="yes"/>
      <point x="710" y="226"/>
      <point x="828" y="272"/>
      <point x="876" y="314" type="qcurve" smooth="yes"/>
      <point x="924" y="356"/>
      <point x="990" y="472"/>
      <point x="1001" y="542" type="qcurve" smooth="yes"/>
      <point x="1150" y="1440" type="line"/>
      <point x="1420" y="1440" type="line"/>
      <point x="1271" y="540" type="line" smooth="yes"/>
      <point x="1257" y="453"/>
      <point x="1196" y="303"/>
      <point x="1149" y="239" type="qcurve" smooth="yes"/>
      <point x="1054" y="110"/>
      <point x="775" y="-30"/>
    </contour>
  </outline>
</glyph>
<glyph name="V" format="2">
  <advance width="1278"/>
  <unicode hex="0056"/>
  <outline>
    <contour>
      <point x="406" y="0" type="line"/>
      <point x="213" y="1440" type="line"/>
      <point x="488" y="1440" type="line"/>
      <point x="645" y="256" type="line"/>
      <point x="1199" y="1440" type="line"/>
      <point x="1474" y="1440" type="line"/>
      <point x="804" y="0" type="line"/>
    </contour>
  </outline>
</glyph>
<glyph name="W" format="2">
  <advance width="1935"/>
  <unicode hex="0057"/>
  <outline>
    <contour>
      <point x="363" y="0" type="line"/>
      <point x="188" y="1440" type="line"/>
      <point x="468" y="1440" type="line"/>
      <point x="569" y="450" type="line"/>
      <point x="997" y="1438" type="line"/>
      <point x="1277" y="1440" type="line"/>
      <point x="1378" y="450" type="line"/>
      <point x="1807" y="1440" type="line"/>
      <point x="2087" y="1440" type="line"/>
      <point x="1435" y="0" type="line"/>
      <point x="1172" y="0" type="line"/>
      <point x="1060" y="972" type="line"/>
      <point x="625" y="0" type="line"/>
    </contour>
  </outline>
</glyph>
<glyph name="X" format="2">
  <advance width="1313"/>
  <unicode hex="0058"/>
  <outline>
    <contour>
      <point x="-92" y="0" type="line"/>
      <point x="497" y="728" type="line"/>
      <point x="149" y="1440" type="line"/>
      <point x="477" y="1440" type="line"/>
      <point x="701" y="960" type="line"/>
      <point x="1073" y="1440" type="line"/>
      <point x="1402" y="1440" type="line"/>
      <point x="828" y="728" type="line"/>
      <point x="1186" y="0" type="line"/>
      <point x="858" y="0" type="line"/>
      <point x="627" y="496" type="line"/>
      <point x="237" y="0" type="line"/>
    </contour>
  </outline>
</glyph>
<glyph name="Y" format="2">
  <advance width="1234"/>
  <unicode hex="0059"/>
  <outline>
    <contour>
      <point x="448" y="0" type="line"/>
      <point x="545" y="586" type="line"/>
      <point x="204" y="1440" type="line"/>
      <point x="516" y="1440" type="line"/>
      <point x="732" y="898" type="line"/>
      <point x="1128" y="1440" type="line"/>
      <point x="1439" y="1440" type="line"/>
      <point x="816" y="586" type="line"/>
      <point x="719" y="0" type="line"/>
    </contour>
  </outline>
</glyph>
<glyph name="Z" format="2">
  <advance width="1318"/>
  <unicode hex="005A"/>
  <outline>
    <contour>
      <point x="22" y="0" type="line"/>
      <point x="28" y="34" type="line"/>
      <point x="889" y="1186" type="line"/>
      <point x="277" y="1186" type="line"/>
      <point x="319" y="1440" type="line"/>
      <point x="1397" y="1440" type="line"/>
      <point x="1392" y="1406" type="line"/>
      <point x="535" y="256" type="line"/>
      <point x="1182" y="256" type="line"/>
      <point x="1139" y="0" type="line"/>
    </contour>
  </outline>
</glyph>
<glyph name="bracketleft" format="2">
  <advance width="812"/>
  <unicode hex="005B"/>
  <outline>
    <contour>
      <point x="91" y="-420" type="line"/>
      <point x="459" y="1800" type="line"/>
      <point x="908" y="1800" type="line"/>
      <point x="868" y="1560" type="line"/>
      <point x="654" y="1560" type="line"/>
      <point x="366" y="-180" type="line"/>
      <point x="580" y="-180" type="line"/>
      <point x="540" y="-420" type="line"/>
    </contour>
  </outline>
</glyph>
<glyph name="backslash" format="2">
  <advance width="854"/>
  <unicode hex="005C"/>
  <outline>
    <contour>
      <point x="490" y="1440" type="line"/>
      <point x="638" y="0" type="line"/>
      <point x="372" y="0" type="line"/>
      <point x="224" y="1440" type="line"/>
    </contour>
  </outline>
</glyph>
<glyph name="bracketright" format="2">
  <advance width="812"/>
  <unicode hex="005D"/>
  <outline>
    <contour>
      <point x="395" y="-420" type="line"/>
      <point x="762" y="1800" type="line"/>
      <point x="313" y="1800" type="line"/>
      <point x="273" y="1560" type="line"/>
      <point x="487" y="1560" type="line"/>
      <point x="199" y="-180" type="line"/>
      <point x="-15" y="-180" type="line"/>
      <point x="-54" y="-420" type="line"/>
    </contour>
  </outline>
</glyph>
<glyph name="asciicircum" format="2">
  <advance width="1312"/>
  <unicode hex="005E"/>
  <outline>
    <contour>
      <point x="321" y="986" type="line"/>
      <point x="875" y="1470" type="line"/>
      <point x="1270" y="987" type="line"/>
      <point x="1078" y="819" type="line"/>
      <point x="821" y="1146" type="line"/>
      <point x="458" y="818" type="line"/>
    </contour>
  </outline>
</glyph>
<glyph name="grave" format="2">
  <advance width="1033"/>
  <unicode hex="0060"/>
  <outline>
    <contour>
      <point x="762" y="1980" type="line"/>
      <point x="775" y="1590" type="line"/>
      <point x="608" y="1590" type="line"/>
      <point x="510" y="1980" type="line"/>
    </contour>
  </outline>
</glyph>
<glyph name="a" format="2">
  <advance width="1183"/>
  <unicode hex="0061"/>
  <outline>
    <contour>
      <point x="449" y="-30" type="curve" smooth="yes"/>
      <point x="193" y="-30"/>
      <point x="57" y="171"/>
      <point x="57" y="410" type="curve" smooth="yes"/>
      <point x="57" y="749"/>
      <point x="282" y="1110"/>
      <point x="652" y="1110" type="curve" smooth="yes"/>
      <point x="908" y="1110"/>
      <point x="1021" y="925"/>
      <point x="1021" y="688" type="curve" smooth="yes"/>
      <point x="1021" y="350"/>
      <point x="831" y="-30"/>
    </contour>
    <contour>
      <point x="531" y="212" type="curve" smooth="yes"/>
      <point x="759" y="212"/>
      <point x="834" y="461"/>
      <point x="834" y="649" type="curve" smooth="yes"/>
      <point x="834" y="774"/>
      <point x="789" y="868"/>
      <point x="650" y="868" type="curve" smooth="yes"/>
      <point x="430" y="868"/>
      <point x="333" y="635"/>
      <point x="333" y="446" type="curve" smooth="yes"/>
      <point x="333" y="317"/>
      <point x="389" y="212"/>
    </contour>
    <contour>
      <point x="734" y="0" type="line"/>
      <point x="857" y="740" type="line"/>
      <point x="824" y="740" type="line"/>
      <point x="881" y="1080" type="line"/>
      <point x="1141" y="1080" type="line"/>
      <point x="962" y="0" type="line"/>
    </contour>
  </outline>
</glyph>
<glyph name="b" format="2">
  <advance width="1216"/>
  <unicode hex="0062"/>
  <outline>
    <contour>
      <point x="17" y="0" type="line"/>
      <point x="272" y="0" type="line"/>
      <point x="294" y="133" type="line"/>
      <point x="303" y="111"/>
      <point x="316" y="89"/>
      <point x="330" y="71" type="curve" smooth="yes"/>
      <point x="379" y="7"/>
      <point x="455" y="-30"/>
      <point x="568" y="-30" type="curve" smooth="yes"/>
      <point x="829" y="-30"/>
      <point x="1069" y="206"/>
      <point x="1124" y="540" type="curve" smooth="yes"/>
      <point x="1180" y="876"/>
      <point x="1018" y="1110"/>
      <point x="757" y="1110" type="curve" smooth="yes"/>
      <point x="646" y="1110"/>
      <point x="558" y="1074"/>
      <point x="488" y="1011" type="curve" smooth="yes"/>
      <point x="467" y="992"/>
      <point x="447" y="970"/>
      <point x="429" y="947" type="curve"/>
      <point x="511" y="1440" type="line"/>
      <point x="255" y="1440" type="line"/>
    </contour>
    <contour>
      <point x="659" y="856" type="curve" smooth="yes"/>
      <point x="824" y="856"/>
      <point x="885" y="727"/>
      <point x="854" y="540" type="curve" smooth="yes"/>
      <point x="822" y="348"/>
      <point x="717" y="224"/>
      <point x="554" y="224" type="curve" smooth="yes"/>
      <point x="385" y="224"/>
      <point x="331" y="354"/>
      <point x="362" y="542" type="curve" smooth="yes"/>
      <point x="388" y="701"/>
      <point x="476" y="856"/>
    </contour>
  </outline>
</glyph>
<glyph name="c" format="2">
  <advance width="1109"/>
  <unicode hex="0063"/>
  <outline>
    <contour>
      <point x="487" y="-30" type="qcurve" smooth="yes"/>
      <point x="406" y="-30"/>
      <point x="275" y="7"/>
      <point x="224" y="45" type="qcurve" smooth="yes"/>
      <point x="121" y="120"/>
      <point x="41" y="377"/>
      <point x="68" y="540" type="qcurve" smooth="yes"/>
      <point x="82" y="622"/>
      <point x="138" y="768"/>
      <point x="181" y="833" type="qcurve" smooth="yes"/>
      <point x="266" y="963"/>
      <point x="521" y="1110"/>
      <point x="679" y="1110" type="qcurve" smooth="yes"/>
      <point x="771" y="1110"/>
      <point x="916" y="1062"/>
      <point x="971" y="1014" type="qcurve" smooth="yes"/>
      <point x="1025" y="965"/>
      <point x="1082" y="834"/>
      <point x="1085" y="750" type="qcurve"/>
      <point x="812" y="678" type="line"/>
      <point x="807" y="720"/>
      <point x="778" y="786"/>
      <point x="754" y="809" type="qcurve" smooth="yes"/>
      <point x="729" y="832"/>
      <point x="669" y="856"/>
      <point x="632" y="856" type="qcurve" smooth="yes"/>
      <point x="591" y="856"/>
      <point x="520" y="835"/>
      <point x="490" y="815" type="qcurve" smooth="yes"/>
      <point x="430" y="773"/>
      <point x="357" y="631"/>
      <point x="342" y="540" type="qcurve" smooth="yes"/>
      <point x="330" y="469"/>
      <point x="341" y="356"/>
      <point x="365" y="312" type="qcurve"/>
      <point x="387" y="267"/>
      <point x="468" y="224"/>
      <point x="528" y="224" type="qcurve" smooth="yes"/>
      <point x="616" y="224"/>
      <point x="722" y="308"/>
      <point x="758" y="386" type="qcurve"/>
      <point x="1015" y="328" type="line"/>
      <point x="979" y="241"/>
      <point x="874" y="110"/>
      <point x="805" y="63" type="qcurve" smooth="yes"/>
      <point x="736" y="16"/>
      <point x="577" y="-30"/>
    </contour>
  </outline>
</glyph>
<glyph name="d" format="2">
  <advance width="1218"/>
  <unicode hex="0064"/>
  <outline>
    <contour>
      <point x="980" y="1440" type="line"/>
      <point x="899" y="948" type="line"/>
      <point x="887" y="976"/>
      <point x="871" y="1001"/>
      <point x="852" y="1023" type="curve" smooth="yes"/>
      <point x="802" y="1078"/>
      <point x="729" y="1110"/>
      <point x="624" y="1110" type="curve" smooth="yes"/>
      <point x="363" y="1110"/>
      <point x="124" y="876"/>
      <point x="68" y="540" type="curve" smooth="yes"/>
      <point x="13" y="206"/>
      <point x="175" y="-30"/>
      <point x="436" y="-30" type="curve" smooth="yes"/>
      <point x="551" y="-30"/>
      <point x="642" y="8"/>
      <point x="713" y="76" type="curve" smooth="yes"/>
      <point x="731" y="93"/>
      <point x="748" y="112"/>
      <point x="764" y="133" type="curve"/>
      <point x="742" y="0" type="line"/>
      <point x="997" y="0" type="line"/>
      <point x="1236" y="1440" type="line"/>
    </contour>
    <contour>
      <point x="638" y="856" type="curve" smooth="yes"/>
      <point x="799" y="856"/>
      <point x="863" y="735"/>
      <point x="831" y="540" type="curve" smooth="yes"/>
      <point x="800" y="352"/>
      <point x="703" y="224"/>
      <point x="534" y="224" type="curve" smooth="yes"/>
      <point x="371" y="224"/>
      <point x="307" y="348"/>
      <point x="339" y="540" type="curve" smooth="yes"/>
      <point x="370" y="727"/>
      <point x="473" y="856"/>
    </contour>
  </outline>
</glyph>
<glyph name="f" format="2">
  <advance width="734"/>
  <unicode hex="0066"/>
  <outline>
    <contour>
      <point x="149" y="0" type="line"/>
      <point x="327" y="1076" type="line" smooth="yes"/>
      <point x="345" y="1187"/>
      <point x="406" y="1338"/>
      <point x="506" y="1430"/>
      <point x="656" y="1470"/>
      <point x="763" y="1470" type="qcurve" smooth="yes"/>
      <point x="891" y="1470" type="line"/>
      <point x="854" y="1250" type="line"/>
      <point x="779" y="1250" type="line" smooth="yes"/>
      <point x="749" y="1250"/>
      <point x="690" y="1244"/>
      <point x="639" y="1222"/>
      <point x="602" y="1178"/>
      <point x="596" y="1140" type="qcurve" smooth="yes"/>
      <point x="407" y="0" type="line"/>
    </contour>
    <contour>
      <point x="130" y="870" type="line"/>
      <point x="164" y="1080" type="line"/>
      <point x="826" y="1080" type="line"/>
      <point x="791" y="870" type="line"/>
    </contour>
  </outline>
</glyph>
<glyph name="g" format="2">
  <advance width="1218"/>
  <unicode hex="0067"/>
  <outline>
    <contour>
      <point x="1236" y="1080" type="line"/>
      <point x="980" y="1080" type="line"/>
      <point x="960" y="957" type="line"/>
      <point x="919" y="1050"/>
      <point x="834" y="1110"/>
      <point x="684" y="1110" type="curve" smooth="yes"/>
      <point x="388" y="1110"/>
      <point x="180" y="852"/>
      <point x="132" y="560" type="curve" smooth="yes"/>
      <point x="84" y="269"/>
      <point x="207" y="10"/>
      <point x="502" y="10" type="curve" smooth="yes"/>
      <point x="652" y="10"/>
      <point x="757" y="70"/>
      <point x="829" y="163" type="curve"/>
      <point x="812" y="60" type="line" smooth="yes"/>
      <point x="784" y="-110"/>
      <point x="683" y="-256"/>
      <point x="505" y="-256" type="curve" smooth="yes"/>
      <point x="397" y="-256"/>
      <point x="325" y="-205"/>
      <point x="311" y="-94" type="curve"/>
      <point x="40" y="-152" type="line"/>
      <point x="61" y="-391"/>
      <point x="238" y="-510"/>
      <point x="463" y="-510" type="curve" smooth="yes"/>
      <point x="784" y="-510"/>
      <point x="1012" y="-275"/>
      <point x="1067" y="56" type="curve" smooth="yes"/>
    </contour>
    <contour>
      <point x="600" y="264" type="curve" smooth="yes"/>
      <point x="432" y="264"/>
      <point x="375" y="396"/>
      <point x="402" y="560" type="curve" smooth="yes"/>
      <point x="429" y="722"/>
      <point x="532" y="856"/>
      <point x="698" y="856" type="curve" smooth="yes"/>
      <point x="866" y="856"/>
      <point x="921" y="723"/>
      <point x="894" y="560" type="curve" smooth="yes"/>
      <point x="867" y="395"/>
      <point x="770" y="264"/>
    </contour>
  </outline>
</glyph>
<glyph name="h" format="2">
  <advance width="1202"/>
  <unicode hex="0068"/>
  <outline>
    <contour>
      <point x="797" y="0" type="line"/>
      <point x="882" y="510" type="line" smooth="yes"/>
      <point x="889" y="553"/>
      <point x="896" y="600"/>
      <point x="896" y="643" type="curve" smooth="yes"/>
      <point x="896" y="768"/>
      <point x="852" y="856"/>
      <point x="716" y="856" type="curve" smooth="yes"/>
      <point x="538" y="856"/>
      <point x="469" y="700"/>
      <point x="445" y="548" type="curve"/>
      <point x="309" y="622" type="line"/>
      <point x="356" y="898"/>
      <point x="549" y="1112"/>
      <point x="841" y="1112" type="curve" smooth="yes"/>
      <point x="1074" y="1112"/>
      <point x="1173" y="978"/>
      <point x="1173" y="754" type="curve" smooth="yes"/>
      <point x="1173" y="705"/>
      <point x="1168" y="654"/>
      <point x="1160" y="606" type="curve" smooth="yes"/>
      <point x="1060" y="0" type="line"/>
    </contour>
    <contour>
      <point x="92" y="0" type="line"/>
      <point x="330" y="1440" type="line"/>
      <point x="560" y="1440" type="line"/>
      <point x="437" y="700" type="line"/>
      <point x="470" y="700" type="line"/>
      <point x="354" y="0" type="line"/>
    </contour>
  </outline>
</glyph>
<glyph name="j" format="2">
  <advance width="569"/>
  <unicode hex="006A"/>
  <outline>
    <contour>
      <point x="-207" y="-480" type="line"/>
      <point x="-165" y="-226" type="line"/>
      <point x="-119" y="-226" type="line" smooth="yes"/>
      <point x="-74" y="-226"/>
      <point x="-9" y="-205"/>
      <point x="11" y="-184" type="qcurve" smooth="yes"/>
      <point x="31" y="-163"/>
      <point x="57" y="-103"/>
      <point x="64" y="-64" type="qcurve" smooth="yes"/>
      <point x="253" y="1080" type="line"/>
      <point x="511" y="1080" type="line"/>
      <point x="300" y="-196" type="line" smooth="yes"/>
      <point x="289" y="-261"/>
      <point x="234" y="-364"/>
      <point x="190" y="-403" type="qcurve" smooth="yes"/>
      <point x="145" y="-441"/>
      <point x="35" y="-480"/>
      <point x="-31" y="-480" type="qcurve" smooth="yes"/>
    </contour>
    <contour>
      <point x="401" y="1191" type="qcurve" smooth="yes"/>
      <point x="369" y="1191"/>
      <point x="319" y="1214"/>
      <point x="301" y="1237" type="qcurve" smooth="yes"/>
      <point x="283" y="1260"/>
      <point x="270" y="1316"/>
      <point x="276" y="1349" type="qcurve" smooth="yes"/>
      <point x="282" y="1383"/>
      <point x="312" y="1439"/>
      <point x="338" y="1462" type="qcurve" smooth="yes"/>
      <point x="364" y="1485"/>
      <point x="421" y="1507"/>
      <point x="453" y="1507" type="qcurve" smooth="yes"/>
      <point x="486" y="1507"/>
      <point x="536" y="1485"/>
      <point x="554" y="1462" type="qcurve" smooth="yes"/>
      <point x="572" y="1439"/>
      <point x="583" y="1383"/>
      <point x="578" y="1349" type="qcurve" smooth="yes"/>
      <point x="573" y="1316"/>
      <point x="542" y="1260"/>
      <point x="516" y="1237" type="qcurve" smooth="yes"/>
      <point x="490" y="1214"/>
      <point x="434" y="1191"/>
    </contour>
  </outline>
</glyph>
<glyph name="k" format="2">
  <advance width="1052"/>
  <unicode hex="006B"/>
  <outline>
    <contour>
      <point x="32" y="0" type="line"/>
      <point x="272" y="1440" type="line"/>
      <point x="515" y="1440" type="line"/>
      <point x="277" y="0" type="line"/>
    </contour>
    <contour>
      <point x="831" y="1080" type="line"/>
      <point x="1135" y="1080" type="line"/>
      <point x="193" y="225" type="line"/>
      <point x="249" y="563" type="line"/>
    </contour>
    <contour>
      <point x="384" y="591" type="line"/>
      <point x="578" y="743" type="line"/>
      <point x="988" y="0" type="line"/>
      <point x="710" y="0" type="line"/>
    </contour>
  </outline>
</glyph>
<glyph name="l" format="2">
  <advance width="630"/>
  <unicode hex="006C"/>
  <outline>
    <contour>
      <point x="565" y="240" type="qcurve"/>
      <point x="525" y="0" type="line"/>
      <point x="409" y="0" type="line" smooth="yes"/>
      <point x="348" y="0"/>
      <point x="247" y="27"/>
      <point x="210" y="54" type="qcurve" smooth="yes"/>
      <point x="172" y="81"/>
      <point x="129" y="164"/>
      <point x="124" y="219" type="qcurve" smooth="yes"/>
      <point x="122" y="242"/>
      <point x="125" y="291"/>
      <point x="129" y="318" type="qcurve" smooth="yes"/>
      <point x="315" y="1440" type="line"/>
      <point x="573" y="1440" type="line"/>
      <point x="412" y="467" type="line" smooth="yes"/>
      <point x="409" y="446"/>
      <point x="401" y="405"/>
      <point x="398" y="385" type="qcurve" smooth="yes"/>
      <point x="394" y="355"/>
      <point x="394" y="303"/>
      <point x="404" y="283" type="qcurve" smooth="yes"/>
      <point x="414" y="263"/>
      <point x="459" y="240"/>
      <point x="500" y="240" type="qcurve" smooth="yes"/>
      <point x="516" y="240"/>
      <point x="549" y="240"/>
    </contour>
  </outline>
</glyph>
<glyph name="m" format="2">
  <advance width="1737"/>
  <unicode hex="006D"/>
  <outline>
    <contour>
      <point x="1276" y="0" type="line"/>
      <point x="1382" y="638" type="line" smooth="yes"/>
      <point x="1385" y="659"/>
      <point x="1388" y="679"/>
      <point x="1388" y="700" type="curve" smooth="yes"/>
      <point x="1388" y="797"/>
      <point x="1339" y="864"/>
      <point x="1237" y="864" type="curve" smooth="yes"/>
      <point x="1115" y="864"/>
      <point x="1042" y="765"/>
      <point x="1021" y="654" type="curve"/>
      <point x="926" y="730" type="line"/>
      <point x="960" y="941"/>
      <point x="1145" y="1106"/>
      <point x="1360" y="1106" type="curve" smooth="yes"/>
      <point x="1551" y="1106"/>
      <point x="1661" y="1004"/>
      <point x="1661" y="811" type="curve" smooth="yes"/>
      <point x="1661" y="777"/>
      <point x="1658" y="743"/>
      <point x="1652" y="710" type="curve" smooth="yes"/>
      <point x="1534" y="0" type="line"/>
    </contour>
    <contour>
      <point x="32" y="0" type="line"/>
      <point x="210" y="1080" type="line"/>
      <point x="438" y="1080" type="line"/>
      <point x="379" y="722" type="line"/>
      <point x="411" y="722" type="line"/>
      <point x="292" y="0" type="line"/>
    </contour>
    <contour>
      <point x="655" y="0" type="line"/>
      <point x="760" y="638" type="line" smooth="yes"/>
      <point x="763" y="659"/>
      <point x="766" y="681"/>
      <point x="766" y="702" type="curve" smooth="yes"/>
      <point x="766" y="799"/>
      <point x="717" y="864"/>
      <point x="615" y="864" type="curve" smooth="yes"/>
      <point x="494" y="864"/>
      <point x="419" y="765"/>
      <point x="400" y="654" type="curve"/>
      <point x="305" y="734" type="line"/>
      <point x="340" y="945"/>
      <point x="531" y="1106"/>
      <point x="745" y="1106" type="curve" smooth="yes"/>
      <point x="939" y="1106"/>
      <point x="1039" y="992"/>
      <point x="1039" y="801" type="curve" smooth="yes"/>
      <point x="1039" y="771"/>
      <point x="1036" y="740"/>
      <point x="1031" y="710" type="curve" smooth="yes"/>
      <point x="913" y="0" type="line"/>
    </contour>
  </outline>
</glyph>
<glyph name="n" format="2">
  <advance width="1202"/>
  <unicode hex="006E"/>
  <outline>
    <contour>
      <point x="762" y="0" type="line"/>
      <point x="847" y="510" type="line" smooth="yes"/>
      <point x="854" y="553"/>
      <point x="861" y="600"/>
      <point x="861" y="643" type="curve" smooth="yes"/>
      <point x="861" y="768"/>
      <point x="817" y="856"/>
      <point x="681" y="856" type="curve" smooth="yes"/>
      <point x="503" y="856"/>
      <point x="434" y="700"/>
      <point x="410" y="548" type="curve"/>
      <point x="274" y="622" type="line"/>
      <point x="321" y="898"/>
      <point x="514" y="1112"/>
      <point x="806" y="1112" type="curve" smooth="yes"/>
      <point x="1039" y="1112"/>
      <point x="1138" y="978"/>
      <point x="1138" y="754" type="curve" smooth="yes"/>
      <point x="1138" y="705"/>
      <point x="1133" y="654"/>
      <point x="1125" y="606" type="curve" smooth="yes"/>
      <point x="1025" y="0" type="line"/>
    </contour>
    <contour>
      <point x="57" y="0" type="line"/>
      <point x="235" y="1080" type="line"/>
      <point x="465" y="1080" type="line"/>
      <point x="406" y="722" type="line"/>
      <point x="438" y="722" type="line"/>
      <point x="319" y="0" type="line"/>
    </contour>
  </outline>
</glyph>
<glyph name="o" format="2">
  <advance width="1190"/>
  <unicode hex="006F"/>
  <outline>
    <contour>
      <point x="495" y="-30" type="curve" smooth="yes"/>
      <point x="225" y="-30"/>
      <point x="57" y="148"/>
      <point x="57" y="415" type="curve" smooth="yes"/>
      <point x="57" y="773"/>
      <point x="306" y="1110"/>
      <point x="684" y="1110" type="curve" smooth="yes"/>
      <point x="956" y="1110"/>
      <point x="1123" y="931"/>
      <point x="1123" y="662" type="curve" smooth="yes"/>
      <point x="1123" y="304"/>
      <point x="872" y="-30"/>
    </contour>
    <contour>
      <point x="537" y="224" type="curve" smooth="yes"/>
      <point x="751" y="224"/>
      <point x="847" y="440"/>
      <point x="847" y="627" type="curve" smooth="yes"/>
      <point x="847" y="764"/>
      <point x="787" y="856"/>
      <point x="642" y="856" type="curve" smooth="yes"/>
      <point x="425" y="856"/>
      <point x="334" y="640"/>
      <point x="334" y="452" type="curve" smooth="yes"/>
      <point x="334" y="318"/>
      <point x="394" y="224"/>
    </contour>
  </outline>
</glyph>
<glyph name="p" format="2">
  <advance width="1218"/>
  <unicode hex="0070"/>
  <outline>
    <contour>
      <point x="210" y="-480" type="line"/>
      <point x="311" y="133" type="line"/>
      <point x="322" y="105"/>
      <point x="337" y="81"/>
      <point x="355" y="60" type="curve" smooth="yes"/>
      <point x="404" y="3"/>
      <point x="479" y="-30"/>
      <point x="585" y="-30" type="curve" smooth="yes"/>
      <point x="846" y="-30"/>
      <point x="1085" y="204"/>
      <point x="1141" y="540" type="curve" smooth="yes"/>
      <point x="1196" y="874"/>
      <point x="1035" y="1110"/>
      <point x="774" y="1110" type="curve" smooth="yes"/>
      <point x="662" y="1110"/>
      <point x="573" y="1074"/>
      <point x="503" y="1010" type="curve" smooth="yes"/>
      <point x="482" y="991"/>
      <point x="463" y="970"/>
      <point x="446" y="947" type="curve"/>
      <point x="468" y="1080" type="line"/>
      <point x="212" y="1080" type="line"/>
      <point x="-46" y="-480" type="line"/>
    </contour>
    <contour>
      <point x="571" y="224" type="curve" smooth="yes"/>
      <point x="409" y="224"/>
      <point x="347" y="347"/>
      <point x="379" y="542" type="curve" smooth="yes"/>
      <point x="406" y="702"/>
      <point x="490" y="856"/>
      <point x="676" y="856" type="curve" smooth="yes"/>
      <point x="839" y="856"/>
      <point x="903" y="732"/>
      <point x="871" y="540" type="curve" smooth="yes"/>
      <point x="840" y="353"/>
      <point x="736" y="224"/>
    </contour>
  </outline>
</glyph>
<glyph name="q" format="2">
  <advance width="1218"/>
  <unicode hex="0071"/>
  <outline>
    <contour>
      <point x="1236" y="1080" type="line"/>
      <point x="980" y="1080" type="line"/>
      <point x="958" y="947" type="line"/>
      <point x="944" y="980"/>
      <point x="925" y="1010"/>
      <point x="901" y="1034" type="curve" smooth="yes"/>
      <point x="852" y="1082"/>
      <point x="781" y="1110"/>
      <point x="684" y="1110" type="curve" smooth="yes"/>
      <point x="423" y="1110"/>
      <point x="183" y="874"/>
      <point x="128" y="540" type="curve" smooth="yes"/>
      <point x="72" y="204"/>
      <point x="235" y="-30"/>
      <point x="496" y="-30" type="curve" smooth="yes"/>
      <point x="603" y="-30"/>
      <point x="688" y="2"/>
      <point x="757" y="61" type="curve" smooth="yes"/>
      <point x="781" y="82"/>
      <point x="804" y="106"/>
      <point x="824" y="133" type="curve"/>
      <point x="722" y="-480" type="line"/>
      <point x="978" y="-480" type="line"/>
    </contour>
    <contour>
      <point x="594" y="224" type="curve" smooth="yes"/>
      <point x="429" y="224"/>
      <point x="368" y="353"/>
      <point x="399" y="540" type="curve" smooth="yes"/>
      <point x="431" y="732"/>
      <point x="535" y="856"/>
      <point x="698" y="856" type="curve" smooth="yes"/>
      <point x="891" y="856"/>
      <point x="916" y="691"/>
      <point x="891" y="542" type="curve" smooth="yes"/>
      <point x="859" y="347"/>
      <point x="755" y="224"/>
    </contour>
  </outline>
</glyph>
<glyph name="r" format="2">
  <advance width="778"/>
  <unicode hex="0072"/>
  <outline>
    <contour>
      <point x="33" y="0" type="line"/>
      <point x="212" y="1080" type="line"/>
      <point x="440" y="1080" type="line"/>
      <point x="396" y="816" type="line"/>
      <point x="377" y="850" type="line"/>
      <point x="454" y="997"/>
      <point x="588" y="1100"/>
      <point x="756" y="1100" type="curve" smooth="yes"/>
      <point x="809" y="1100"/>
      <point x="869" y="1082"/>
      <point x="912" y="1050" type="curve"/>
      <point x="774" y="828" type="line"/>
      <point x="755" y="845"/>
      <point x="727" y="853"/>
      <point x="702" y="853" type="curve" smooth="yes"/>
      <point x="530" y="853"/>
      <point x="412" y="716"/>
      <point x="385" y="552" type="curve" smooth="yes"/>
      <point x="294" y="0" type="line"/>
    </contour>
  </outline>
</glyph>
<glyph name="s" format="2">
  <advance width="1036"/>
  <unicode hex="0073"/>
  <outline>
    <contour>
      <point x="419" y="-30" type="curve" smooth="yes"/>
      <point x="187" y="-30"/>
      <point x="17" y="74"/>
      <point x="17" y="324" type="curve"/>
      <point x="289" y="366" type="line"/>
      <point x="292" y="256"/>
      <point x="375" y="204"/>
      <point x="477" y="204" type="curve" smooth="yes"/>
      <point x="555" y="204"/>
      <point x="645" y="238"/>
      <point x="645" y="330" type="curve" smooth="yes"/>
      <point x="645" y="471"/>
      <point x="121" y="413"/>
      <point x="121" y="711" type="curve" smooth="yes"/>
      <point x="121" y="974"/>
      <point x="353" y="1110"/>
      <point x="592" y="1110" type="curve" smooth="yes"/>
      <point x="787" y="1110"/>
      <point x="976" y="1012"/>
      <point x="976" y="790" type="curve"/>
      <point x="704" y="740" type="line"/>
      <point x="704" y="843"/>
      <point x="629" y="877"/>
      <point x="538" y="877" type="curve" smooth="yes"/>
      <point x="474" y="877"/>
      <point x="384" y="850"/>
      <point x="384" y="772" type="curve" smooth="yes"/>
      <point x="384" y="632"/>
      <point x="914" y="697"/>
      <point x="914" y="387" type="curve" smooth="yes"/>
      <point x="914" y="107"/>
      <point x="671" y="-30"/>
    </contour>
  </outline>
</glyph>
<glyph name="t" format="2">
  <advance width="832"/>
  <unicode hex="0074"/>
  <outline>
    <contour>
      <point x="634" y="0" type="line"/>
      <point x="587" y="-9"/>
      <point x="494" y="-19"/>
      <point x="446" y="-19" type="qcurve" smooth="yes"/>
      <point x="380" y="-19"/>
      <point x="264" y="6"/>
      <point x="177" y="66"/>
      <point x="126" y="166"/>
      <point x="126" y="241" type="qcurve" smooth="yes"/>
      <point x="126" y="296"/>
      <point x="147" y="404"/>
      <point x="155" y="458" type="qcurve" smooth="yes"/>
      <point x="301" y="1380" type="line"/>
      <point x="557" y="1380" type="line"/>
      <point x="413" y="474" type="line" smooth="yes"/>
      <point x="407" y="438"/>
      <point x="394" y="366"/>
      <point x="394" y="329" type="qcurve" smooth="yes"/>
      <point x="394" y="293"/>
      <point x="419" y="249"/>
      <point x="460" y="225"/>
      <point x="515" y="217"/>
      <point x="545" y="217" type="qcurve" smooth="yes"/>
      <point x="577" y="217"/>
      <point x="639" y="221"/>
      <point x="670" y="226" type="qcurve"/>
    </contour>
    <contour>
      <point x="45" y="870" type="line"/>
      <point x="79" y="1080" type="line"/>
      <point x="806" y="1080" type="line"/>
      <point x="772" y="870" type="line"/>
    </contour>
  </outline>
</glyph>
<glyph name="v" format="2">
  <advance width="1086"/>
  <unicode hex="0076"/>
  <outline>
    <contour>
      <point x="304" y="0" type="line"/>
      <point x="106" y="1080" type="line"/>
      <point x="367" y="1080" type="line"/>
      <point x="489" y="332" type="line"/>
      <point x="859" y="1080" type="line"/>
      <point x="1120" y="1080" type="line"/>
      <point x="565" y="0" type="line"/>
    </contour>
  </outline>
</glyph>
<glyph name="w" format="2">
  <advance width="1541"/>
  <unicode hex="0077"/>
  <outline>
    <contour>
      <point x="239" y="0" type="line"/>
      <point x="97" y="1082" type="line"/>
      <point x="349" y="1080" type="line"/>
      <point x="433" y="436" type="line"/>
      <point x="724" y="1080" type="line"/>
      <point x="939" y="1080" type="line"/>
      <point x="1026" y="436" type="line"/>
      <point x="1314" y="1080" type="line"/>
      <point x="1567" y="1080" type="line"/>
      <point x="1082" y="0" type="line"/>
      <point x="885" y="0" type="line"/>
      <point x="772" y="704" type="line"/>
      <point x="436" y="0" type="line"/>
    </contour>
  </outline>
</glyph>
<glyph name="x" format="2">
  <advance width="1078"/>
  <unicode hex="0078"/>
  <outline>
    <contour>
      <point x="-91" y="0" type="line"/>
      <point x="370" y="546" type="line"/>
      <point x="96" y="1080" type="line"/>
      <point x="403" y="1080" type="line"/>
      <point x="557" y="760" type="line"/>
      <point x="814" y="1080" type="line"/>
      <point x="1121" y="1080" type="line"/>
      <point x="670" y="546" type="line"/>
      <point x="952" y="0" type="line"/>
      <point x="645" y="0" type="line"/>
      <point x="486" y="332" type="line"/>
      <point x="216" y="0" type="line"/>
    </contour>
  </outline>
</glyph>
<glyph name="y" format="2">
  <advance width="1122"/>
  <unicode hex="0079"/>
  <outline>
    <contour>
      <point x="218" y="1080" type="line"/>
      <point x="479" y="1080" type="line"/>
      <point x="601" y="332" type="line"/>
      <point x="970" y="1080" type="line"/>
      <point x="1231" y="1080" type="line"/>
      <point x="676" y="0" type="line" smooth="yes"/>
      <point x="521" y="-301"/>
      <point x="416" y="-480"/>
      <point x="113" y="-480" type="curve" smooth="yes"/>
      <point x="36" y="-480" type="line"/>
      <point x="75" y="-242" type="line"/>
      <point x="128" y="-241" type="line" smooth="yes"/>
      <point x="244" y="-239"/>
      <point x="349" y="-125"/>
      <point x="415" y="0" type="curve"/>
    </contour>
  </outline>
</glyph>
<glyph name="z" format="2">
  <advance width="1021"/>
  <unicode hex="007A"/>
  <outline>
    <contour>
      <point x="-73" y="0" type="line"/>
      <point x="-67" y="34" type="line"/>
      <point x="576" y="844" type="line"/>
      <point x="125" y="844" type="line"/>
      <point x="164" y="1080" type="line"/>
      <point x="1018" y="1080" type="line"/>
      <point x="1013" y="1046" type="line"/>
      <point x="372" y="236" type="line"/>
      <point x="859" y="236" type="line"/>
      <point x="820" y="0" type="line"/>
    </contour>
  </outline>
</glyph>
<glyph name="braceleft" format="2">
  <advance width="874"/>
  <unicode hex="007B"/>
  <outline>
    <contour>
      <point x="524" y="-420" type="line" smooth="yes"/>
      <point x="456" y="-420"/>
      <point x="357" y="-381"/>
      <point x="325" y="-342" type="qcurve" smooth="yes"/>
      <point x="293" y="-303"/>
      <point x="273" y="-195"/>
      <point x="285" y="-126" type="qcurve" smooth="yes"/>
      <point x="381" y="458" type="line"/>
      <point x="383" y="468"/>
      <point x="380" y="483"/>
      <point x="377" y="490" type="qcurve"/>
      <point x="310" y="618" type="line"/>
      <point x="294" y="651"/>
      <point x="306" y="729"/>
      <point x="334" y="762" type="qcurve" smooth="yes"/>
      <point x="443" y="890" type="line"/>
      <point x="449" y="898"/>
      <point x="457" y="914"/>
      <point x="458" y="922" type="qcurve"/>
      <point x="555" y="1506" type="line" smooth="yes"/>
      <point x="566" y="1575"/>
      <point x="622" y="1682"/>
      <point x="667" y="1722" type="qcurve" smooth="yes"/>
      <point x="712" y="1761"/>
      <point x="824" y="1800"/>
      <point x="891" y="1800" type="qcurve" smooth="yes"/>
      <point x="1031" y="1800" type="line"/>
      <point x="988" y="1544" type="line"/>
      <point x="869" y="1544" type="line" smooth="yes"/>
      <point x="857" y="1544"/>
      <point x="835" y="1535"/>
      <point x="826" y="1527" type="qcurve" smooth="yes"/>
      <point x="817" y="1519"/>
      <point x="804" y="1498"/>
      <point x="802" y="1486" type="qcurve" smooth="yes"/>
      <point x="709" y="922" type="line" smooth="yes"/>
      <point x="701" y="873"/>
      <point x="658" y="784"/>
      <point x="622" y="742" type="qcurve" smooth="yes"/>
      <point x="576" y="690" type="line"/>
      <point x="605" y="638" type="line"/>
      <point x="626" y="596"/>
      <point x="640" y="507"/>
      <point x="632" y="458" type="qcurve" smooth="yes"/>
      <point x="539" y="-106" type="line" smooth="yes"/>
      <point x="537" y="-119"/>
      <point x="542" y="-140"/>
      <point x="548" y="-149" type="qcurve"/>
      <point x="555" y="-157"/>
      <point x="574" y="-166"/>
      <point x="586" y="-166" type="qcurve" smooth="yes"/>
      <point x="705" y="-166" type="line"/>
      <point x="663" y="-420" type="line"/>
    </contour>
  </outline>
</glyph>
<glyph name="bar" format="2">
  <advance width="594"/>
  <unicode hex="007C"/>
  <outline>
    <contour>
      <point x="130" y="0" type="line"/>
      <point x="368" y="1440" type="line"/>
      <point x="635" y="1440" type="line"/>
      <point x="396" y="0" type="line"/>
    </contour>
  </outline>
</glyph>
<glyph name="braceright" format="2">
  <advance width="874"/>
  <unicode hex="007D"/>
  <outline>
    <contour>
      <point x="-31" y="-420" type="line"/>
      <point x="11" y="-166" type="line"/>
      <point x="131" y="-166" type="line" smooth="yes"/>
      <point x="143" y="-166"/>
      <point x="165" y="-157"/>
      <point x="174" y="-149" type="qcurve"/>
      <point x="183" y="-140"/>
      <point x="195" y="-119"/>
      <point x="198" y="-106" type="qcurve"/>
      <point x="291" y="458" type="line" smooth="yes"/>
      <point x="299" y="507"/>
      <point x="342" y="596"/>
      <point x="378" y="638" type="qcurve" smooth="yes"/>
      <point x="424" y="690" type="line"/>
      <point x="395" y="742" type="line"/>
      <point x="374" y="784"/>
      <point x="360" y="873"/>
      <point x="368" y="922" type="qcurve" smooth="yes"/>
      <point x="461" y="1486" type="line" smooth="yes"/>
      <point x="463" y="1498"/>
      <point x="458" y="1519"/>
      <point x="451" y="1527" type="qcurve" smooth="yes"/>
      <point x="444" y="1535"/>
      <point x="426" y="1544"/>
      <point x="414" y="1544" type="qcurve" smooth="yes"/>
      <point x="294" y="1544" type="line"/>
      <point x="337" y="1800" type="line"/>
      <point x="476" y="1800" type="line" smooth="yes"/>
      <point x="544" y="1800"/>
      <point x="643" y="1761"/>
      <point x="675" y="1722" type="qcurve" smooth="yes"/>
      <point x="707" y="1682"/>
      <point x="727" y="1575"/>
      <point x="715" y="1506" type="qcurve" smooth="yes"/>
      <point x="619" y="922" type="line"/>
      <point x="618" y="914"/>
      <point x="620" y="898"/>
      <point x="623" y="890" type="qcurve"/>
      <point x="690" y="762" type="line"/>
      <point x="706" y="729"/>
      <point x="693" y="651"/>
      <point x="666" y="618" type="qcurve" smooth="yes"/>
      <point x="557" y="490" type="line" smooth="yes"/>
      <point x="551" y="483"/>
      <point x="544" y="468"/>
      <point x="542" y="458" type="qcurve"/>
      <point x="445" y="-126" type="line" smooth="yes"/>
      <point x="434" y="-195"/>
      <point x="378" y="-303"/>
      <point x="333" y="-342" type="qcurve" smooth="yes"/>
      <point x="288" y="-381"/>
      <point x="176" y="-420"/>
      <point x="108" y="-420" type="qcurve" smooth="yes"/>
    </contour>
  </outline>
</glyph>
<glyph name="asciitilde" format="2">
  <advance width="1408"/>
  <unicode hex="007E"/>
  <outline>
    <contour>
      <point x="897" y="390" type="qcurve" smooth="yes"/>
      <point x="829" y="390"/>
      <point x="716" y="453"/>
      <point x="668" y="494" type="qcurve"/>
      <point x="643" y="514"/>
      <point x="598" y="551"/>
      <point x="576" y="567" type="qcurve" smooth="yes"/>
      <point x="554" y="583"/>
      <point x="512" y="599"/>
      <point x="492" y="599" type="qcurve" smooth="yes"/>
      <point x="471" y="599"/>
      <point x="439" y="575"/>
      <point x="427" y="552" type="qcurve" smooth="yes"/>
      <point x="415" y="528"/>
      <point x="406" y="468"/>
      <point x="410" y="432" type="qcurve"/>
      <point x="178" y="432" type="line"/>
      <point x="174" y="494"/>
      <point x="186" y="604"/>
      <point x="203" y="655" type="qcurve" smooth="yes"/>
      <point x="236" y="754"/>
      <point x="386" y="872"/>
      <point x="501" y="872" type="qcurve" smooth="yes"/>
      <point x="569" y="872"/>
      <point x="682" y="809"/>
      <point x="731" y="768" type="qcurve" smooth="yes"/>
      <point x="780" y="726"/>
      <point x="866" y="663"/>
      <point x="907" y="663" type="qcurve" smooth="yes"/>
      <point x="928" y="663"/>
      <point x="961" y="687"/>
      <point x="973" y="711" type="qcurve" smooth="yes"/>
      <point x="985" y="734"/>
      <point x="993" y="794"/>
      <point x="989" y="830" type="qcurve"/>
      <point x="1222" y="830" type="line"/>
      <point x="1225" y="768"/>
      <point x="1213" y="658"/>
      <point x="1197" y="608" type="qcurve" smooth="yes"/>
      <point x="1164" y="508"/>
      <point x="1014" y="390"/>
    </contour>
  </outline>
</glyph>
<glyph name="exclamdown" format="2">
  <advance width="706"/>
  <unicode hex="00A1"/>
  <outline>
    <contour>
      <point x="443" y="1102" type="qcurve" smooth="yes"/>
      <point x="476" y="1102"/>
      <point x="527" y="1079"/>
      <point x="546" y="1056" type="qcurve" smooth="yes"/>
      <point x="565" y="1033"/>
      <point x="577" y="977"/>
      <point x="571" y="944" type="qcurve" smooth="yes"/>
      <point x="565" y="910"/>
      <point x="535" y="855"/>
      <point x="509" y="832" type="qcurve" smooth="yes"/>
      <point x="483" y="809"/>
      <point x="424" y="786"/>
      <point x="389" y="786" type="qcurve" smooth="yes"/>
      <point x="356" y="786"/>
      <point x="305" y="809"/>
      <point x="286" y="832" type="qcurve" smooth="yes"/>
      <point x="267" y="855"/>
      <point x="254" y="910"/>
      <point x="260" y="944" type="qcurve" smooth="yes"/>
      <point x="265" y="977"/>
      <point x="297" y="1033"/>
      <point x="323" y="1056" type="qcurve" smooth="yes"/>
      <point x="349" y="1079"/>
      <point x="409" y="1102"/>
    </contour>
    <contour>
      <point x="482" y="660" type="line"/>
      <point x="353" y="-360" type="line"/>
      <point x="47" y="-360" type="line"/>
      <point x="255" y="660" type="line"/>
    </contour>
  </outline>
</glyph>
<glyph name="cent" format="2">
  <advance width="1132"/>
  <unicode hex="00A2"/>
  <outline>
    <contour>
      <point x="429" y="-58" type="line"/>
      <point x="460" y="126" type="line"/>
      <point x="393" y="137"/>
      <point x="284" y="186"/>
      <point x="242" y="225" type="qcurve" smooth="yes"/>
      <point x="157" y="303"/>
      <point x="94" y="542"/>
      <point x="118" y="690" type="qcurve" smooth="yes"/>
      <point x="130" y="764"/>
      <point x="179" y="897"/>
      <point x="215" y="957" type="qcurve" smooth="yes"/>
      <point x="288" y="1077"/>
      <point x="507" y="1231"/>
      <point x="646" y="1252" type="qcurve"/>
      <point x="677" y="1440" type="line"/>
      <point x="883" y="1440" type="line"/>
      <point x="852" y="1250" type="line"/>
      <point x="921" y="1236"/>
      <point x="1031" y="1178"/>
      <point x="1071" y="1132" type="qcurve" smooth="yes"/>
      <point x="1111" y="1086"/>
      <point x="1155" y="971"/>
      <point x="1158" y="900" type="qcurve"/>
      <point x="880" y="828" type="line"/>
      <point x="875" y="870"/>
      <point x="845" y="936"/>
      <point x="820" y="959" type="qcurve" smooth="yes"/>
      <point x="794" y="982"/>
      <point x="733" y="1006"/>
      <point x="696" y="1006" type="qcurve" smooth="yes"/>
      <point x="654" y="1006"/>
      <point x="581" y="985"/>
      <point x="551" y="965" type="qcurve" smooth="yes"/>
      <point x="490" y="923"/>
      <point x="415" y="781"/>
      <point x="400" y="690" type="qcurve" smooth="yes"/>
      <point x="388" y="619"/>
      <point x="400" y="506"/>
      <point x="424" y="462" type="qcurve"/>
      <point x="447" y="417"/>
      <point x="530" y="374"/>
      <point x="591" y="374" type="qcurve" smooth="yes"/>
      <point x="681" y="374"/>
      <point x="789" y="458"/>
      <point x="826" y="536" type="qcurve"/>
      <point x="1088" y="478" type="line"/>
      <point x="1026" y="333"/>
      <point x="810" y="157"/>
      <point x="666" y="130" type="qcurve"/>
      <point x="635" y="-58" type="line"/>
    </contour>
  </outline>
</glyph>
<glyph name="sterling" format="2">
  <advance width="1103"/>
  <unicode hex="00A3"/>
  <outline>
    <contour>
      <point x="-40" y="0" type="line"/>
      <point x="1" y="254" type="line"/>
      <point x="22" y="254"/>
      <point x="62" y="265"/>
      <point x="80" y="275" type="qcurve" smooth="yes"/>
      <point x="98" y="285"/>
      <point x="129" y="313"/>
      <point x="154" y="347"/>
      <point x="171" y="385"/>
      <point x="174" y="406" type="qcurve" smooth="yes"/>
      <point x="281" y="1082" type="line" smooth="yes"/>
      <point x="295" y="1167"/>
      <point x="382" y="1309"/>
      <point x="510" y="1412"/>
      <point x="668" y="1470"/>
      <point x="752" y="1470" type="qcurve" smooth="yes"/>
      <point x="835" y="1470"/>
      <point x="954" y="1409"/>
      <point x="1035" y="1307"/>
      <point x="1084" y="1174"/>
      <point x="1097" y="1102" type="qcurve"/>
      <point x="846" y="1022" type="line"/>
      <point x="842" y="1052"/>
      <point x="828" y="1120"/>
      <point x="798" y="1177"/>
      <point x="749" y="1214"/>
      <point x="711" y="1214" type="qcurve" smooth="yes"/>
      <point x="679" y="1214"/>
      <point x="624" y="1191"/>
      <point x="583" y="1152"/>
      <point x="556" y="1099"/>
      <point x="551" y="1068" type="qcurve" smooth="yes"/>
      <point x="420" y="254" type="line"/>
      <point x="857" y="254" type="line"/>
      <point x="817" y="0" type="line"/>
    </contour>
    <contour>
      <point x="54" y="592" type="line"/>
      <point x="95" y="848" type="line"/>
      <point x="792" y="848" type="line"/>
      <point x="752" y="592" type="line"/>
    </contour>
  </outline>
</glyph>
<glyph name="currency" format="2">
  <advance width="1320"/>
  <unicode hex="00A4"/>
  <outline>
    <contour>
      <point x="618" y="196" type="qcurve" smooth="yes"/>
      <point x="518" y="196"/>
      <point x="346" y="271"/>
      <point x="220" y="400"/>
      <point x="149" y="575"/>
      <point x="149" y="674" type="qcurve" smooth="yes"/>
      <point x="149" y="787"/>
      <point x="239" y="994"/>
      <point x="392" y="1152"/>
      <point x="597" y="1246"/>
      <point x="711" y="1246" type="qcurve" smooth="yes"/>
      <point x="812" y="1246"/>
      <point x="984" y="1172"/>
      <point x="1110" y="1043"/>
      <point x="1182" y="869"/>
      <point x="1182" y="769" type="qcurve" smooth="yes"/>
      <point x="1182" y="655"/>
      <point x="1092" y="447"/>
      <point x="938" y="290"/>
      <point x="733" y="196"/>
    </contour>
    <contour>
      <point x="135" y="100" type="line"/>
      <point x="-13" y="280" type="line"/>
      <point x="276" y="534" type="line"/>
      <point x="426" y="354" type="line"/>
    </contour>
    <contour>
      <point x="335" y="904" type="line"/>
      <point x="126" y="1158" type="line"/>
      <point x="331" y="1340" type="line"/>
      <point x="540" y="1086" type="line"/>
    </contour>
    <contour>
      <point x="997" y="100" type="line"/>
      <point x="789" y="354" type="line"/>
      <point x="994" y="534" type="line"/>
      <point x="1202" y="280" type="line"/>
    </contour>
    <contour>
      <point x="639" y="424" type="qcurve" smooth="yes"/>
      <point x="704" y="424"/>
      <point x="819" y="477"/>
      <point x="905" y="567"/>
      <point x="956" y="684"/>
      <point x="956" y="748" type="qcurve" smooth="yes"/>
      <point x="956" y="804"/>
      <point x="915" y="902"/>
      <point x="843" y="974"/>
      <point x="746" y="1016"/>
      <point x="690" y="1016" type="qcurve" smooth="yes"/>
      <point x="625" y="1016"/>
      <point x="510" y="963"/>
      <point x="423" y="874"/>
      <point x="373" y="757"/>
      <point x="373" y="693" type="qcurve" smooth="yes"/>
      <point x="373" y="637"/>
      <point x="414" y="539"/>
      <point x="486" y="466"/>
      <point x="583" y="424"/>
    </contour>
    <contour>
      <point x="1055" y="906" type="line"/>
      <point x="905" y="1086" type="line"/>
      <point x="1194" y="1340" type="line"/>
      <point x="1341" y="1158" type="line"/>
    </contour>
  </outline>
</glyph>
<glyph name="yen" format="2">
  <advance width="1234"/>
  <unicode hex="00A5"/>
  <outline>
    <contour>
      <point x="259" y="526" type="line"/>
      <point x="294" y="736" type="line"/>
      <point x="1117" y="736" type="line"/>
      <point x="1082" y="526" type="line"/>
    </contour>
    <contour>
      <point x="203" y="188" type="line"/>
      <point x="238" y="398" type="line"/>
      <point x="1061" y="398" type="line"/>
      <point x="1026" y="188" type="line"/>
    </contour>
    <contour>
      <point x="448" y="0" type="line"/>
      <point x="545" y="586" type="line"/>
      <point x="204" y="1440" type="line"/>
      <point x="516" y="1440" type="line"/>
      <point x="732" y="898" type="line"/>
      <point x="1128" y="1440" type="line"/>
      <point x="1439" y="1440" type="line"/>
      <point x="816" y="586" type="line"/>
      <point x="719" y="0" type="line"/>
    </contour>
  </outline>
</glyph>
<glyph name="brokenbar" format="2">
  <advance width="594"/>
  <unicode hex="00A6"/>
  <outline>
    <contour>
      <point x="229" y="600" type="line"/>
      <point x="368" y="1440" type="line"/>
      <point x="635" y="1440" type="line"/>
      <point x="496" y="600" type="line"/>
    </contour>
    <contour>
      <point x="57" y="-440" type="line"/>
      <point x="196" y="400" type="line"/>
      <point x="463" y="400" type="line"/>
      <point x="324" y="-440" type="line"/>
    </contour>
  </outline>
</glyph>
<glyph name="section" format="2">
  <advance width="1059"/>
  <unicode hex="00A7"/>
  <outline>
    <contour>
      <point x="388" y="-270" type="curve" smooth="yes"/>
      <point x="159" y="-270"/>
      <point x="-4" y="-161"/>
      <point x="-4" y="84" type="curve"/>
      <point x="276" y="126" type="line"/>
      <point x="280" y="26"/>
      <point x="345" y="-36"/>
      <point x="445" y="-36" type="curve" smooth="yes"/>
      <point x="520" y="-36"/>
      <point x="599" y="4"/>
      <point x="599" y="89" type="curve" smooth="yes"/>
      <point x="599" y="232"/>
      <point x="59" y="182"/>
      <point x="59" y="466" type="curve" smooth="yes"/>
      <point x="59" y="679"/>
      <point x="267" y="777"/>
      <point x="453" y="789" type="curve" smooth="yes"/>
      <point x="466" y="790"/>
      <point x="479" y="790"/>
      <point x="491" y="790" type="curve"/>
      <point x="498" y="676" type="line"/>
      <point x="432" y="654"/>
      <point x="333" y="620"/>
      <point x="333" y="536" type="curve" smooth="yes"/>
      <point x="333" y="392"/>
      <point x="879" y="449"/>
      <point x="879" y="154" type="curve" smooth="yes"/>
      <point x="879" y="-121"/>
      <point x="643" y="-270"/>
    </contour>
    <contour>
      <point x="527" y="274" type="curve"/>
      <point x="538" y="384" type="line"/>
      <point x="609" y="405"/>
      <point x="695" y="466"/>
      <point x="695" y="549" type="curve" smooth="yes"/>
      <point x="695" y="695"/>
      <point x="156" y="633"/>
      <point x="156" y="931" type="curve" smooth="yes"/>
      <point x="156" y="1181"/>
      <point x="382" y="1330"/>
      <point x="614" y="1330" type="curve" smooth="yes"/>
      <point x="806" y="1330"/>
      <point x="977" y="1220"/>
      <point x="977" y="1010" type="curve"/>
      <point x="696" y="960" type="line"/>
      <point x="696" y="1050"/>
      <point x="661" y="1098"/>
      <point x="568" y="1098" type="curve" smooth="yes"/>
      <point x="503" y="1098"/>
      <point x="428" y="1070"/>
      <point x="428" y="993" type="curve" smooth="yes"/>
      <point x="428" y="854"/>
      <point x="975" y="906"/>
      <point x="975" y="617" type="curve" smooth="yes"/>
      <point x="975" y="386"/>
      <point x="798" y="272"/>
      <point x="582" y="272" type="curve" smooth="yes"/>
      <point x="564" y="272"/>
      <point x="545" y="273"/>
    </contour>
  </outline>
</glyph>
<glyph name="dieresis" format="2">
  <advance width="1144"/>
  <unicode hex="00A8"/>
  <outline>
    <contour>
      <point x="452" y="1193" type="curve" smooth="yes"/>
      <point x="375" y="1193"/>
      <point x="319" y="1245"/>
      <point x="319" y="1324" type="curve" smooth="yes"/>
      <point x="319" y="1423"/>
      <point x="403" y="1509"/>
      <point x="503" y="1509" type="curve" smooth="yes"/>
      <point x="580" y="1509"/>
      <point x="635" y="1460"/>
      <point x="635" y="1381" type="curve" smooth="yes"/>
      <point x="635" y="1280"/>
      <point x="553" y="1193"/>
    </contour>
    <contour>
      <point x="869" y="1193" type="curve" smooth="yes"/>
      <point x="795" y="1193"/>
      <point x="737" y="1245"/>
      <point x="737" y="1321" type="curve" smooth="yes"/>
      <point x="737" y="1423"/>
      <point x="819" y="1509"/>
      <point x="922" y="1509" type="curve" smooth="yes"/>
      <point x="997" y="1509"/>
      <point x="1054" y="1461"/>
      <point x="1054" y="1384" type="curve" smooth="yes"/>
      <point x="1054" y="1281"/>
      <point x="973" y="1193"/>
    </contour>
  </outline>
</glyph>
<glyph name="copyright" format="2">
  <advance width="1783"/>
  <unicode hex="00A9"/>
  <outline>
    <contour>
      <point x="774" y="-140" type="curve" smooth="yes"/>
      <point x="369" y="-140"/>
      <point x="66" y="160"/>
      <point x="66" y="566" type="curve" smooth="yes"/>
      <point x="66" y="1088"/>
      <point x="532" y="1568"/>
      <point x="1057" y="1568" type="curve" smooth="yes"/>
      <point x="1465" y="1568"/>
      <point x="1765" y="1269"/>
      <point x="1765" y="860" type="curve" smooth="yes"/>
      <point x="1765" y="338"/>
      <point x="1299" y="-140"/>
    </contour>
    <contour>
      <point x="863" y="286" type="curve" smooth="yes"/>
      <point x="654" y="286"/>
      <point x="529" y="418"/>
      <point x="529" y="627" type="curve" smooth="yes"/>
      <point x="529" y="902"/>
      <point x="731" y="1142"/>
      <point x="1014" y="1142" type="curve" smooth="yes"/>
      <point x="1179" y="1142"/>
      <point x="1311" y="1045"/>
      <point x="1318" y="872" type="curve"/>
      <point x="1109" y="818" type="line"/>
      <point x="1103" y="894"/>
      <point x="1049" y="952"/>
      <point x="971" y="952" type="curve" smooth="yes"/>
      <point x="814" y="952"/>
      <point x="743" y="786"/>
      <point x="743" y="651" type="curve" smooth="yes"/>
      <point x="743" y="550"/>
      <point x="787" y="478"/>
      <point x="896" y="478" type="curve" smooth="yes"/>
      <point x="985" y="478"/>
      <point x="1030" y="523"/>
      <point x="1069" y="598" type="curve"/>
      <point x="1266" y="556" type="line"/>
      <point x="1193" y="387"/>
      <point x="1047" y="286"/>
    </contour>
    <contour>
      <point x="816" y="114" type="curve" smooth="yes"/>
      <point x="1187" y="114"/>
      <point x="1513" y="452"/>
      <point x="1513" y="820" type="curve" smooth="yes"/>
      <point x="1513" y="1107"/>
      <point x="1300" y="1314"/>
      <point x="1015" y="1314" type="curve" smooth="yes"/>
      <point x="645" y="1314"/>
      <point x="319" y="976"/>
      <point x="319" y="609" type="curve" smooth="yes"/>
      <point x="319" y="325"/>
      <point x="533" y="114"/>
    </contour>
  </outline>
</glyph>
<glyph name="ordfeminine" format="2">
  <advance width="732"/>
  <unicode hex="00AA"/>
  <outline>
    <contour>
      <point x="376" y="710" type="curve" smooth="yes"/>
      <point x="234" y="710"/>
      <point x="152" y="799"/>
      <point x="174" y="931" type="curve" smooth="yes"/>
      <point x="197" y="1071"/>
      <point x="308" y="1153"/>
      <point x="503" y="1177" type="curve" smooth="yes"/>
      <point x="677" y="1198" type="line"/>
      <point x="678" y="1211"/>
      <point x="678" y="1223"/>
      <point x="675" y="1234" type="curve" smooth="yes"/>
      <point x="665" y="1273"/>
      <point x="630" y="1291"/>
      <point x="570" y="1291" type="curve" smooth="yes"/>
      <point x="495" y="1291"/>
      <point x="449" y="1267"/>
      <point x="420" y="1211" type="curve"/>
      <point x="254" y="1252" type="line"/>
      <point x="318" y="1393"/>
      <point x="440" y="1470"/>
      <point x="601" y="1470" type="curve" smooth="yes"/>
      <point x="813" y="1470"/>
      <point x="897" y="1368"/>
      <point x="861" y="1150" type="curve" smooth="yes"/>
      <point x="791" y="730" type="line"/>
      <point x="599" y="730" type="line"/>
      <point x="616" y="833" type="line"/>
      <point x="557" y="751"/>
      <point x="480" y="710"/>
    </contour>
    <contour>
      <point x="456" y="878" type="curve" smooth="yes"/>
      <point x="536" y="878"/>
      <point x="617" y="920"/>
      <point x="642" y="999" type="curve"/>
      <point x="646" y="1017"/>
      <point x="649" y="1035"/>
      <point x="653" y="1053" type="curve"/>
      <point x="504" y="1035" type="line" smooth="yes"/>
      <point x="419" y="1025"/>
      <point x="373" y="998"/>
      <point x="365" y="950" type="curve" smooth="yes"/>
      <point x="357" y="902"/>
      <point x="388" y="878"/>
    </contour>
    <contour>
      <point x="112" y="480" type="line"/>
      <point x="135" y="618" type="line"/>
      <point x="799" y="618" type="line"/>
      <point x="776" y="480" type="line"/>
    </contour>
  </outline>
</glyph>
<glyph name="guillemotleft" format="2">
  <advance width="1162"/>
  <unicode hex="00AB"/>
  <outline>
    <contour>
      <point x="835" y="94" type="line"/>
      <point x="562" y="540" type="line"/>
      <point x="983" y="986" type="line"/>
      <point x="1104" y="874" type="line"/>
      <point x="788" y="540" type="line"/>
      <point x="993" y="206" type="line"/>
    </contour>
    <contour>
      <point x="414" y="94" type="line"/>
      <point x="141" y="540" type="line"/>
      <point x="562" y="986" type="line"/>
      <point x="682" y="874" type="line"/>
      <point x="366" y="540" type="line"/>
      <point x="572" y="206" type="line"/>
    </contour>
  </outline>
</glyph>
<glyph name="logicalnot" format="2">
  <advance width="1159"/>
  <unicode hex="00AC"/>
  <outline>
    <contour>
      <point x="796" y="366" type="line"/>
      <point x="834" y="596" type="line"/>
      <point x="99" y="596" type="line"/>
      <point x="134" y="806" type="line"/>
      <point x="1074" y="806" type="line"/>
      <point x="1002" y="366" type="line"/>
    </contour>
  </outline>
</glyph>
<glyph name="registered" format="2">
  <advance width="1283"/>
  <unicode hex="00AE"/>
  <outline>
    <contour>
      <point x="696" y="536" type="qcurve" smooth="yes"/>
      <point x="589" y="536"/>
      <point x="417" y="618"/>
      <point x="359" y="691" type="qcurve" smooth="yes"/>
      <point x="300" y="763"/>
      <point x="251" y="953"/>
      <point x="269" y="1062" type="qcurve" smooth="yes"/>
      <point x="287" y="1171"/>
      <point x="399" y="1360"/>
      <point x="481" y="1432" type="qcurve" smooth="yes"/>
      <point x="563" y="1504"/>
      <point x="763" y="1586"/>
      <point x="869" y="1586" type="qcurve" smooth="yes"/>
      <point x="976" y="1586"/>
      <point x="1149" y="1504"/>
      <point x="1209" y="1432" type="qcurve" smooth="yes"/>
      <point x="1268" y="1360"/>
      <point x="1316" y="1171"/>
      <point x="1298" y="1062" type="qcurve" smooth="yes"/>
      <point x="1280" y="953"/>
      <point x="1168" y="763"/>
      <point x="1086" y="691" type="qcurve" smooth="yes"/>
      <point x="1002" y="618"/>
      <point x="803" y="536"/>
    </contour>
    <contour>
      <point x="727" y="712" type="qcurve" smooth="yes"/>
      <point x="774" y="712"/>
      <point x="863" y="736"/>
      <point x="906" y="760" type="qcurve" smooth="yes"/>
      <point x="949" y="784"/>
      <point x="1022" y="848"/>
      <point x="1052" y="888" type="qcurve" smooth="yes"/>
      <point x="1082" y="928"/>
      <point x="1120" y="1014"/>
      <point x="1128" y="1062" type="qcurve" smooth="yes"/>
      <point x="1136" y="1111"/>
      <point x="1127" y="1199"/>
      <point x="1110" y="1239" type="qcurve" smooth="yes"/>
      <point x="1093" y="1279"/>
      <point x="1042" y="1342"/>
      <point x="1006" y="1365" type="qcurve" smooth="yes"/>
      <point x="971" y="1388"/>
      <point x="890" y="1412"/>
      <point x="843" y="1412" type="qcurve" smooth="yes"/>
      <point x="795" y="1412"/>
      <point x="705" y="1388"/>
      <point x="662" y="1365" type="qcurve" smooth="yes"/>
      <point x="619" y="1342"/>
      <point x="546" y="1279"/>
      <point x="517" y="1239" type="qcurve" smooth="yes"/>
      <point x="488" y="1199"/>
      <point x="450" y="1111"/>
      <point x="442" y="1062" type="qcurve" smooth="yes"/>
      <point x="434" y="1014"/>
      <point x="443" y="928"/>
      <point x="459" y="888" type="qcurve" smooth="yes"/>
      <point x="475" y="848"/>
      <point x="527" y="784"/>
      <point x="562" y="760" type="qcurve" smooth="yes"/>
      <point x="597" y="736"/>
      <point x="679" y="712"/>
    </contour>
    <contour>
      <point x="581" y="824" type="line"/>
      <point x="659" y="1300" type="line"/>
      <point x="855" y="1300" type="line" smooth="yes"/>
      <point x="892" y="1300"/>
      <point x="948" y="1279"/>
      <point x="965" y="1257" type="qcurve" smooth="yes"/>
      <point x="982" y="1235"/>
      <point x="994" y="1178"/>
      <point x="990" y="1142" type="qcurve"/>
      <point x="983" y="1099"/>
      <point x="932" y="1026"/>
      <point x="886" y="1002" type="qcurve"/>
      <point x="943" y="824" type="line"/>
      <point x="843" y="824" type="line"/>
      <point x="794" y="986" type="line"/>
      <point x="696" y="986" type="line"/>
      <point x="669" y="824" type="line"/>
    </contour>
    <contour>
      <point x="710" y="1070" type="line"/>
      <point x="821" y="1070" type="line" smooth="yes"/>
      <point x="836" y="1070"/>
      <point x="861" y="1080"/>
      <point x="873" y="1091" type="qcurve" smooth="yes"/>
      <point x="884" y="1101"/>
      <point x="897" y="1126"/>
      <point x="900" y="1142" type="qcurve" smooth="yes"/>
      <point x="903" y="1159"/>
      <point x="899" y="1186"/>
      <point x="893" y="1196" type="qcurve"/>
      <point x="887" y="1205"/>
      <point x="862" y="1214"/>
      <point x="845" y="1214" type="qcurve" smooth="yes"/>
      <point x="733" y="1214" type="line"/>
    </contour>
  </outline>
</glyph>
<glyph name="macron" format="2">
  <advance width="969"/>
  <unicode hex="00AF"/>
  <outline>
    <contour>
      <point x="463" y="1680" type="line"/>
      <point x="497" y="1888" type="line"/>
      <point x="1030" y="1888" type="line"/>
      <point x="996" y="1680" type="line"/>
    </contour>
  </outline>
</glyph>
<glyph name="degree" format="2">
  <advance width="869"/>
  <unicode hex="00B0"/>
  <outline>
    <contour>
      <point x="498" y="750" type="qcurve" smooth="yes"/>
      <point x="449" y="750"/>
      <point x="365" y="774"/>
      <point x="328" y="799" type="qcurve" smooth="yes"/>
      <point x="256" y="847"/>
      <point x="188" y="1010"/>
      <point x="204" y="1110" type="qcurve" smooth="yes"/>
      <point x="212" y="1159"/>
      <point x="252" y="1248"/>
      <point x="283" y="1290" type="qcurve" smooth="yes"/>
      <point x="314" y="1332"/>
      <point x="389" y="1396"/>
      <point x="434" y="1421" type="qcurve" smooth="yes"/>
      <point x="479" y="1446"/>
      <point x="570" y="1470"/>
      <point x="617" y="1470" type="qcurve" smooth="yes"/>
      <point x="666" y="1470"/>
      <point x="749" y="1446"/>
      <point x="786" y="1422" type="qcurve"/>
      <point x="857" y="1373"/>
      <point x="927" y="1210"/>
      <point x="910" y="1110" type="qcurve" smooth="yes"/>
      <point x="902" y="1059"/>
      <point x="863" y="970"/>
      <point x="832" y="929" type="qcurve" smooth="yes"/>
      <point x="770" y="847"/>
      <point x="596" y="750"/>
    </contour>
    <contour>
      <point x="536" y="980" type="qcurve" smooth="yes"/>
      <point x="553" y="980"/>
      <point x="586" y="989"/>
      <point x="602" y="998" type="qcurve" smooth="yes"/>
      <point x="633" y="1016"/>
      <point x="679" y="1075"/>
      <point x="685" y="1110" type="qcurve" smooth="yes"/>
      <point x="688" y="1127"/>
      <point x="684" y="1160"/>
      <point x="678" y="1175" type="qcurve"/>
      <point x="665" y="1204"/>
      <point x="613" y="1240"/>
      <point x="579" y="1240" type="qcurve" smooth="yes"/>
      <point x="562" y="1240"/>
      <point x="528" y="1231"/>
      <point x="513" y="1222" type="qcurve"/>
      <point x="481" y="1204"/>
      <point x="436" y="1145"/>
      <point x="430" y="1110" type="qcurve" smooth="yes"/>
      <point x="427" y="1093"/>
      <point x="430" y="1060"/>
      <point x="437" y="1046" type="qcurve"/>
      <point x="450" y="1016"/>
      <point x="502" y="980"/>
    </contour>
  </outline>
</glyph>
<glyph name="plusminus" format="2">
  <advance width="1159"/>
  <unicode hex="00B1"/>
  <outline>
    <contour>
      <point x="457" y="440" type="line"/>
      <point x="492" y="656" type="line"/>
      <point x="124" y="656" type="line"/>
      <point x="159" y="866" type="line"/>
      <point x="527" y="866" type="line"/>
      <point x="562" y="1080" type="line"/>
      <point x="768" y="1080" type="line"/>
      <point x="733" y="866" type="line"/>
      <point x="1099" y="866" type="line"/>
      <point x="1065" y="656" type="line"/>
      <point x="698" y="656" type="line"/>
      <point x="662" y="440" type="line"/>
    </contour>
    <contour>
      <point x="35" y="120" type="line"/>
      <point x="70" y="330" type="line"/>
      <point x="1011" y="330" type="line"/>
      <point x="976" y="120" type="line"/>
    </contour>
  </outline>
</glyph>
<glyph name="twosuperior" format="2">
  <advance width="801"/>
  <unicode hex="00B2"/>
  <outline>
    <contour>
      <point x="706" y="540" type="line"/>
      <point x="732" y="700" type="line"/>
      <point x="317" y="700" type="line"/>
      <point x="324" y="662" type="line"/>
      <point x="599" y="878" type="line" smooth="yes"/>
      <point x="723" y="975"/>
      <point x="812" y="1040"/>
      <point x="812" y="1213" type="curve" smooth="yes"/>
      <point x="812" y="1366"/>
      <point x="706" y="1460"/>
      <point x="556" y="1460" type="curve" smooth="yes"/>
      <point x="383" y="1460"/>
      <point x="236" y="1361"/>
      <point x="195" y="1189" type="curve"/>
      <point x="364" y="1172" type="line"/>
      <point x="381" y="1247"/>
      <point x="449" y="1300"/>
      <point x="526" y="1300" type="curve" smooth="yes"/>
      <point x="593" y="1300"/>
      <point x="638" y="1257"/>
      <point x="638" y="1189" type="curve" smooth="yes"/>
      <point x="638" y="1118"/>
      <point x="590" y="1066"/>
      <point x="537" y="1024" type="curve" smooth="yes"/>
      <point x="111" y="688" type="line"/>
      <point x="86" y="540" type="line"/>
    </contour>
  </outline>
</glyph>
<glyph name="threesuperior" format="2">
  <advance width="853"/>
  <unicode hex="00B3"/>
  <outline>
    <contour>
      <point x="526.368" y="517.28" type="curve" smooth="yes"/>
      <point x="365.328" y="517.28"/>
      <point x="224.784" y="599.264"/>
      <point x="221.856" y="813.008" type="curve"/>
      <point x="398.512" y="838.384" type="line"/>
      <point x="399.488" y="741.76"/>
      <point x="441.456" y="676.368"/>
      <point x="554.672" y="676.368" type="curve" smooth="yes"/>
      <point x="643.488" y="676.368"/>
      <point x="726.448" y="742.736"/>
      <point x="726.448" y="839.36" type="curve" smooth="yes"/>
      <point x="726.448" y="878.4"/>
      <point x="711.808" y="905.728"/>
      <point x="687.408" y="921.344" type="curve"/>
      <point x="663.008" y="938.912"/>
      <point x="627.872" y="945.744"/>
      <point x="592.736" y="945.744" type="curve" smooth="yes"/>
      <point x="484.4" y="945.744" type="line"/>
      <point x="504.896" y="1080.43" type="line"/>
      <point x="732.304" y="1280.51" type="line"/>
      <point x="340.928" y="1280.51" type="line"/>
      <point x="366.304" y="1439.6" type="line"/>
      <point x="959.712" y="1439.6" type="line"/>
      <point x="935.312" y="1280.51" type="line"/>
      <point x="700.096" y="1075.55" type="line"/>
      <point x="815.264" y="1059.94"/>
      <point x="905.056" y="1006.26"/>
      <point x="905.056" y="874.496" type="curve" smooth="yes"/>
      <point x="905.056" y="652.944"/>
      <point x="730.352" y="517.28"/>
    </contour>
  </outline>
</glyph>
<glyph name="acute" format="2">
  <advance width="1033"/>
  <unicode hex="00B4"/>
  <outline>
    <contour>
      <point x="709" y="1980" type="line"/>
      <point x="961" y="1980" type="line"/>
      <point x="734" y="1590" type="line"/>
      <point x="567" y="1590" type="line"/>
    </contour>
  </outline>
</glyph>
<glyph name="paragraph" format="2">
  <advance width="1443"/>
  <unicode hex="00B6"/>
  <outline>
    <contour>
      <point x="533" y="-282" type="line"/>
      <point x="661" y="488" type="line"/>
      <point x="567" y="488" type="line" smooth="yes"/>
      <point x="564" y="488"/>
      <point x="543" y="488"/>
      <point x="526" y="489" type="qcurve" smooth="yes"/>
      <point x="509" y="490"/>
      <point x="471" y="493"/>
      <point x="450" y="496" type="qcurve" smooth="yes"/>
      <point x="390" y="505"/>
      <point x="296" y="547"/>
      <point x="260" y="579" type="qcurve"/>
      <point x="190" y="645"/>
      <point x="143" y="843"/>
      <point x="163" y="964" type="qcurve" smooth="yes"/>
      <point x="173" y="1024"/>
      <point x="211" y="1132"/>
      <point x="239" y="1183" type="qcurve" smooth="yes"/>
      <point x="294" y="1283"/>
      <point x="475" y="1414"/>
      <point x="605" y="1432" type="qcurve" smooth="yes"/>
      <point x="626" y="1435"/>
      <point x="666" y="1438"/>
      <point x="699" y="1440"/>
      <point x="721" y="1440"/>
      <point x="724" y="1440" type="qcurve" smooth="yes"/>
      <point x="1085" y="1440" type="line"/>
      <point x="800" y="-282" type="line"/>
    </contour>
    <contour>
      <point x="988" y="-282" type="line"/>
      <point x="1273" y="1440" type="line"/>
      <point x="1540" y="1440" type="line"/>
      <point x="1255" y="-282" type="line"/>
    </contour>
  </outline>
</glyph>
<glyph name="periodcentered" format="2">
  <advance width="532"/>
  <unicode hex="00B7"/>
  <outline>
    <contour>
      <point x="314" y="470" type="qcurve" smooth="yes"/>
      <point x="280" y="470"/>
      <point x="226" y="493"/>
      <point x="208" y="516" type="qcurve"/>
      <point x="188" y="539"/>
      <point x="174" y="595"/>
      <point x="179" y="630" type="qcurve"/>
      <point x="185" y="665"/>
      <point x="218" y="722"/>
      <point x="246" y="745" type="qcurve"/>
      <point x="272" y="768"/>
      <point x="332" y="790"/>
      <point x="367" y="790" type="qcurve" smooth="yes"/>
      <point x="398" y="790"/>
      <point x="448" y="768"/>
      <point x="467" y="745" type="qcurve" smooth="yes"/>
      <point x="486" y="722"/>
      <point x="499" y="665"/>
      <point x="493" y="630" type="qcurve" smooth="yes"/>
      <point x="487" y="595"/>
      <point x="455" y="539"/>
      <point x="429" y="516" type="qcurve" smooth="yes"/>
      <point x="403" y="493"/>
      <point x="345" y="470"/>
    </contour>
  </outline>
</glyph>
<glyph name="cedilla" format="2">
  <advance width="787"/>
  <unicode hex="00B8"/>
  <outline>
    <contour>
      <point x="183" y="-484" type="qcurve" smooth="yes"/>
      <point x="142" y="-484"/>
      <point x="77" y="-462"/>
      <point x="51" y="-446" type="qcurve"/>
      <point x="133" y="-290" type="line"/>
      <point x="152" y="-296"/>
      <point x="179" y="-302"/>
      <point x="190" y="-302" type="qcurve" smooth="yes"/>
      <point x="216" y="-302"/>
      <point x="250" y="-272"/>
      <point x="253" y="-256" type="qcurve" smooth="yes"/>
      <point x="256" y="-238"/>
      <point x="241" y="-211"/>
      <point x="224" y="-203" type="qcurve" smooth="yes"/>
      <point x="206" y="-194"/>
      <point x="164" y="-178"/>
      <point x="139" y="-170" type="qcurve"/>
      <point x="242" y="34" type="line"/>
      <point x="397" y="36" type="line"/>
      <point x="344" y="-72" type="line"/>
      <point x="397" y="-102"/>
      <point x="443" y="-197"/>
      <point x="432" y="-262" type="qcurve" smooth="yes"/>
      <point x="424" y="-312"/>
      <point x="379" y="-392"/>
      <point x="342" y="-423" type="qcurve" smooth="yes"/>
      <point x="306" y="-454"/>
      <point x="226" y="-484"/>
    </contour>
  </outline>
</glyph>
<glyph name="onesuperior" format="2">
  <advance width="726"/>
  <unicode hex="00B9"/>
  <outline>
    <contour>
      <point x="368" y="540" type="line"/>
      <point x="476" y="1261" type="line"/>
      <point x="296" y="1159" type="line"/>
      <point x="241" y="1288" type="line"/>
      <point x="507" y="1440" type="line"/>
      <point x="672" y="1440" type="line"/>
      <point x="534" y="540" type="line"/>
    </contour>
  </outline>
</glyph>
<glyph name="ordmasculine" format="2">
  <advance width="847"/>
  <unicode hex="00BA"/>
  <outline>
    <contour>
      <point x="945" y="480" type="line"/>
      <point x="968" y="618" type="line"/>
      <point x="184" y="618" type="line"/>
      <point x="161" y="480" type="line"/>
    </contour>
    <contour>
      <point x="593" y="710" type="curve" smooth="yes"/>
      <point x="820" y="710"/>
      <point x="987" y="875"/>
      <point x="1023" y="1090" type="curve" smooth="yes"/>
      <point x="1060" y="1311"/>
      <point x="939" y="1470"/>
      <point x="718" y="1470" type="curve" smooth="yes"/>
      <point x="491" y="1470"/>
      <point x="324" y="1304"/>
      <point x="289" y="1090" type="curve" smooth="yes"/>
      <point x="252" y="869"/>
      <point x="372" y="710"/>
    </contour>
    <contour>
      <point x="624" y="901" type="curve" smooth="yes"/>
      <point x="505" y="901"/>
      <point x="475" y="990"/>
      <point x="492" y="1090" type="curve" smooth="yes"/>
      <point x="509" y="1194"/>
      <point x="568" y="1279"/>
      <point x="687" y="1279" type="curve" smooth="yes"/>
      <point x="808" y="1279"/>
      <point x="837" y="1192"/>
      <point x="820" y="1090" type="curve" smooth="yes"/>
      <point x="803" y="989"/>
      <point x="743" y="901"/>
    </contour>
  </outline>
</glyph>
<glyph name="guillemotright" format="2">
  <advance width="1162"/>
  <unicode hex="00BB"/>
  <outline>
    <contour>
      <point x="170" y="94" type="line"/>
      <point x="591" y="540" type="line"/>
      <point x="318" y="986" type="line"/>
      <point x="160" y="874" type="line"/>
      <point x="365" y="540" type="line"/>
      <point x="49" y="206" type="line"/>
    </contour>
    <contour>
      <point x="591" y="94" type="line"/>
      <point x="1012" y="540" type="line"/>
      <point x="739" y="986" type="line"/>
      <point x="581" y="874" type="line"/>
      <point x="787" y="540" type="line"/>
      <point x="471" y="206" type="line"/>
    </contour>
  </outline>
</glyph>
<glyph name="onequarter" format="2">
  <advance width="2009"/>
  <unicode hex="00BC"/>
  <outline>
    <contour>
      <point x="640" y="-1" type="line"/>
      <point x="509" y="114" type="line"/>
      <point x="1643" y="1454" type="line"/>
      <point x="1773" y="1337" type="line"/>
    </contour>
    <contour>
      <point x="1648" y="0" type="line"/>
      <point x="1671" y="153" type="line"/>
      <point x="1260" y="153" type="line"/>
      <point x="1284" y="310" type="line"/>
      <point x="1648" y="900" type="line"/>
      <point x="1830" y="900" type="line"/>
      <point x="1466" y="310" type="line"/>
      <point x="1696" y="310" type="line"/>
      <point x="1737" y="581" type="line"/>
      <point x="1903" y="581" type="line"/>
      <point x="1861" y="310" type="line"/>
      <point x="1946" y="310" type="line"/>
      <point x="1922" y="153" type="line"/>
      <point x="1837" y="153" type="line"/>
      <point x="1814" y="0" type="line"/>
    </contour>
    <contour>
      <point x="455" y="540" type="line"/>
      <point x="562" y="1261" type="line"/>
      <point x="383" y="1159" type="line"/>
      <point x="328" y="1288" type="line"/>
      <point x="594" y="1440" type="line"/>
      <point x="759" y="1440" type="line"/>
      <point x="621" y="540" type="line"/>
    </contour>
  </outline>
</glyph>
<glyph name="onehalf" format="2">
  <advance width="2017"/>
  <unicode hex="00BD"/>
  <outline>
    <contour>
      <point x="247" y="540" type="line"/>
      <point x="360" y="1255" type="line"/>
      <point x="178" y="1151" type="line"/>
      <point x="208" y="1339" type="line"/>
      <point x="389" y="1440" type="line"/>
      <point x="560" y="1440" type="line"/>
      <point x="417" y="540" type="line"/>
    </contour>
    <contour>
      <point x="1200" y="0" type="line"/>
      <point x="1223" y="148" type="line"/>
      <point x="1657" y="484" type="line" smooth="yes"/>
      <point x="1695" y="513"/>
      <point x="1746" y="585"/>
      <point x="1746" y="635" type="qcurve" smooth="yes"/>
      <point x="1746" y="663"/>
      <point x="1729" y="709"/>
      <point x="1698" y="742"/>
      <point x="1653" y="760"/>
      <point x="1625" y="760" type="qcurve" smooth="yes"/>
      <point x="1600" y="760"/>
      <point x="1549" y="743"/>
      <point x="1505" y="713"/>
      <point x="1473" y="672"/>
      <point x="1467" y="648" type="qcurve"/>
      <point x="1305" y="695" type="line"/>
      <point x="1321" y="749"/>
      <point x="1386" y="832"/>
      <point x="1474" y="890"/>
      <point x="1583" y="920"/>
      <point x="1643" y="920" type="qcurve" smooth="yes"/>
      <point x="1703" y="920"/>
      <point x="1805" y="881"/>
      <point x="1879" y="809"/>
      <point x="1920" y="709"/>
      <point x="1920" y="648" type="qcurve" smooth="yes"/>
      <point x="1920" y="591"/>
      <point x="1893" y="503"/>
      <point x="1844" y="432"/>
      <point x="1774" y="370"/>
      <point x="1730" y="338" type="qcurve" smooth="yes"/>
      <point x="1437" y="122" type="line"/>
      <point x="1429" y="160" type="line"/>
      <point x="1845" y="160" type="line"/>
      <point x="1819" y="0" type="line"/>
    </contour>
    <contour>
      <point x="438" y="0" type="line"/>
      <point x="305" y="114" type="line"/>
      <point x="1462" y="1454" type="line"/>
      <point x="1594" y="1338" type="line"/>
    </contour>
  </outline>
</glyph>
<glyph name="threequarters" format="2">
  <advance width="1992"/>
  <unicode hex="00BE"/>
  <outline>
    <contour>
      <point x="678" y="-1" type="line"/>
      <point x="546" y="114" type="line"/>
      <point x="1678" y="1454" type="line"/>
      <point x="1809" y="1337" type="line"/>
    </contour>
    <contour>
      <point x="1669" y="0" type="line"/>
      <point x="1692" y="153" type="line"/>
      <point x="1283" y="153" type="line"/>
      <point x="1306" y="310" type="line"/>
      <point x="1669" y="900" type="line"/>
      <point x="1852" y="900" type="line"/>
      <point x="1489" y="310" type="line"/>
      <point x="1717" y="310" type="line"/>
      <point x="1758" y="581" type="line"/>
      <point x="1925" y="581" type="line"/>
      <point x="1884" y="310" type="line"/>
      <point x="1968" y="310" type="line"/>
      <point x="1943" y="153" type="line"/>
      <point x="1859" y="153" type="line"/>
      <point x="1835" y="0" type="line"/>
    </contour>
    <contour>
      <point x="443" y="517" type="curve" smooth="yes"/>
      <point x="282" y="517"/>
      <point x="142" y="599"/>
      <point x="139" y="813" type="curve"/>
      <point x="316" y="838" type="line"/>
      <point x="316" y="742"/>
      <point x="358" y="676"/>
      <point x="472" y="676" type="curve" smooth="yes"/>
      <point x="560" y="676"/>
      <point x="643" y="743"/>
      <point x="643" y="839" type="curve" smooth="yes"/>
      <point x="643" y="878"/>
      <point x="629" y="906"/>
      <point x="604" y="921" type="curve"/>
      <point x="580" y="939"/>
      <point x="545" y="946"/>
      <point x="510" y="946" type="curve" smooth="yes"/>
      <point x="401" y="946" type="line"/>
      <point x="422" y="1080" type="line"/>
      <point x="649" y="1281" type="line"/>
      <point x="258" y="1281" type="line"/>
      <point x="283" y="1440" type="line"/>
      <point x="877" y="1440" type="line"/>
      <point x="852" y="1281" type="line"/>
      <point x="617" y="1076" type="line"/>
      <point x="732" y="1060"/>
      <point x="822" y="1006"/>
      <point x="822" y="874" type="curve" smooth="yes"/>
      <point x="822" y="653"/>
      <point x="647" y="517"/>
    </contour>
  </outline>
</glyph>
<glyph name="questiondown" format="2">
  <advance width="1103"/>
  <unicode hex="00BF"/>
  <outline>
    <contour>
      <point x="-16" y="92" type="qcurve" smooth="yes"/>
      <point x="2" y="201"/>
      <point x="100" y="369"/>
      <point x="178" y="428" type="qcurve" smooth="yes"/>
      <point x="255" y="487"/>
      <point x="460" y="548"/>
      <point x="586" y="548" type="qcurve" smooth="yes"/>
      <point x="709" y="548" type="line"/>
      <point x="667" y="292" type="line"/>
      <point x="549" y="292" type="line" smooth="yes"/>
      <point x="433" y="292"/>
      <point x="279" y="184"/>
      <point x="262" y="81" type="qcurve" smooth="yes"/>
      <point x="255" y="36"/>
      <point x="278" y="-41"/>
      <point x="305" y="-71" type="qcurve" smooth="yes"/>
      <point x="332" y="-101"/>
      <point x="417" y="-136"/>
      <point x="472" y="-136" type="qcurve" smooth="yes"/>
      <point x="543" y="-136"/>
      <point x="650" y="-99"/>
      <point x="692" y="-66" type="qcurve"/>
      <point x="733" y="-32"/>
      <point x="791" y="62"/>
      <point x="811" y="122" type="qcurve"/>
      <point x="1083" y="80" type="line"/>
      <point x="1039" y="-48"/>
      <point x="901" y="-225"/>
      <point x="815" y="-282" type="qcurve" smooth="yes"/>
      <point x="729" y="-339"/>
      <point x="534" y="-390"/>
      <point x="436" y="-390" type="qcurve" smooth="yes"/>
      <point x="320" y="-390"/>
      <point x="136" y="-328"/>
      <point x="76" y="-266" type="qcurve" smooth="yes"/>
      <point x="15" y="-204"/>
      <point x="-35" y="-25"/>
    </contour>
    <contour>
      <point x="731" y="680" type="line"/>
      <point x="667" y="292" type="line"/>
      <point x="420" y="292" type="line"/>
      <point x="484" y="680" type="line"/>
    </contour>
    <contour>
      <point x="678" y="1102" type="qcurve" smooth="yes"/>
      <point x="711" y="1102"/>
      <point x="764" y="1079"/>
      <point x="783" y="1056" type="qcurve" smooth="yes"/>
      <point x="802" y="1033"/>
      <point x="814" y="977"/>
      <point x="808" y="944" type="qcurve" smooth="yes"/>
      <point x="802" y="910"/>
      <point x="772" y="855"/>
      <point x="745" y="832" type="qcurve" smooth="yes"/>
      <point x="719" y="809"/>
      <point x="659" y="786"/>
      <point x="626" y="786" type="qcurve" smooth="yes"/>
      <point x="592" y="786"/>
      <point x="541" y="809"/>
      <point x="522" y="832" type="qcurve" smooth="yes"/>
      <point x="503" y="855"/>
      <point x="491" y="910"/>
      <point x="496" y="944" type="qcurve" smooth="yes"/>
      <point x="501" y="977"/>
      <point x="533" y="1033"/>
      <point x="559" y="1056" type="qcurve" smooth="yes"/>
      <point x="585" y="1079"/>
      <point x="644" y="1102"/>
    </contour>
  </outline>
</glyph>
<glyph name="Agrave" format="2">
  <advance width="1333"/>
  <unicode hex="00C0"/>
  <outline>
    <contour>
      <point x="901" y="1590" type="line"/>
      <point x="734" y="1590" type="line"/>
      <point x="636" y="1980" type="line"/>
      <point x="888" y="1980" type="line"/>
    </contour>
    <contour>
      <point x="953" y="0" type="line"/>
      <point x="785" y="1270" type="line"/>
      <point x="836" y="1270" type="line"/>
      <point x="242" y="0" type="line"/>
      <point x="-33" y="0" type="line"/>
      <point x="637" y="1440" type="line"/>
      <point x="1035" y="1440" type="line"/>
      <point x="1228" y="0" type="line"/>
    </contour>
    <contour>
      <point x="274" y="300" type="line"/>
      <point x="316" y="554" type="line"/>
      <point x="1061" y="554" type="line"/>
      <point x="1019" y="300" type="line"/>
    </contour>
  </outline>
</glyph>
<glyph name="Aacute" format="2">
  <advance width="1333"/>
  <unicode hex="00C1"/>
  <outline>
    <contour>
      <point x="998" y="1980" type="line"/>
      <point x="1249" y="1980" type="line"/>
      <point x="1022" y="1590" type="line"/>
      <point x="856" y="1590" type="line"/>
    </contour>
    <contour>
      <point x="2" y="0" type="line"/>
      <point x="672" y="1440" type="line"/>
      <point x="1070" y="1440" type="line"/>
      <point x="1263" y="0" type="line"/>
      <point x="988" y="0" type="line"/>
      <point x="814" y="1270" type="line"/>
      <point x="865" y="1270" type="line"/>
      <point x="277" y="0" type="line"/>
    </contour>
    <contour>
      <point x="311" y="300" type="line"/>
      <point x="353" y="554" type="line"/>
      <point x="1098" y="554" type="line"/>
      <point x="1056" y="300" type="line"/>
    </contour>
  </outline>
</glyph>
<glyph name="Acircumflex" format="2">
  <advance width="1333"/>
  <unicode hex="00C2"/>
  <outline>
    <contour>
      <point x="426" y="1590" type="line"/>
      <point x="763" y="1920" type="line"/>
      <point x="982" y="1920" type="line"/>
      <point x="1210" y="1590" type="line"/>
      <point x="965" y="1590" type="line"/>
      <point x="848" y="1770" type="line"/>
      <point x="671" y="1590" type="line"/>
    </contour>
    <contour>
      <point x="-73" y="0" type="line"/>
      <point x="597" y="1440" type="line"/>
      <point x="995" y="1440" type="line"/>
      <point x="1188" y="0" type="line"/>
      <point x="913" y="0" type="line"/>
      <point x="739" y="1270" type="line"/>
      <point x="790" y="1270" type="line"/>
      <point x="202" y="0" type="line"/>
    </contour>
    <contour>
      <point x="236" y="300" type="line"/>
      <point x="278" y="554" type="line"/>
      <point x="1023" y="554" type="line"/>
      <point x="981" y="300" type="line"/>
    </contour>
  </outline>
</glyph>
<glyph name="Atilde" format="2">
  <advance width="1333"/>
  <unicode hex="00C3"/>
  <outline>
    <contour>
      <point x="1040" y="1646" type="qcurve" smooth="yes"/>
      <point x="992" y="1646"/>
      <point x="913" y="1691"/>
      <point x="877" y="1720" type="qcurve" smooth="yes"/>
      <point x="842" y="1749"/>
      <point x="781" y="1794"/>
      <point x="752" y="1794" type="qcurve" smooth="yes"/>
      <point x="737" y="1794"/>
      <point x="715" y="1778"/>
      <point x="707" y="1761" type="qcurve"/>
      <point x="698" y="1744"/>
      <point x="691" y="1702"/>
      <point x="694" y="1676" type="qcurve"/>
      <point x="529" y="1676" type="line"/>
      <point x="524" y="1742"/>
      <point x="549" y="1852"/>
      <point x="579" y="1898" type="qcurve" smooth="yes"/>
      <point x="608" y="1943"/>
      <point x="697" y="1988"/>
      <point x="759" y="1988" type="qcurve" smooth="yes"/>
      <point x="807" y="1988"/>
      <point x="887" y="1943"/>
      <point x="922" y="1914" type="qcurve" smooth="yes"/>
      <point x="957" y="1885"/>
      <point x="1018" y="1840"/>
      <point x="1046" y="1840" type="qcurve" smooth="yes"/>
      <point x="1075" y="1840"/>
      <point x="1110" y="1907"/>
      <point x="1105" y="1958" type="qcurve"/>
      <point x="1270" y="1958" type="line"/>
      <point x="1275" y="1892"/>
      <point x="1250" y="1783"/>
      <point x="1221" y="1737" type="qcurve" smooth="yes"/>
      <point x="1192" y="1691"/>
      <point x="1102" y="1646"/>
    </contour>
    <contour>
      <point x="-33" y="0" type="line"/>
      <point x="637" y="1440" type="line"/>
      <point x="1035" y="1440" type="line"/>
      <point x="1228" y="0" type="line"/>
      <point x="953" y="0" type="line"/>
      <point x="779" y="1270" type="line"/>
      <point x="830" y="1270" type="line"/>
      <point x="242" y="0" type="line"/>
    </contour>
    <contour>
      <point x="276" y="300" type="line"/>
      <point x="318" y="554" type="line"/>
      <point x="1063" y="554" type="line"/>
      <point x="1021" y="300" type="line"/>
    </contour>
  </outline>
</glyph>
<glyph name="Aring" format="2">
  <advance width="1333"/>
  <unicode hex="00C5"/>
  <outline>
    <contour>
      <point x="890" y="1550" type="curve" smooth="yes"/>
      <point x="763" y="1550"/>
      <point x="666" y="1646"/>
      <point x="666" y="1773" type="curve" smooth="yes"/>
      <point x="666" y="1939"/>
      <point x="814" y="2090"/>
      <point x="980" y="2090" type="curve" smooth="yes"/>
      <point x="1107" y="2090"/>
      <point x="1203" y="1997"/>
      <point x="1203" y="1869" type="curve" smooth="yes"/>
      <point x="1203" y="1703"/>
      <point x="1058" y="1550"/>
    </contour>
    <contour>
      <point x="917" y="1710" type="curve" smooth="yes"/>
      <point x="985" y="1710"/>
      <point x="1045" y="1772"/>
      <point x="1045" y="1840" type="curve" smooth="yes"/>
      <point x="1045" y="1892"/>
      <point x="1005" y="1930"/>
      <point x="953" y="1930" type="curve" smooth="yes"/>
      <point x="885" y="1930"/>
      <point x="825" y="1868"/>
      <point x="825" y="1800" type="curve" smooth="yes"/>
      <point x="825" y="1750"/>
      <point x="867" y="1710"/>
    </contour>
    <contour>
      <point x="2" y="0" type="line"/>
      <point x="672" y="1440" type="line"/>
      <point x="1070" y="1440" type="line"/>
      <point x="1263" y="0" type="line"/>
      <point x="988" y="0" type="line"/>
      <point x="814" y="1270" type="line"/>
      <point x="865" y="1270" type="line"/>
      <point x="277" y="0" type="line"/>
    </contour>
    <contour>
      <point x="311" y="300" type="line"/>
      <point x="353" y="554" type="line"/>
      <point x="1098" y="554" type="line"/>
      <point x="1056" y="300" type="line"/>
    </contour>
  </outline>
</glyph>
<glyph name="AE" format="2">
  <advance width="1842"/>
  <unicode hex="00C6"/>
  <outline>
    <contour>
      <point x="2" y="0" type="line"/>
      <point x="672" y="1440" type="line"/>
      <point x="1123" y="1440" type="line"/>
      <point x="1081" y="1186" type="line"/>
      <point x="738" y="1186" type="line"/>
      <point x="866" y="1272" type="line"/>
      <point x="277" y="0" type="line"/>
    </contour>
    <contour>
      <point x="311" y="300" type="line"/>
      <point x="353" y="554" type="line"/>
      <point x="1098" y="554" type="line"/>
      <point x="1056" y="300" type="line"/>
    </contour>
    <contour>
      <point x="796" y="0" type="line"/>
      <point x="1035" y="1440" type="line"/>
      <point x="1956" y="1440" type="line"/>
      <point x="1914" y="1186" type="line"/>
      <point x="1259" y="1186" type="line"/>
      <point x="1208" y="878" type="line"/>
      <point x="1745" y="878" type="line"/>
      <point x="1703" y="624" type="line"/>
      <point x="1166" y="624" type="line"/>
      <point x="1105" y="254" type="line"/>
      <point x="1759" y="254" type="line"/>
      <point x="1717" y="0" type="line"/>
    </contour>
  </outline>
</glyph>
<glyph name="Ccedilla" format="2">
  <advance width="1452"/>
  <unicode hex="00C7"/>
  <outline>
    <contour>
      <point x="566" y="-484" type="curve" smooth="yes"/>
      <point x="518" y="-484"/>
      <point x="474" y="-470"/>
      <point x="433" y="-446" type="curve"/>
      <point x="516" y="-290" type="line"/>
      <point x="534" y="-296"/>
      <point x="554" y="-302"/>
      <point x="573" y="-302" type="curve" smooth="yes"/>
      <point x="605" y="-302"/>
      <point x="636" y="-279"/>
      <point x="636" y="-246" type="curve" smooth="yes"/>
      <point x="636" y="-200"/>
      <point x="558" y="-182"/>
      <point x="522" y="-170" type="curve"/>
      <point x="624" y="34" type="line"/>
      <point x="779" y="36" type="line"/>
      <point x="726" y="-72" type="line"/>
      <point x="783" y="-104"/>
      <point x="818" y="-155"/>
      <point x="818" y="-222" type="curve" smooth="yes"/>
      <point x="818" y="-360"/>
      <point x="707" y="-484"/>
    </contour>
    <contour>
      <point x="665" y="-30" type="curve" smooth="yes"/>
      <point x="307" y="-30"/>
      <point x="90" y="189"/>
      <point x="90" y="548" type="curve" smooth="yes"/>
      <point x="90" y="1029"/>
      <point x="402" y="1470"/>
      <point x="913" y="1470" type="curve" smooth="yes"/>
      <point x="1211" y="1470"/>
      <point x="1432" y="1319"/>
      <point x="1478" y="1014" type="curve"/>
      <point x="1197" y="938" type="line"/>
      <point x="1172" y="1124"/>
      <point x="1057" y="1214"/>
      <point x="871" y="1214" type="curve" smooth="yes"/>
      <point x="525" y="1214"/>
      <point x="374" y="884"/>
      <point x="374" y="580" type="curve" smooth="yes"/>
      <point x="374" y="362"/>
      <point x="483" y="226"/>
      <point x="707" y="226" type="curve" smooth="yes"/>
      <point x="900" y="226"/>
      <point x="1046" y="327"/>
      <point x="1125" y="502" type="curve"/>
      <point x="1381" y="426" type="line"/>
      <point x="1241" y="140"/>
      <point x="986" y="-30"/>
    </contour>
  </outline>
</glyph>
<glyph name="Egrave" format="2">
  <advance width="1139"/>
  <unicode hex="00C8"/>
  <outline>
    <contour>
      <point x="889" y="1980" type="line"/>
      <point x="902" y="1590" type="line"/>
      <point x="735" y="1590" type="line"/>
      <point x="637" y="1980" type="line"/>
    </contour>
    <contour>
      <point x="93" y="0" type="line"/>
      <point x="332" y="1440" type="line"/>
      <point x="1253" y="1440" type="line"/>
      <point x="1211" y="1186" type="line"/>
      <point x="556" y="1186" type="line"/>
      <point x="505" y="878" type="line"/>
      <point x="1042" y="878" type="line"/>
      <point x="1000" y="624" type="line"/>
      <point x="463" y="624" type="line"/>
      <point x="402" y="254" type="line"/>
      <point x="1057" y="254" type="line"/>
      <point x="1015" y="0" type="line"/>
    </contour>
  </outline>
</glyph>
<glyph name="Eacute" format="2">
  <advance width="1139"/>
  <unicode hex="00C9"/>
  <outline>
    <contour>
      <point x="884" y="1980" type="line"/>
      <point x="1136" y="1980" type="line"/>
      <point x="909" y="1590" type="line"/>
      <point x="742" y="1590" type="line"/>
    </contour>
    <contour>
      <point x="58" y="0" type="line"/>
      <point x="297" y="1440" type="line"/>
      <point x="1218" y="1440" type="line"/>
      <point x="1176" y="1186" type="line"/>
      <point x="521" y="1186" type="line"/>
      <point x="470" y="878" type="line"/>
      <point x="1007" y="878" type="line"/>
      <point x="965" y="624" type="line"/>
      <point x="428" y="624" type="line"/>
      <point x="367" y="254" type="line"/>
      <point x="1022" y="254" type="line"/>
      <point x="980" y="0" type="line"/>
    </contour>
  </outline>
</glyph>
<glyph name="Ecircumflex" format="2">
  <advance width="1139"/>
  <unicode hex="00CA"/>
  <outline>
    <contour>
      <point x="412" y="1590" type="line"/>
      <point x="748" y="1920" type="line"/>
      <point x="968" y="1920" type="line"/>
      <point x="1196" y="1590" type="line"/>
      <point x="951" y="1590" type="line"/>
      <point x="833" y="1770" type="line"/>
      <point x="657" y="1590" type="line"/>
    </contour>
    <contour>
      <point x="93" y="0" type="line"/>
      <point x="332" y="1440" type="line"/>
      <point x="1253" y="1440" type="line"/>
      <point x="1211" y="1186" type="line"/>
      <point x="556" y="1186" type="line"/>
      <point x="505" y="878" type="line"/>
      <point x="1042" y="878" type="line"/>
      <point x="1000" y="624" type="line"/>
      <point x="463" y="624" type="line"/>
      <point x="402" y="254" type="line"/>
      <point x="1057" y="254" type="line"/>
      <point x="1015" y="0" type="line"/>
    </contour>
  </outline>
</glyph>
<glyph name="Igrave" format="2">
  <advance width="567"/>
  <unicode hex="00CC"/>
  <outline>
    <contour>
      <point x="493" y="1980" type="line"/>
      <point x="506" y="1590" type="line"/>
      <point x="340" y="1590" type="line"/>
      <point x="242" y="1980" type="line"/>
    </contour>
    <contour>
      <point x="46" y="0" type="line"/>
      <point x="284" y="1440" type="line"/>
      <point x="551" y="1440" type="line"/>
      <point x="313" y="0" type="line"/>
    </contour>
  </outline>
</glyph>
<glyph name="Iacute" format="2">
  <advance width="567"/>
  <unicode hex="00CD"/>
  <outline>
    <contour>
      <point x="526" y="1980" type="line"/>
      <point x="778" y="1980" type="line"/>
      <point x="551" y="1590" type="line"/>
      <point x="384" y="1590" type="line"/>
    </contour>
    <contour>
      <point x="52" y="0" type="line"/>
      <point x="290" y="1440" type="line"/>
      <point x="557" y="1440" type="line"/>
      <point x="318" y="0" type="line"/>
    </contour>
  </outline>
</glyph>
<glyph name="Icircumflex" format="2">
  <advance width="594"/>
  <unicode hex="00CE"/>
  <outline>
    <contour>
      <point x="71" y="1590" type="line"/>
      <point x="408" y="1920" type="line"/>
      <point x="627" y="1920" type="line"/>
      <point x="855" y="1590" type="line"/>
      <point x="610" y="1590" type="line"/>
      <point x="493" y="1770" type="line"/>
      <point x="316" y="1590" type="line"/>
    </contour>
    <contour>
      <point x="70" y="0" type="line"/>
      <point x="309" y="1440" type="line"/>
      <point x="575" y="1440" type="line"/>
      <point x="337" y="0" type="line"/>
    </contour>
  </outline>
</glyph>
<glyph name="Eth" format="2">
  <advance width="1387"/>
  <unicode hex="00D0"/>
  <outline>
    <contour>
      <point x="5" y="616" type="line"/>
      <point x="38" y="826" type="line"/>
      <point x="715" y="826" type="line"/>
      <point x="681" y="616" type="line"/>
    </contour>
    <contour>
      <point x="33" y="0" type="line"/>
      <point x="261" y="1440" type="line"/>
      <point x="718" y="1440" type="line" smooth="yes"/>
      <point x="760" y="1440"/>
      <point x="843" y="1437"/>
      <point x="885" y="1432" type="qcurve" smooth="yes"/>
      <point x="997" y="1417"/>
      <point x="1160" y="1319"/>
      <point x="1265" y="1170"/>
      <point x="1316" y="981"/>
      <point x="1316" y="875" type="qcurve" smooth="yes"/>
      <point x="1316" y="777"/>
      <point x="1277" y="579"/>
      <point x="1201" y="395"/>
      <point x="1090" y="233"/>
      <point x="944" y="105"/>
      <point x="765" y="21"/>
      <point x="660" y="8" type="qcurve" smooth="yes"/>
      <point x="618" y="3"/>
      <point x="533" y="0"/>
      <point x="490" y="0" type="qcurve" smooth="yes"/>
    </contour>
    <contour>
      <point x="344" y="256" type="line"/>
      <point x="530" y="256" type="line" smooth="yes"/>
      <point x="549" y="256"/>
      <point x="588" y="256"/>
      <point x="627" y="258"/>
      <point x="666" y="262"/>
      <point x="685" y="266" type="qcurve" smooth="yes"/>
      <point x="774" y="284"/>
      <point x="904" y="407"/>
      <point x="989" y="571"/>
      <point x="1030" y="756"/>
      <point x="1030" y="837" type="qcurve" smooth="yes"/>
      <point x="1030" y="891"/>
      <point x="1012" y="999"/>
      <point x="966" y="1092"/>
      <point x="889" y="1161"/>
      <point x="829" y="1174" type="qcurve" smooth="yes"/>
      <point x="797" y="1181"/>
      <point x="733" y="1184"/>
      <point x="701" y="1184" type="qcurve" smooth="yes"/>
      <point x="491" y="1184" type="line"/>
    </contour>
  </outline>
</glyph>
<glyph name="Ntilde" format="2">
  <advance width="1400"/>
  <unicode hex="00D1"/>
  <outline>
    <contour>
      <point x="982" y="1596" type="qcurve" smooth="yes"/>
      <point x="933" y="1596"/>
      <point x="854" y="1642"/>
      <point x="785" y="1698"/>
      <point x="724" y="1744"/>
      <point x="694" y="1744" type="qcurve" smooth="yes"/>
      <point x="675" y="1744"/>
      <point x="651" y="1718"/>
      <point x="638" y="1681"/>
      <point x="635" y="1640"/>
      <point x="636" y="1626" type="qcurve"/>
      <point x="472" y="1626" type="line"/>
      <point x="471" y="1636"/>
      <point x="470" y="1655"/>
      <point x="470" y="1665" type="qcurve" smooth="yes"/>
      <point x="470" y="1720"/>
      <point x="496" y="1819"/>
      <point x="552" y="1894"/>
      <point x="639" y="1938"/>
      <point x="699" y="1938" type="qcurve" smooth="yes"/>
      <point x="749" y="1938"/>
      <point x="828" y="1892"/>
      <point x="897" y="1836"/>
      <point x="958" y="1790"/>
      <point x="988" y="1790" type="qcurve" smooth="yes"/>
      <point x="1008" y="1790"/>
      <point x="1033" y="1816"/>
      <point x="1045" y="1853"/>
      <point x="1047" y="1893"/>
      <point x="1045" y="1908" type="qcurve"/>
      <point x="1210" y="1908" type="line"/>
      <point x="1211" y="1898"/>
      <point x="1212" y="1878"/>
      <point x="1212" y="1868" type="qcurve" smooth="yes"/>
      <point x="1212" y="1814"/>
      <point x="1185" y="1715"/>
      <point x="1129" y="1640"/>
      <point x="1042" y="1596"/>
    </contour>
    <contour>
      <point x="13" y="0" type="line"/>
      <point x="241" y="1440" type="line"/>
      <point x="512" y="1440" type="line"/>
      <point x="973" y="480" type="line"/>
      <point x="1125" y="1440" type="line"/>
      <point x="1396" y="1440" type="line"/>
      <point x="1168" y="0" type="line"/>
      <point x="897" y="0" type="line"/>
      <point x="436" y="960" type="line"/>
      <point x="284" y="0" type="line"/>
    </contour>
  </outline>
</glyph>
<glyph name="Ograve" format="2">
  <advance width="1477"/>
  <unicode hex="00D2"/>
  <outline>
    <contour>
      <point x="920" y="1980" type="line"/>
      <point x="933" y="1590" type="line"/>
      <point x="766" y="1590" type="line"/>
      <point x="668" y="1980" type="line"/>
    </contour>
    <contour>
      <point x="625" y="-30" type="curve" smooth="yes"/>
      <point x="267" y="-30"/>
      <point x="50" y="190"/>
      <point x="50" y="548" type="curve" smooth="yes"/>
      <point x="50" y="1029"/>
      <point x="362" y="1470"/>
      <point x="873" y="1470" type="curve" smooth="yes"/>
      <point x="1231" y="1470"/>
      <point x="1448" y="1252"/>
      <point x="1448" y="894" type="curve" smooth="yes"/>
      <point x="1448" y="412"/>
      <point x="1139" y="-30"/>
    </contour>
    <contour>
      <point x="676" y="226" type="curve" smooth="yes"/>
      <point x="1016" y="226"/>
      <point x="1163" y="564"/>
      <point x="1163" y="860" type="curve" smooth="yes"/>
      <point x="1163" y="1083"/>
      <point x="1049" y="1214"/>
      <point x="822" y="1214" type="curve" smooth="yes"/>
      <point x="488" y="1214"/>
      <point x="335" y="884"/>
      <point x="335" y="590" type="curve" smooth="yes"/>
      <point x="335" y="363"/>
      <point x="440" y="226"/>
    </contour>
  </outline>
</glyph>
<glyph name="Ocircumflex" format="2">
  <advance width="1477"/>
  <unicode hex="00D4"/>
  <outline>
    <contour>
      <point x="572" y="1590" type="line"/>
      <point x="909" y="1920" type="line"/>
      <point x="1128" y="1920" type="line"/>
      <point x="1356" y="1590" type="line"/>
      <point x="1111" y="1590" type="line"/>
      <point x="994" y="1770" type="line"/>
      <point x="817" y="1590" type="line"/>
    </contour>
    <contour>
      <point x="700" y="-30" type="curve" smooth="yes"/>
      <point x="342" y="-30"/>
      <point x="125" y="190"/>
      <point x="125" y="548" type="curve" smooth="yes"/>
      <point x="125" y="1029"/>
      <point x="437" y="1470"/>
      <point x="948" y="1470" type="curve" smooth="yes"/>
      <point x="1306" y="1470"/>
      <point x="1523" y="1252"/>
      <point x="1523" y="894" type="curve" smooth="yes"/>
      <point x="1523" y="412"/>
      <point x="1214" y="-30"/>
    </contour>
    <contour>
      <point x="751" y="226" type="curve" smooth="yes"/>
      <point x="1091" y="226"/>
      <point x="1238" y="564"/>
      <point x="1238" y="860" type="curve" smooth="yes"/>
      <point x="1238" y="1083"/>
      <point x="1124" y="1214"/>
      <point x="897" y="1214" type="curve" smooth="yes"/>
      <point x="563" y="1214"/>
      <point x="410" y="884"/>
      <point x="410" y="590" type="curve" smooth="yes"/>
      <point x="410" y="363"/>
      <point x="515" y="226"/>
    </contour>
  </outline>
</glyph>
<glyph name="multiply" format="2">
  <advance width="988"/>
  <unicode hex="00D7"/>
  <outline>
    <contour>
      <point x="680" y="328" type="line"/>
      <point x="480" y="573" type="line"/>
      <point x="200" y="328" type="line"/>
      <point x="79" y="477" type="line"/>
      <point x="359" y="721" type="line"/>
      <point x="161" y="965" type="line"/>
      <point x="331" y="1113" type="line"/>
      <point x="529" y="870" type="line"/>
      <point x="808" y="1113" type="line"/>
      <point x="929" y="965" type="line"/>
      <point x="650" y="721" type="line"/>
      <point x="849" y="477" type="line"/>
    </contour>
  </outline>
</glyph>
<glyph name="Oslash" format="2">
  <advance width="1477"/>
  <unicode hex="00D8"/>
  <outline>
    <contour>
      <point x="163" y="-26" type="line"/>
      <point x="3" y="144" type="line"/>
      <point x="187" y="324" type="line"/>
      <point x="226" y="354" type="line"/>
      <point x="1133" y="1232" type="line"/>
      <point x="1149" y="1254" type="line"/>
      <point x="1368" y="1466" type="line"/>
      <point x="1528" y="1294" type="line"/>
      <point x="1288" y="1062" type="line"/>
      <point x="1259" y="1044" type="line"/>
      <point x="349" y="162" type="line"/>
      <point x="331" y="138" type="line"/>
    </contour>
    <contour>
      <point x="625" y="-30" type="curve" smooth="yes"/>
      <point x="267" y="-30"/>
      <point x="50" y="190"/>
      <point x="50" y="548" type="curve" smooth="yes"/>
      <point x="50" y="1029"/>
      <point x="362" y="1470"/>
      <point x="873" y="1470" type="curve" smooth="yes"/>
      <point x="1231" y="1470"/>
      <point x="1448" y="1252"/>
      <point x="1448" y="894" type="curve" smooth="yes"/>
      <point x="1448" y="412"/>
      <point x="1139" y="-30"/>
    </contour>
    <contour>
      <point x="676" y="226" type="curve" smooth="yes"/>
      <point x="1016" y="226"/>
      <point x="1163" y="564"/>
      <point x="1163" y="860" type="curve" smooth="yes"/>
      <point x="1163" y="1083"/>
      <point x="1049" y="1214"/>
      <point x="822" y="1214" type="curve" smooth="yes"/>
      <point x="488" y="1214"/>
      <point x="335" y="884"/>
      <point x="335" y="590" type="curve" smooth="yes"/>
      <point x="335" y="363"/>
      <point x="440" y="226"/>
    </contour>
  </outline>
</glyph>
<glyph name="Ugrave" format="2">
  <advance width="1403"/>
  <unicode hex="00D9"/>
  <outline>
    <contour>
      <point x="1002" y="1980" type="line"/>
      <point x="1015" y="1590" type="line"/>
      <point x="849" y="1590" type="line"/>
      <point x="750" y="1980" type="line"/>
    </contour>
    <contour>
      <point x="663" y="-30" type="qcurve" smooth="yes"/>
      <point x="577" y="-30"/>
      <point x="433" y="5"/>
      <point x="375" y="41" type="qcurve"/>
      <point x="256" y="112"/>
      <point x="154" y="366"/>
      <point x="183" y="540" type="qcurve" smooth="yes"/>
      <point x="331" y="1438" type="line"/>
      <point x="602" y="1440" type="line"/>
      <point x="454" y="542" type="line" smooth="yes"/>
      <point x="442" y="471"/>
      <point x="470" y="355"/>
      <point x="505" y="313" type="qcurve" smooth="yes"/>
      <point x="539" y="271"/>
      <point x="642" y="226"/>
      <point x="705" y="226" type="qcurve" smooth="yes"/>
      <point x="770" y="226"/>
      <point x="888" y="272"/>
      <point x="936" y="314" type="qcurve" smooth="yes"/>
      <point x="984" y="356"/>
      <point x="1050" y="472"/>
      <point x="1061" y="542" type="qcurve" smooth="yes"/>
      <point x="1210" y="1440" type="line"/>
      <point x="1480" y="1440" type="line"/>
      <point x="1331" y="540" type="line" smooth="yes"/>
      <point x="1317" y="453"/>
      <point x="1256" y="303"/>
      <point x="1209" y="239" type="qcurve" smooth="yes"/>
      <point x="1114" y="110"/>
      <point x="835" y="-30"/>
    </contour>
  </outline>
</glyph>
<glyph name="Uacute" format="2">
  <advance width="1394"/>
  <unicode hex="00DA"/>
  <outline>
    <contour>
      <point x="909" y="1980" type="line"/>
      <point x="1161" y="1980" type="line"/>
      <point x="936" y="1590" type="line"/>
      <point x="770" y="1590" type="line"/>
    </contour>
    <contour>
      <point x="583" y="-30" type="qcurve" smooth="yes"/>
      <point x="478" y="-30"/>
      <point x="297" y="29"/>
      <point x="164" y="144"/>
      <point x="89" y="314"/>
      <point x="89" y="425" type="qcurve" smooth="yes"/>
      <point x="89" y="454"/>
      <point x="94" y="511"/>
      <point x="99" y="540" type="qcurve" smooth="yes"/>
      <point x="241" y="1438" type="line"/>
      <point x="512" y="1440" type="line"/>
      <point x="370" y="542" type="line" smooth="yes"/>
      <point x="368" y="527"/>
      <point x="365" y="497"/>
      <point x="365" y="482" type="qcurve" smooth="yes"/>
      <point x="365" y="425"/>
      <point x="403" y="330"/>
      <point x="471" y="263"/>
      <point x="566" y="226"/>
      <point x="623" y="226" type="qcurve" smooth="yes"/>
      <point x="680" y="226"/>
      <point x="783" y="261"/>
      <point x="868" y="322"/>
      <point x="934" y="407"/>
      <point x="954" y="457" type="qcurve" smooth="yes"/>
      <point x="962" y="477"/>
      <point x="973" y="520"/>
      <point x="977" y="542" type="qcurve"/>
      <point x="977" y="542"/>
      <point x="977" y="542"/>
      <point x="977" y="542" type="qcurve"/>
      <point x="1119" y="1440" type="line"/>
      <point x="1390" y="1440" type="line"/>
      <point x="1247" y="540" type="line" smooth="yes"/>
      <point x="1227" y="412"/>
      <point x="1112" y="202"/>
      <point x="938" y="52"/>
      <point x="713" y="-30"/>
    </contour>
  </outline>
</glyph>
<glyph name="Ucircumflex" format="2">
  <advance width="1403"/>
  <unicode hex="00DB"/>
  <outline>
    <contour>
      <point x="500" y="1590" type="line"/>
      <point x="837" y="1920" type="line"/>
      <point x="1056" y="1920" type="line"/>
      <point x="1284" y="1590" type="line"/>
      <point x="1039" y="1590" type="line"/>
      <point x="922" y="1770" type="line"/>
      <point x="745" y="1590" type="line"/>
    </contour>
    <contour>
      <point x="628" y="-30" type="qcurve" smooth="yes"/>
      <point x="542" y="-30"/>
      <point x="398" y="5"/>
      <point x="340" y="41" type="qcurve"/>
      <point x="221" y="112"/>
      <point x="119" y="366"/>
      <point x="148" y="540" type="qcurve" smooth="yes"/>
      <point x="296" y="1438" type="line"/>
      <point x="567" y="1440" type="line"/>
      <point x="419" y="542" type="line" smooth="yes"/>
      <point x="407" y="471"/>
      <point x="435" y="355"/>
      <point x="470" y="313" type="qcurve" smooth="yes"/>
      <point x="504" y="271"/>
      <point x="607" y="226"/>
      <point x="670" y="226" type="qcurve" smooth="yes"/>
      <point x="735" y="226"/>
      <point x="853" y="272"/>
      <point x="901" y="314" type="qcurve" smooth="yes"/>
      <point x="949" y="356"/>
      <point x="1015" y="472"/>
      <point x="1026" y="542" type="qcurve" smooth="yes"/>
      <point x="1175" y="1440" type="line"/>
      <point x="1445" y="1440" type="line"/>
      <point x="1296" y="540" type="line" smooth="yes"/>
      <point x="1282" y="453"/>
      <point x="1221" y="303"/>
      <point x="1174" y="239" type="qcurve" smooth="yes"/>
      <point x="1079" y="110"/>
      <point x="800" y="-30"/>
    </contour>
  </outline>
</glyph>
<glyph name="Yacute" format="2">
  <advance width="1234"/>
  <unicode hex="00DD"/>
  <outline>
    <contour>
      <point x="920" y="1980" type="line"/>
      <point x="1172" y="1980" type="line"/>
      <point x="945" y="1590" type="line"/>
      <point x="778" y="1590" type="line"/>
    </contour>
    <contour>
      <point x="448" y="0" type="line"/>
      <point x="545" y="586" type="line"/>
      <point x="204" y="1440" type="line"/>
      <point x="516" y="1440" type="line"/>
      <point x="732" y="898" type="line"/>
      <point x="1128" y="1440" type="line"/>
      <point x="1439" y="1440" type="line"/>
      <point x="816" y="586" type="line"/>
      <point x="719" y="0" type="line"/>
    </contour>
  </outline>
</glyph>
<glyph name="Thorn" format="2">
  <advance width="1244"/>
  <unicode hex="00DE"/>
  <outline>
    <contour>
      <point x="18" y="0" type="line"/>
      <point x="257" y="1440" type="line"/>
      <point x="527" y="1440" type="line"/>
      <point x="487" y="1196" type="line"/>
      <point x="806" y="1196" type="line" smooth="yes"/>
      <point x="842" y="1196"/>
      <point x="912" y="1185"/>
      <point x="946" y="1174" type="qcurve" smooth="yes"/>
      <point x="1013" y="1152"/>
      <point x="1121" y="1065"/>
      <point x="1153" y="1002" type="qcurve"/>
      <point x="1187" y="942"/>
      <point x="1211" y="795"/>
      <point x="1200" y="720" type="qcurve" smooth="yes"/>
      <point x="1190" y="645"/>
      <point x="1113" y="498"/>
      <point x="1059" y="438" type="qcurve" smooth="yes"/>
      <point x="1020" y="394"/>
      <point x="929" y="325"/>
      <point x="874" y="299" type="qcurve" smooth="yes"/>
      <point x="820" y="273"/>
      <point x="708" y="246"/>
      <point x="649" y="246" type="qcurve" smooth="yes"/>
      <point x="330" y="246" type="line"/>
      <point x="289" y="0" type="line"/>
    </contour>
    <contour>
      <point x="372" y="500" type="line"/>
      <point x="689" y="500" type="line" smooth="yes"/>
      <point x="730" y="500"/>
      <point x="827" y="546"/>
      <point x="864" y="588" type="qcurve" smooth="yes"/>
      <point x="889" y="617"/>
      <point x="925" y="684"/>
      <point x="929" y="720" type="qcurve" smooth="yes"/>
      <point x="934" y="759"/>
      <point x="923" y="834"/>
      <point x="902" y="862" type="qcurve"/>
      <point x="880" y="895"/>
      <point x="803" y="940"/>
      <point x="762" y="940" type="qcurve" smooth="yes"/>
      <point x="444" y="940" type="line"/>
    </contour>
  </outline>
</glyph>
<glyph name="germandbls" format="2">
  <advance width="1220"/>
  <unicode hex="00DF"/>
  <outline>
    <contour>
      <point x="557" y="-30" type="curve" smooth="yes"/>
      <point x="498" y="-30"/>
      <point x="438" y="-26"/>
      <point x="384" y="0" type="curve"/>
      <point x="428" y="266" type="line"/>
      <point x="471" y="247"/>
      <point x="516" y="236"/>
      <point x="563" y="236" type="curve" smooth="yes"/>
      <point x="712" y="236"/>
      <point x="820" y="319"/>
      <point x="820" y="475" type="curve" smooth="yes"/>
      <point x="820" y="616"/>
      <point x="675" y="644"/>
      <point x="562" y="644" type="curve"/>
      <point x="601" y="880" type="line"/>
      <point x="719" y="888"/>
      <point x="810" y="958"/>
      <point x="810" y="1083" type="curve" smooth="yes"/>
      <point x="810" y="1170"/>
      <point x="735" y="1216"/>
      <point x="655" y="1216" type="curve" smooth="yes"/>
      <point x="512" y="1216"/>
      <point x="461" y="1111"/>
      <point x="440" y="986" type="curve" smooth="yes"/>
      <point x="277" y="0" type="line"/>
      <point x="17" y="0" type="line"/>
      <point x="192" y="1060" type="line" smooth="yes"/>
      <point x="235" y="1320"/>
      <point x="439" y="1470"/>
      <point x="697" y="1470" type="curve" smooth="yes"/>
      <point x="898" y="1470"/>
      <point x="1075" y="1342"/>
      <point x="1075" y="1129" type="curve" smooth="yes"/>
      <point x="1075" y="1004"/>
      <point x="1023" y="880"/>
      <point x="928" y="798" type="curve"/>
      <point x="1038" y="747"/>
      <point x="1081" y="632"/>
      <point x="1081" y="517" type="curve" smooth="yes"/>
      <point x="1081" y="205"/>
      <point x="875" y="-30"/>
    </contour>
  </outline>
</glyph>
<glyph name="agrave" format="2">
  <advance width="1088"/>
  <unicode hex="00E0"/>
  <outline>
    <component base="a"/>
    <contour>
      <point x="714" y="1620" type="line"/>
      <point x="470" y="1620" type="line"/>
      <point x="566" y="1230" type="line"/>
      <point x="727" y="1230" type="line"/>
    </contour>
  </outline>
</glyph>
<glyph name="aacute" format="2">
  <advance width="1088"/>
  <unicode hex="00E1"/>
  <outline>
    <component base="a"/>
    <contour>
      <point x="622" y="1620" type="line"/>
      <point x="485" y="1230" type="line"/>
      <point x="646" y="1230" type="line"/>
      <point x="865" y="1620" type="line"/>
    </contour>
  </outline>
</glyph>
<glyph name="acircumflex" format="2">
  <advance width="1088"/>
  <unicode hex="00E2"/>
  <outline>
    <component base="a"/>
    <contour>
      <point x="284" y="1230" type="line"/>
      <point x="609" y="1560" type="line"/>
      <point x="821" y="1560" type="line"/>
      <point x="1041" y="1230" type="line"/>
      <point x="805" y="1230" type="line"/>
      <point x="691" y="1410" type="line"/>
      <point x="520" y="1230" type="line"/>
    </contour>
  </outline>
</glyph>
<glyph name="atilde" format="2">
  <advance width="1088"/>
  <unicode hex="00E3"/>
  <outline>
    <component base="a"/>
    <contour>
      <point x="775" y="1236" type="qcurve" smooth="yes"/>
      <point x="729" y="1236"/>
      <point x="652" y="1282"/>
      <point x="586" y="1338"/>
      <point x="527" y="1384"/>
      <point x="498" y="1384" type="qcurve" smooth="yes"/>
      <point x="479" y="1384"/>
      <point x="455" y="1358"/>
      <point x="443" y="1320"/>
      <point x="440" y="1280"/>
      <point x="441" y="1266" type="qcurve"/>
      <point x="283" y="1266" type="line"/>
      <point x="282" y="1275"/>
      <point x="282" y="1292"/>
      <point x="282" y="1301" type="qcurve" smooth="yes"/>
      <point x="282" y="1355"/>
      <point x="306" y="1455"/>
      <point x="360" y="1532"/>
      <point x="445" y="1578"/>
      <point x="505" y="1578" type="qcurve" smooth="yes"/>
      <point x="553" y="1578"/>
      <point x="629" y="1532"/>
      <point x="695" y="1476"/>
      <point x="754" y="1430"/>
      <point x="783" y="1430" type="qcurve" smooth="yes"/>
      <point x="803" y="1430"/>
      <point x="827" y="1456"/>
      <point x="838" y="1493"/>
      <point x="840" y="1534"/>
      <point x="839" y="1548" type="qcurve"/>
      <point x="997" y="1548" type="line"/>
      <point x="998" y="1538"/>
      <point x="999" y="1519"/>
      <point x="999" y="1509" type="qcurve" smooth="yes"/>
      <point x="999" y="1456"/>
      <point x="973" y="1358"/>
      <point x="919" y="1282"/>
      <point x="834" y="1236"/>
    </contour>
  </outline>
</glyph>
<glyph name="aring" format="2">
  <advance width="1218"/>
  <unicode hex="00E5"/>
  <outline>
    <component base="a"/>
    <contour>
      <point x="742" y="1190" type="qcurve" smooth="yes"/>
      <point x="707" y="1190"/>
      <point x="646" y="1208"/>
      <point x="619" y="1227" type="qcurve" smooth="yes"/>
      <point x="566" y="1263"/>
      <point x="517" y="1385"/>
      <point x="529" y="1460" type="qcurve" smooth="yes"/>
      <point x="535" y="1498"/>
      <point x="564" y="1565"/>
      <point x="587" y="1596" type="qcurve" smooth="yes"/>
      <point x="631" y="1658"/>
      <point x="759" y="1730"/>
      <point x="831" y="1730" type="qcurve" smooth="yes"/>
      <point x="867" y="1730"/>
      <point x="929" y="1712"/>
      <point x="955" y="1694" type="qcurve" smooth="yes"/>
      <point x="1007" y="1657"/>
      <point x="1057" y="1535"/>
      <point x="1044" y="1460" type="qcurve" smooth="yes"/>
      <point x="1038" y="1423"/>
      <point x="1010" y="1356"/>
      <point x="988" y="1325" type="qcurve" smooth="yes"/>
      <point x="942" y="1263"/>
      <point x="814" y="1190"/>
    </contour>
    <contour>
      <point x="769" y="1350" type="qcurve" smooth="yes"/>
      <point x="791" y="1350"/>
      <point x="831" y="1366"/>
      <point x="849" y="1383" type="qcurve"/>
      <point x="867" y="1399"/>
      <point x="889" y="1437"/>
      <point x="892" y="1460" type="qcurve"/>
      <point x="896" y="1483"/>
      <point x="887" y="1522"/>
      <point x="875" y="1538" type="qcurve"/>
      <point x="862" y="1554"/>
      <point x="827" y="1570"/>
      <point x="805" y="1570" type="qcurve" smooth="yes"/>
      <point x="783" y="1570"/>
      <point x="744" y="1554"/>
      <point x="726" y="1538" type="qcurve"/>
      <point x="707" y="1522"/>
      <point x="685" y="1483"/>
      <point x="681" y="1460" type="qcurve" smooth="yes"/>
      <point x="677" y="1437"/>
      <point x="686" y="1399"/>
      <point x="700" y="1383" type="qcurve"/>
      <point x="713" y="1366"/>
      <point x="747" y="1350"/>
    </contour>
  </outline>
</glyph>
<glyph name="ae" format="2">
  <advance width="1778"/>
  <unicode hex="00E6"/>
  <outline>
    <contour>
      <point x="1160" y="-30" type="curve" smooth="yes"/>
      <point x="897" y="-30"/>
      <point x="734" y="144"/>
      <point x="734" y="404" type="curve" smooth="yes"/>
      <point x="734" y="746"/>
      <point x="963" y="1110"/>
      <point x="1335" y="1110" type="curve" smooth="yes"/>
      <point x="1595" y="1110"/>
      <point x="1713" y="936"/>
      <point x="1713" y="690" type="curve" smooth="yes"/>
      <point x="1713" y="614"/>
      <point x="1702" y="538"/>
      <point x="1685" y="464" type="curve"/>
      <point x="1441" y="464" type="line"/>
      <point x="1454" y="537"/>
      <point x="1469" y="611"/>
      <point x="1469" y="686" type="curve" smooth="yes"/>
      <point x="1469" y="816"/>
      <point x="1431" y="874"/>
      <point x="1295" y="874" type="curve" smooth="yes"/>
      <point x="1076" y="874"/>
      <point x="997" y="631"/>
      <point x="997" y="447" type="curve" smooth="yes"/>
      <point x="997" y="322"/>
      <point x="1050" y="224"/>
      <point x="1187" y="224" type="curve" smooth="yes"/>
      <point x="1285" y="224"/>
      <point x="1364" y="277"/>
      <point x="1412" y="360" type="curve"/>
      <point x="1645" y="282" type="line"/>
      <point x="1551" y="105"/>
      <point x="1365" y="-30"/>
    </contour>
    <contour>
      <point x="408" y="182" type="curve" smooth="yes"/>
      <point x="612" y="182"/>
      <point x="710" y="348"/>
      <point x="734" y="532" type="curve"/>
      <point x="822" y="498" type="line"/>
      <point x="599" y="470" type="line" smooth="yes"/>
      <point x="491" y="456"/>
      <point x="279" y="425"/>
      <point x="279" y="280" type="curve" smooth="yes"/>
      <point x="279" y="208"/>
      <point x="346" y="182"/>
    </contour>
    <contour>
      <point x="331" y="-30" type="curve" smooth="yes"/>
      <point x="166" y="-30"/>
      <point x="21" y="45"/>
      <point x="21" y="229" type="curve" smooth="yes"/>
      <point x="21" y="532"/>
      <point x="306" y="620"/>
      <point x="570" y="652" type="curve" smooth="yes"/>
      <point x="816" y="682" type="line"/>
      <point x="747" y="630" type="line"/>
      <point x="755" y="661"/>
      <point x="762" y="693"/>
      <point x="762" y="725" type="curve" smooth="yes"/>
      <point x="762" y="823"/>
      <point x="687" y="862"/>
      <point x="599" y="862" type="curve" smooth="yes"/>
      <point x="503" y="862"/>
      <point x="415" y="814"/>
      <point x="368" y="730" type="curve"/>
      <point x="148" y="804" type="line"/>
      <point x="250" y="983"/>
      <point x="438" y="1110"/>
      <point x="647" y="1110" type="curve" smooth="yes"/>
      <point x="861" y="1110"/>
      <point x="1021" y="1014"/>
      <point x="1021" y="783" type="curve" smooth="yes"/>
      <point x="1021" y="763"/>
      <point x="1013" y="657"/>
      <point x="1007" y="644" type="curve" smooth="yes"/>
      <point x="805" y="212" type="line" smooth="yes"/>
      <point x="798" y="198"/>
      <point x="751" y="147"/>
      <point x="738" y="134" type="curve" smooth="yes"/>
      <point x="624" y="21"/>
      <point x="491" y="-30"/>
    </contour>
    <contour>
      <point x="917" y="464" type="line"/>
      <point x="952" y="674" type="line"/>
      <point x="1599" y="674" type="line"/>
      <point x="1565" y="464" type="line"/>
    </contour>
  </outline>
</glyph>
<glyph name="ccedilla" format="2">
  <advance width="1107"/>
  <unicode hex="00E7"/>
  <outline>
    <contour>
      <point x="366" y="-484" type="curve" smooth="yes"/>
      <point x="319" y="-484"/>
      <point x="277" y="-471"/>
      <point x="237" y="-446" type="curve"/>
      <point x="318" y="-290" type="line"/>
      <point x="336" y="-296"/>
      <point x="355" y="-302"/>
      <point x="374" y="-302" type="curve" smooth="yes"/>
      <point x="406" y="-302"/>
      <point x="436" y="-279"/>
      <point x="436" y="-246" type="curve" smooth="yes"/>
      <point x="436" y="-201"/>
      <point x="359" y="-182"/>
      <point x="324" y="-170" type="curve"/>
      <point x="425" y="34" type="line"/>
      <point x="576" y="36" type="line"/>
      <point x="524" y="-72" type="line"/>
      <point x="580" y="-105"/>
      <point x="613" y="-156"/>
      <point x="613" y="-221" type="curve" smooth="yes"/>
      <point x="613" y="-356"/>
      <point x="506" y="-484"/>
    </contour>
    <contour>
      <point x="471" y="-30" type="curve" smooth="yes"/>
      <point x="199" y="-30"/>
      <point x="42" y="146"/>
      <point x="42" y="413" type="curve" smooth="yes"/>
      <point x="42" y="768"/>
      <point x="285" y="1110"/>
      <point x="663" y="1110" type="curve" smooth="yes"/>
      <point x="891" y="1110"/>
      <point x="1060" y="989"/>
      <point x="1068" y="750" type="curve"/>
      <point x="795" y="678" type="line"/>
      <point x="783" y="778"/>
      <point x="723" y="856"/>
      <point x="616" y="856" type="curve" smooth="yes"/>
      <point x="406" y="856"/>
      <point x="319" y="628"/>
      <point x="319" y="449" type="curve" smooth="yes"/>
      <point x="319" y="321"/>
      <point x="372" y="224"/>
      <point x="512" y="224" type="curve" smooth="yes"/>
      <point x="630" y="224"/>
      <point x="694" y="283"/>
      <point x="741" y="386" type="curve"/>
      <point x="998" y="328" type="line"/>
      <point x="905" y="104"/>
      <point x="715" y="-30"/>
    </contour>
  </outline>
</glyph>
<glyph name="eacute" format="2">
  <advance width="1157"/>
  <unicode hex="00E9"/>
  <outline>
    <contour>
      <point x="786" y="1620" type="line"/>
      <point x="1032" y="1620" type="line"/>
      <point x="809" y="1230" type="line"/>
      <point x="646" y="1230" type="line"/>
    </contour>
    <contour>
      <point x="497" y="-30" type="qcurve" smooth="yes"/>
      <point x="417" y="-30"/>
      <point x="284" y="6"/>
      <point x="229" y="42" type="qcurve" smooth="yes"/>
      <point x="173" y="77"/>
      <point x="95" y="176"/>
      <point x="72" y="239" type="qcurve" smooth="yes"/>
      <point x="48" y="302"/>
      <point x="37" y="445"/>
      <point x="51" y="526" type="qcurve" smooth="yes"/>
      <point x="66" y="615"/>
      <point x="124" y="768"/>
      <point x="169" y="834" type="qcurve" smooth="yes"/>
      <point x="258" y="966"/>
      <point x="516" y="1110"/>
      <point x="671" y="1110" type="qcurve" smooth="yes"/>
      <point x="752" y="1110"/>
      <point x="883" y="1070"/>
      <point x="934" y="1030" type="qcurve" smooth="yes"/>
      <point x="1036" y="949"/>
      <point x="1096" y="661"/>
      <point x="1047" y="464" type="qcurve"/>
      <point x="790" y="464" type="line"/>
      <point x="807" y="564" type="line" smooth="yes"/>
      <point x="821" y="647"/>
      <point x="815" y="765"/>
      <point x="797" y="802" type="qcurve"/>
      <point x="778" y="838"/>
      <point x="701" y="874"/>
      <point x="643" y="874" type="qcurve" smooth="yes"/>
      <point x="576" y="874"/>
      <point x="471" y="832"/>
      <point x="434" y="790" type="qcurve" smooth="yes"/>
      <point x="395" y="747"/>
      <point x="343" y="623"/>
      <point x="329" y="540" type="qcurve" smooth="yes"/>
      <point x="316" y="464"/>
      <point x="329" y="349"/>
      <point x="354" y="307" type="qcurve" smooth="yes"/>
      <point x="378" y="265"/>
      <point x="463" y="224"/>
      <point x="524" y="224" type="qcurve" smooth="yes"/>
      <point x="602" y="224"/>
      <point x="722" y="294"/>
      <point x="762" y="360" type="qcurve"/>
      <point x="1009" y="282" type="line"/>
      <point x="967" y="207"/>
      <point x="857" y="94"/>
      <point x="787" y="52" type="qcurve" smooth="yes"/>
      <point x="717" y="10"/>
      <point x="572" y="-30"/>
    </contour>
    <contour>
      <point x="236" y="464" type="line"/>
      <point x="270" y="666" type="line"/>
      <point x="955" y="666" type="line"/>
      <point x="922" y="464" type="line"/>
    </contour>
  </outline>
</glyph>
<glyph name="ecircumflex" format="2">
  <advance width="1157"/>
  <unicode hex="00EA"/>
  <outline>
    <contour>
      <point x="344" y="1230" type="line"/>
      <point x="674" y="1560" type="line"/>
      <point x="889" y="1560" type="line"/>
      <point x="1110" y="1230" type="line"/>
      <point x="871" y="1230" type="line"/>
      <point x="757" y="1410" type="line"/>
      <point x="583" y="1230" type="line"/>
    </contour>
    <contour>
      <point x="537" y="-30" type="qcurve" smooth="yes"/>
      <point x="457" y="-30"/>
      <point x="324" y="6"/>
      <point x="269" y="42" type="qcurve" smooth="yes"/>
      <point x="213" y="77"/>
      <point x="135" y="176"/>
      <point x="112" y="239" type="qcurve" smooth="yes"/>
      <point x="88" y="302"/>
      <point x="77" y="445"/>
      <point x="91" y="526" type="qcurve" smooth="yes"/>
      <point x="106" y="615"/>
      <point x="164" y="768"/>
      <point x="209" y="834" type="qcurve" smooth="yes"/>
      <point x="298" y="966"/>
      <point x="556" y="1110"/>
      <point x="711" y="1110" type="qcurve" smooth="yes"/>
      <point x="792" y="1110"/>
      <point x="923" y="1070"/>
      <point x="974" y="1030" type="qcurve" smooth="yes"/>
      <point x="1076" y="949"/>
      <point x="1136" y="661"/>
      <point x="1087" y="464" type="qcurve"/>
      <point x="830" y="464" type="line"/>
      <point x="847" y="564" type="line" smooth="yes"/>
      <point x="861" y="647"/>
      <point x="855" y="765"/>
      <point x="837" y="802" type="qcurve"/>
      <point x="818" y="838"/>
      <point x="741" y="874"/>
      <point x="683" y="874" type="qcurve" smooth="yes"/>
      <point x="616" y="874"/>
      <point x="511" y="832"/>
      <point x="474" y="790" type="qcurve" smooth="yes"/>
      <point x="435" y="747"/>
      <point x="383" y="623"/>
      <point x="369" y="540" type="qcurve" smooth="yes"/>
      <point x="356" y="464"/>
      <point x="369" y="349"/>
      <point x="394" y="307" type="qcurve" smooth="yes"/>
      <point x="418" y="265"/>
      <point x="503" y="224"/>
      <point x="564" y="224" type="qcurve" smooth="yes"/>
      <point x="642" y="224"/>
      <point x="762" y="294"/>
      <point x="802" y="360" type="qcurve"/>
      <point x="1049" y="282" type="line"/>
      <point x="1007" y="207"/>
      <point x="897" y="94"/>
      <point x="827" y="52" type="qcurve" smooth="yes"/>
      <point x="757" y="10"/>
      <point x="612" y="-30"/>
    </contour>
    <contour>
      <point x="276" y="464" type="line"/>
      <point x="310" y="666" type="line"/>
      <point x="995" y="666" type="line"/>
      <point x="962" y="464" type="line"/>
    </contour>
  </outline>
</glyph>
<glyph name="igrave" format="2">
  <advance width="537"/>
  <unicode hex="00EC"/>
  <outline>
    <contour>
      <point x="40" y="0" type="line"/>
      <point x="211" y="1080" type="line"/>
      <point x="467" y="1080" type="line"/>
      <point x="296" y="0" type="line"/>
    </contour>
    <contour>
      <point x="432" y="1620" type="line"/>
      <point x="188" y="1620" type="line"/>
      <point x="284" y="1230" type="line"/>
      <point x="445" y="1230" type="line"/>
    </contour>
  </outline>
</glyph>
<glyph name="iacute" format="2">
  <advance width="556"/>
  <unicode hex="00ED"/>
  <outline>
    <contour>
      <point x="522" y="1620" type="line"/>
      <point x="768" y="1620" type="line"/>
      <point x="544" y="1230" type="line"/>
      <point x="383" y="1230" type="line"/>
    </contour>
    <contour>
      <point x="112" y="0" type="line"/>
      <point x="290" y="1080" type="line"/>
      <point x="549" y="1080" type="line"/>
      <point x="370" y="0" type="line"/>
    </contour>
  </outline>
</glyph>
<glyph name="icircumflex" format="2">
  <advance width="575"/>
  <unicode hex="00EE"/>
  <outline>
    <contour>
      <point x="30" y="1230" type="line"/>
      <point x="360" y="1560" type="line"/>
      <point x="573" y="1560" type="line"/>
      <point x="795" y="1230" type="line"/>
      <point x="555" y="1230" type="line"/>
      <point x="442" y="1410" type="line"/>
      <point x="270" y="1230" type="line"/>
    </contour>
    <contour>
      <point x="64" y="0" type="line"/>
      <point x="243" y="1080" type="line"/>
      <point x="501" y="1080" type="line"/>
      <point x="322" y="0" type="line"/>
    </contour>
  </outline>
</glyph>
<glyph name="eth" format="2">
  <advance width="1140"/>
  <unicode hex="00F0"/>
  <outline>
    <contour>
      <point x="457" y="-30" type="curve"/>
      <point x="204" y="-30"/>
      <point x="37" y="137"/>
      <point x="37" y="390" type="curve" smooth="yes"/>
      <point x="37" y="730"/>
      <point x="280" y="1036"/>
      <point x="635" y="1036" type="curve" smooth="yes"/>
      <point x="730" y="1036"/>
      <point x="793" y="1013"/>
      <point x="875" y="966" type="curve"/>
      <point x="875" y="980"/>
      <point x="874" y="994"/>
      <point x="872" y="1007" type="curve" smooth="yes"/>
      <point x="846" y="1183"/>
      <point x="655" y="1301"/>
      <point x="488" y="1314" type="curve"/>
      <point x="562" y="1520" type="line"/>
      <point x="939" y="1510"/>
      <point x="1081" y="1239"/>
      <point x="1081" y="894" type="curve" smooth="yes"/>
      <point x="1081" y="804"/>
      <point x="1076" y="710"/>
      <point x="1063" y="618" type="curve" smooth="yes"/>
      <point x="1046" y="495"/>
      <point x="1015" y="375"/>
      <point x="962" y="273" type="curve" smooth="yes"/>
      <point x="871" y="96"/>
      <point x="715" y="-30"/>
    </contour>
    <contour>
      <point x="497" y="210" type="curve" smooth="yes"/>
      <point x="698" y="210"/>
      <point x="791" y="405"/>
      <point x="791" y="583" type="curve" smooth="yes"/>
      <point x="791" y="711"/>
      <point x="728" y="796"/>
      <point x="594" y="796" type="curve" smooth="yes"/>
      <point x="387" y="796"/>
      <point x="298" y="604"/>
      <point x="298" y="421" type="curve" smooth="yes"/>
      <point x="298" y="291"/>
      <point x="363" y="210"/>
    </contour>
    <contour>
      <point x="674" y="1058" type="line"/>
      <point x="554" y="1190" type="line"/>
      <point x="933" y="1566" type="line"/>
      <point x="1052" y="1434" type="line"/>
    </contour>
  </outline>
</glyph>
<glyph name="ntilde" format="2">
  <advance width="1201"/>
  <unicode hex="00F1"/>
  <outline>
    <contour>
      <point x="902" y="1236" type="curve" smooth="yes"/>
      <point x="776" y="1236"/>
      <point x="701" y="1384"/>
      <point x="622" y="1384" type="curve" smooth="yes"/>
      <point x="570" y="1384"/>
      <point x="561" y="1304"/>
      <point x="565" y="1266" type="curve"/>
      <point x="405" y="1266" type="line"/>
      <point x="405" y="1279"/>
      <point x="405" y="1293"/>
      <point x="405" y="1306" type="curve"/>
      <point x="409" y="1445"/>
      <point x="463" y="1578"/>
      <point x="631" y="1578" type="curve" smooth="yes"/>
      <point x="757" y="1578"/>
      <point x="834" y="1430"/>
      <point x="911" y="1430" type="curve" smooth="yes"/>
      <point x="965" y="1430"/>
      <point x="972" y="1509"/>
      <point x="968" y="1548" type="curve"/>
      <point x="1128" y="1548" type="line"/>
      <point x="1128" y="1535"/>
      <point x="1128" y="1522"/>
      <point x="1128" y="1509" type="curve"/>
      <point x="1124" y="1371"/>
      <point x="1069" y="1236"/>
    </contour>
    <contour>
      <point x="761" y="0" type="line"/>
      <point x="846" y="510" type="line" smooth="yes"/>
      <point x="853" y="555"/>
      <point x="860" y="603"/>
      <point x="860" y="648" type="curve" smooth="yes"/>
      <point x="860" y="771"/>
      <point x="814" y="856"/>
      <point x="681" y="856" type="curve" smooth="yes"/>
      <point x="502" y="856"/>
      <point x="434" y="701"/>
      <point x="410" y="548" type="curve"/>
      <point x="274" y="622" type="line"/>
      <point x="321" y="897"/>
      <point x="514" y="1112"/>
      <point x="805" y="1112" type="curve" smooth="yes"/>
      <point x="1038" y="1112"/>
      <point x="1137" y="978"/>
      <point x="1137" y="754" type="curve" smooth="yes"/>
      <point x="1137" y="705"/>
      <point x="1132" y="654"/>
      <point x="1124" y="606" type="curve" smooth="yes"/>
      <point x="1024" y="0" type="line"/>
    </contour>
    <contour>
      <point x="57" y="0" type="line"/>
      <point x="235" y="1080" type="line"/>
      <point x="465" y="1080" type="line"/>
      <point x="406" y="722" type="line"/>
      <point x="438" y="722" type="line"/>
      <point x="319" y="0" type="line"/>
    </contour>
  </outline>
</glyph>
<glyph name="ograve" format="2">
  <advance width="1190"/>
  <unicode hex="00F2"/>
  <outline>
    <contour>
      <point x="807" y="1620" type="line"/>
      <point x="818" y="1230" type="line"/>
      <point x="655" y="1230" type="line"/>
      <point x="561" y="1620" type="line"/>
    </contour>
    <contour>
      <point x="555" y="-30" type="curve" smooth="yes"/>
      <point x="285" y="-30"/>
      <point x="117" y="148"/>
      <point x="117" y="415" type="curve" smooth="yes"/>
      <point x="117" y="773"/>
      <point x="366" y="1110"/>
      <point x="744" y="1110" type="curve" smooth="yes"/>
      <point x="1016" y="1110"/>
      <point x="1183" y="931"/>
      <point x="1183" y="662" type="curve" smooth="yes"/>
      <point x="1183" y="304"/>
      <point x="932" y="-30"/>
    </contour>
    <contour>
      <point x="597" y="224" type="curve" smooth="yes"/>
      <point x="811" y="224"/>
      <point x="907" y="440"/>
      <point x="907" y="627" type="curve" smooth="yes"/>
      <point x="907" y="764"/>
      <point x="847" y="856"/>
      <point x="702" y="856" type="curve" smooth="yes"/>
      <point x="485" y="856"/>
      <point x="394" y="640"/>
      <point x="394" y="452" type="curve" smooth="yes"/>
      <point x="394" y="318"/>
      <point x="454" y="224"/>
    </contour>
  </outline>
</glyph>
